<?xml version="1.0" encoding="UTF-8"?>
<svg width="12.6666667px" height="19px" viewBox="0 0 12.6666667 19" version="1.1" xmlns="http://www.w3.org/2000/svg" xmlns:xlink="http://www.w3.org/1999/xlink">
    <title>figma</title>
    <g id="Page-1" stroke="none" stroke-width="1" fill="none" fill-rule="evenodd">
        <g id="figma" fill-rule="nonzero">
            <path d="M3.16666667,19 C4.91466667,19 6.33333333,17.5813333 6.33333333,15.8333333 L6.33333333,12.6666667 L3.16666667,12.6666667 C1.41866667,12.6666667 0,14.0853333 0,15.8333333 C0,17.5813333 1.41866667,19 3.16666667,19 Z" id="path0_fill" fill="#0ACF83"></path>
            <path d="M0,9.5 C0,7.752 1.41866667,6.33333333 3.16666667,6.33333333 L6.33333333,6.33333333 L6.33333333,12.6666667 L3.16666667,12.6666667 C1.41866667,12.6666667 0,11.248 0,9.5 Z" id="path1_fill" fill="#A259FF"></path>
            <path d="M0,3.16666667 C0,1.41866667 1.41866667,0 3.16666667,0 L6.33333333,0 L6.33333333,6.33333333 L3.16666667,6.33333333 C1.41866667,6.33333333 0,4.91466667 0,3.16666667 Z" id="path1_fill_1_" fill="#F24E1E"></path>
            <path d="M6.33333333,0 L9.5,0 C11.248,0 12.6666667,1.41866667 12.6666667,3.16666667 C12.6666667,4.91466667 11.248,6.33333333 9.5,6.33333333 L6.33333333,6.33333333 L6.33333333,0 Z" id="path2_fill" fill="#FF7262"></path>
            <path d="M12.6666667,9.5 C12.6666667,11.248 11.248,12.6666667 9.5,12.6666667 C7.752,12.6666667 6.33333333,11.248 6.33333333,9.5 C6.33333333,7.752 7.752,6.33333333 9.5,6.33333333 C11.248,6.33333333 12.6666667,7.752 12.6666667,9.5 Z" id="path3_fill" fill="#1ABCFE"></path>
        </g>
    </g>
</svg>