<?xml version="1.0" encoding="UTF-8"?>
<svg width="22px" height="22px" viewBox="0 0 22 22" version="1.1" xmlns="http://www.w3.org/2000/svg" xmlns:xlink="http://www.w3.org/1999/xlink">
    <!-- Generator: Sketch 52.6 (67491) - http://www.bohemiancoding.com/sketch -->
    <title>Laravel</title>
    <desc>Created with Sketch.</desc>
    <g id="Page-1" stroke="none" stroke-width="1" fill="none" fill-rule="evenodd">
        <g id="Laravel" fill="#FF2D20">
            <path d="M21.3585417,4.97709433 C21.3664659,5.00642401 21.3705172,5.03666468 21.3705926,5.06704588 L21.3705926,9.78928663 C21.3705971,9.91265681 21.304595,10.0266007 21.1975758,10.0879774 L17.2341129,12.369906 L17.2341129,16.8928761 C17.2341129,17.0159677 17.1686936,17.1295907 17.0619568,17.1915669 L8.78856691,21.9542643 C8.76962974,21.965024 8.74897101,21.9719103 8.72831229,21.9792269 C8.72056526,21.9818092 8.71324863,21.9865435 8.70507122,21.9886955 C8.6472371,22.0039256 8.58644537,22.0039256 8.52861125,21.9886955 C8.51914267,21.9861131 8.51053487,21.9809485 8.50149668,21.9775053 C8.48255951,21.9706191 8.46276156,21.9645936 8.44468517,21.9542643 L0.173016841,17.1915669 C0.0660628295,17.1301248 8.47443678e-05,17.0162223 0,16.8928761 L0,2.72615384 C0,2.69516575 0.00430390152,2.66503844 0.0120509243,2.63577191 C0.0146332652,2.62587293 0.0206587273,2.61683474 0.0241018485,2.60693577 C0.0305577008,2.58885938 0.0365831629,2.5703526 0.0460517463,2.55356739 C0.0525075986,2.54237724 0.0619761819,2.53333905 0.0697232046,2.52300969 C0.0796221781,2.5092372 0.0886603713,2.49503433 0.100280905,2.4829834 C0.110179879,2.47308443 0.123091584,2.4657678 0.134281727,2.45715999 C0.146763042,2.44683063 0.157953186,2.43564049 0.172156061,2.42746307 L0.172586451,2.42746307 L4.30863581,0.0461143617 C4.41521371,-0.0152140744 4.54637003,-0.0152140744 4.65294793,0.0461143617 L8.7889973,2.42746307 L8.78985808,2.42746307 C8.80363056,2.43607088 8.8152511,2.44683063 8.82773241,2.4567296 C8.83892255,2.46533741 8.85140387,2.47308443 8.86130284,2.48255301 C8.87335377,2.49503433 8.88196157,2.5092372 8.89229093,2.52300969 C8.89960757,2.53333905 8.90950654,2.54237724 8.915532,2.55356739 C8.92543097,2.57078299 8.93102605,2.58885938 8.93791229,2.60693577 C8.94135541,2.61683474 8.94738087,2.62587293 8.94996321,2.6362023 C8.95788739,2.66553198 8.96193877,2.69577264 8.96201414,2.72615384 L8.96201414,11.574545 L12.4085785,9.59001599 L12.4085785,5.06661549 C12.4085785,5.03648818 12.4128824,5.00593047 12.4206294,4.97709433 C12.4236421,4.96676497 12.4292372,4.95772678 12.4326803,4.9478278 C12.4395666,4.92975142 12.445592,4.91124464 12.4550606,4.89445943 C12.4615165,4.88326928 12.470985,4.87423109 12.4783017,4.86390172 C12.488631,4.85012924 12.4972388,4.83592636 12.5092898,4.82387544 C12.5191887,4.81397647 12.5316701,4.80665983 12.5428602,4.79805203 C12.5557719,4.78772267 12.5669621,4.77653252 12.5807345,4.76835511 L12.5811649,4.76835511 L16.7176447,2.3870064 C16.824199,2.3255896 16.9554025,2.3255896 17.0619568,2.3870064 L21.1980062,4.76835511 C21.2126394,4.77696291 21.2238296,4.78772267 21.2367413,4.79762164 C21.247501,4.80622944 21.2599823,4.81397647 21.2698813,4.82344505 C21.2819322,4.83592636 21.29054,4.85012924 21.3008694,4.86390172 C21.3086164,4.87423109 21.318085,4.88326928 21.3241105,4.89445943 C21.3340095,4.91124464 21.3396045,4.92975142 21.3464908,4.9478278 C21.3503643,4.95772678 21.3559593,4.96676497 21.3585417,4.97709433 Z M20.6811076,9.59001599 L20.6811076,5.66313624 L19.2337055,6.49637157 L17.2341129,7.64766523 L17.2341129,11.574545 L20.681538,9.59001599 L20.6811076,9.59001599 Z M16.5450582,16.6936054 L16.5450582,12.7641434 L14.5781752,13.8874617 L8.96158375,17.0930075 L8.96158375,21.0594831 L16.5450582,16.6936054 Z M0.689485024,3.3222442 L0.689485024,16.6936054 L8.27209872,21.0590528 L8.27209872,17.0934379 L4.31078776,14.8515356 L4.30949659,14.8506748 L4.30777503,14.849814 C4.29443294,14.842067 4.28324279,14.8308769 4.27076148,14.8214083 C4.26000173,14.8128005 4.24752041,14.8059142 4.23805183,14.7964457 L4.23719105,14.7951545 C4.2260009,14.7843947 4.21825388,14.7710526 4.2087853,14.7590017 C4.20017749,14.7473812 4.18984813,14.7374822 4.18296189,14.7254313 L4.1825315,14.7241401 C4.17478448,14.7112284 4.17005018,14.6957344 4.16445511,14.6811011 C4.15886004,14.6681894 4.15154341,14.6561385 4.14810029,14.642366 L4.14810029,14.6419356 C4.14379638,14.6255808 4.1429356,14.6083652 4.14121404,14.5915799 C4.13949248,14.5786682 4.13604936,14.5657565 4.13604936,14.5528448 L4.13604936,14.551984 L4.13604936,5.30677319 L2.13688711,4.15504914 L0.689485024,3.32267459 L0.689485024,3.3222442 Z M4.48122226,0.742485628 L1.03508832,2.72615384 L4.48036148,4.70982205 L7.92606504,2.72572345 L4.48036148,0.742485628 L4.48122226,0.742485628 Z M6.27336686,13.122228 L8.27252911,11.9713647 L8.27252911,3.3222442 L6.82512703,4.15547953 L4.82553439,5.30677319 L4.82553439,13.9558937 L6.27336686,13.122228 Z M16.8898007,3.08337767 L13.4440972,5.06704588 L16.8898007,7.05071409 L20.3350739,5.06661549 L16.8898007,3.08337767 Z M16.5450582,7.64766523 L14.5454656,6.49637157 L13.0980635,5.66313624 L13.0980635,9.59001599 L15.0972258,10.7408793 L16.5450582,11.574545 L16.5450582,7.64766523 Z M8.61641085,16.4969171 L13.6704824,13.6115816 L16.1968726,12.1697746 L12.7537514,10.1873975 L8.78942769,12.4697565 L5.17630236,14.5498321 L8.61641085,16.4969171 Z" id="Shape"></path>
        </g>
    </g>
</svg>