<?xml version="1.0" encoding="UTF-8"?>
<svg width="20px" height="22px" viewBox="0 0 20 22" version="1.1" xmlns="http://www.w3.org/2000/svg" xmlns:xlink="http://www.w3.org/1999/xlink">
    <!-- Generator: Sketch 52.6 (67491) - http://www.bohemiancoding.com/sketch -->
    <title>node</title>
    <desc>Created with Sketch.</desc>
    <g id="Page-1" stroke="none" stroke-width="1" fill="none" fill-rule="evenodd">
        <g id="node" fill="#539E43" fill-rule="nonzero">
            <path d="M9.74394456,21.9591798 C9.44133761,21.9591798 9.15890442,21.8784845 8.89664501,21.7372679 L6.21352991,20.1435378 C5.81005384,19.921626 6.01179197,19.8409308 6.13283463,19.8005832 C6.67752723,19.6190192 6.77839621,19.5786714 7.34326268,19.2558906 C7.40378392,19.2155431 7.48447921,19.2357169 7.54500062,19.2760644 L9.60272801,20.5066662 C9.68342332,20.5470138 9.78429226,20.5470138 9.84481372,20.5066662 L17.8941592,15.8465189 C17.9748545,15.8061711 18.015202,15.725476 18.015202,15.624607 L18.015202,6.32448591 C18.015202,6.22361676 17.9748545,6.14292165 17.8941592,6.10257409 L9.84481372,1.46260039 C9.76411841,1.42225284 9.66324947,1.42225284 9.60272801,1.46260039 L1.55338235,6.10257409 C1.47268724,6.14292165 1.43233968,6.24379062 1.43233968,6.32448591 L1.43233968,15.624607 C1.43233968,15.7053021 1.47268724,15.8061711 1.55338235,15.8465189 L3.75232645,17.1174681 C4.94258063,17.722682 5.68901118,17.0165991 5.68901118,16.3105161 L5.68901118,7.13143771 C5.68901118,7.01039504 5.78988015,6.88935221 5.93109668,6.88935221 L6.95996047,6.88935221 C7.0810033,6.88935221 7.20204597,6.99022118 7.20204597,7.13143771 L7.20204597,16.3105161 C7.20204597,17.9042462 6.33457276,18.8322409 4.82153779,18.8322409 C4.35754047,18.8322409 3.99441213,18.8322409 2.96554834,18.327896 L0.847299527,17.1174681 C0.322780788,16.814861 5.68434189e-14,16.2499947 5.68434189e-14,15.6447807 L5.68434189e-14,6.3446596 C5.68434189e-14,5.73944575 0.322780788,5.17457929 0.847299527,4.87197236 L8.89664501,0.211824793 C9.40099006,-0.0706082654 10.0868992,-0.0706082654 10.5912443,0.211824793 L18.6405897,4.87197236 C19.1651085,5.17457929 19.4878893,5.73944575 19.4878893,6.3446596 L19.4878893,15.6447807 C19.4878893,16.2499947 19.1651085,16.814861 18.6405897,17.1174681 L10.5912443,21.7776155 C10.3289847,21.8986583 10.0263778,21.9591798 9.74394456,21.9591798 Z M12.2253219,15.5640856 C8.69490707,15.5640856 7.96865037,13.9501817 7.96865037,12.5783634 C7.96865037,12.4573206 8.06951938,12.3362779 8.21073586,12.3362779 L9.25977351,12.3362779 C9.38081621,12.3362779 9.48168515,12.416973 9.48168515,12.5380158 C9.64307555,13.6072272 10.1070731,14.1317459 12.2454956,14.1317459 C13.9400948,14.1317459 14.6663515,13.7484437 14.6663515,12.8406228 C14.6663515,12.316104 14.4646135,11.9328018 11.8218458,11.6705424 C9.62290185,11.4486306 8.25108363,10.9644594 8.25108363,9.209339 C8.25108363,7.57526133 9.62290185,6.60691897 11.9227149,6.60691897 C14.5049611,6.60691897 15.7759103,7.49456622 15.9373007,9.4312508 C15.9373007,9.49177219 15.9171269,9.55229365 15.8767794,9.61281504 C15.8364318,9.65316259 15.7759103,9.69351013 15.715389,9.69351013 L14.6663515,9.69351013 C14.5654825,9.69351013 14.4646135,9.61281504 14.4444397,9.51194603 C14.2023542,8.40238715 13.5769663,8.03925865 11.9227149,8.03925865 C10.0667254,8.03925865 9.84481372,8.68482026 9.84481372,9.16899138 C9.84481372,9.7540316 10.1070731,9.93559585 12.6086241,10.2583766 C15.0900013,10.5811574 16.2600816,11.0451547 16.2600816,12.7801013 C16.2399077,14.5553956 14.7873943,15.5640856 12.2253219,15.5640856 Z" id="Shape"></path>
        </g>
    </g>
</svg>