<?xml version="1.0" encoding="UTF-8"?>
<svg width="30px" height="22px" viewBox="0 0 30 22" version="1.1" xmlns="http://www.w3.org/2000/svg" xmlns:xlink="http://www.w3.org/1999/xlink">
    <!-- Generator: Sketch 52.6 (67491) - http://www.bohemiancoding.com/sketch -->
    <title>sass</title>
    <desc>Created with Sketch.</desc>
    <g id="Page-1" stroke="none" stroke-width="1" fill="none" fill-rule="evenodd">
        <g id="sass" fill="#CD6799" fill-rule="nonzero">
            <path d="M25.2252427,12.6553398 C24.2053398,12.6606796 23.318932,12.9063107 22.576699,13.2694175 C22.3043689,12.7300971 22.0320388,12.2495146 21.9839806,11.8970874 C21.9305825,11.4859223 21.8665049,11.2349515 21.9305825,10.7436893 C21.9946602,10.2524272 22.2830097,9.55291262 22.2776699,9.49951456 C22.2723301,9.4461165 22.2135922,9.19514563 21.6262136,9.18980583 C21.038835,9.18446602 20.5315534,9.30194175 20.4728155,9.45679612 C20.4140777,9.61165049 20.3019417,9.96407767 20.2271845,10.3271845 C20.1257282,10.861165 19.0524272,12.7674757 18.4383495,13.7660194 C18.2407767,13.3762136 18.0699029,13.034466 18.0325243,12.7621359 C17.9791262,12.3509709 17.9150485,12.1 17.9791262,11.6087379 C18.0432039,11.1174757 18.3315534,10.4179612 18.3262136,10.3645631 C18.3208738,10.311165 18.2621359,10.0601942 17.6747573,10.0548544 C17.0873786,10.0495146 16.5800971,10.1669903 16.5213592,10.3218447 C16.4626214,10.476699 16.3985437,10.8398058 16.2757282,11.192233 C16.1529126,11.5446602 14.7271845,14.7271845 14.3533981,15.5495146 C14.161165,15.9713592 13.9956311,16.307767 13.8781553,16.5373786 C13.8781553,16.5373786 13.8781553,16.5373786 13.8781553,16.5373786 C13.8781553,16.5373786 13.8728155,16.5533981 13.8567961,16.5800971 C13.7553398,16.7776699 13.6966019,16.884466 13.6966019,16.884466 C13.6966019,16.884466 13.6966019,16.884466 13.6966019,16.8898058 C13.6165049,17.0339806 13.531068,17.1674757 13.4883495,17.1674757 C13.4563107,17.1674757 13.3975728,16.7830097 13.4990291,16.2597087 C13.7126214,15.1543689 14.2199029,13.4349515 14.2145631,13.3762136 C14.2145631,13.3441748 14.3106796,13.0451456 13.8834951,12.8902913 C13.4669903,12.7354369 13.3174757,12.9917476 13.2800971,12.9917476 C13.2427184,12.9917476 13.2160194,13.0825243 13.2160194,13.0825243 C13.2160194,13.0825243 13.6805825,11.1495146 12.3296117,11.1495146 C11.4859223,11.1495146 10.3218447,12.073301 9.74514563,12.9063107 C9.38203883,13.1038835 8.60776699,13.5257282 7.78009709,13.9796117 C7.46504854,14.1558252 7.13932039,14.3320388 6.83495146,14.4975728 C6.81359223,14.4762136 6.79223301,14.4495146 6.77087379,14.4281553 C5.1368932,12.6820388 2.11456311,11.4485437 2.24271845,9.10436893 C2.2907767,8.25 2.58446602,6.00728155 8.04708738,3.28398058 C12.5432039,1.06796117 16.1208738,1.68203883 16.7402913,3.04368932 C17.626699,4.98737864 14.823301,8.59708738 10.1776699,9.12038835 C8.40485437,9.31796117 7.47572816,8.63446602 7.2407767,8.37815534 C6.99514563,8.11116505 6.95776699,8.09514563 6.86699029,8.14854369 C6.71747573,8.22864078 6.81359223,8.46893204 6.86699029,8.60776699 C7.00582524,8.97087379 7.57718447,9.61165049 8.54368932,9.92669903 C9.39805825,10.2043689 11.4752427,10.3592233 13.9902913,9.38737864 C16.8043689,8.29805825 19.0043689,5.27038835 18.3582524,2.73398058 C17.7121359,0.160194175 13.4402913,-0.688834951 9.39805825,0.747572816 C6.99514563,1.60194175 4.38932039,2.94757282 2.51504854,4.69902913 C0.288349515,6.7815534 -0.0640776699,8.59174757 0.0800970874,9.35 C0.598058252,12.0412621 4.3092233,13.7927184 5.79368932,15.0902913 C5.71893204,15.1330097 5.64951456,15.1703883 5.5907767,15.2024272 C4.84854369,15.5708738 2.0184466,17.05 1.31359223,18.6145631 C0.512621359,20.3873786 1.44174757,21.6582524 2.05582524,21.8291262 C3.96213592,22.357767 5.92184466,21.4072816 6.97378641,19.8373786 C8.02572816,18.2674757 7.89757282,16.2276699 7.41165049,15.2932039 C7.40631068,15.2825243 7.40097087,15.2718447 7.39029126,15.261165 C7.58252427,15.1490291 7.78009709,15.0315534 7.9723301,14.9194175 C8.35145631,14.6951456 8.72524272,14.4868932 9.04563107,14.3160194 C8.86407767,14.8126214 8.73058252,15.4053398 8.66650485,16.2597087 C8.58640777,17.2635922 8.99757282,18.5665049 9.5368932,19.0791262 C9.77718447,19.3033981 10.0601942,19.3087379 10.2417476,19.3087379 C10.8718447,19.3087379 11.1548544,18.7854369 11.4699029,18.1660194 C11.8543689,17.407767 12.2014563,16.526699 12.2014563,16.526699 C12.2014563,16.526699 11.768932,18.9082524 12.9436893,18.9082524 C13.3708738,18.9082524 13.8033981,18.3529126 13.9956311,18.0699029 C13.9956311,18.0752427 13.9956311,18.0752427 13.9956311,18.0752427 C13.9956311,18.0752427 14.0063107,18.0592233 14.0276699,18.0218447 C14.0703883,17.9524272 14.0970874,17.9097087 14.0970874,17.9097087 C14.0970874,17.9097087 14.0970874,17.9043689 14.0970874,17.8990291 C14.2679612,17.6 14.6524272,16.9218447 15.2237864,15.7951456 C15.9606796,14.3427184 16.6708738,12.5271845 16.6708738,12.5271845 C16.6708738,12.5271845 16.7349515,12.9703883 16.9538835,13.7072816 C17.0820388,14.1398058 17.3490291,14.6150485 17.5626214,15.0742718 C17.3917476,15.3145631 17.2849515,15.4480583 17.2849515,15.4480583 C17.2849515,15.4480583 17.2849515,15.4480583 17.2902913,15.4533981 C17.1514563,15.6349515 17.0019417,15.8325243 16.8364078,16.0247573 C16.2543689,16.718932 15.5601942,17.5145631 15.4640777,17.7441748 C15.3519417,18.0165049 15.3786408,18.2140777 15.592233,18.3742718 C15.7470874,18.4917476 16.0247573,18.507767 16.307767,18.4917476 C16.831068,18.4543689 17.1995146,18.3262136 17.381068,18.2461165 C17.6640777,18.1446602 17.9951456,17.9898058 18.3048544,17.7601942 C18.8762136,17.3383495 19.223301,16.7349515 19.1912621,15.9393204 C19.1752427,15.5014563 19.031068,15.0635922 18.8548544,14.6524272 C18.9082524,14.5776699 18.9563107,14.5029126 19.0097087,14.4281553 C19.9121359,13.1092233 20.6116505,11.6621359 20.6116505,11.6621359 C20.6116505,11.6621359 20.6757282,12.1053398 20.8946602,12.842233 C21.0014563,13.2160194 21.2203883,13.6218447 21.4126214,14.0169903 C20.5635922,14.7058252 20.0402913,15.5067961 19.8533981,16.0300971 C19.5169903,17.0019417 19.7786408,17.4398058 20.2752427,17.5412621 C20.4995146,17.5893204 20.8199029,17.4825243 21.0548544,17.381068 C21.3538835,17.2849515 21.7063107,17.1194175 22.0427184,16.8737864 C22.6140777,16.4519417 23.1640777,15.8645631 23.1320388,15.068932 C23.1160194,14.7058252 23.0199029,14.3480583 22.8864078,14.0009709 C23.6072816,13.7019417 24.5364078,13.5364078 25.7218447,13.6752427 C28.2635922,13.9742718 28.765534,15.5601942 28.6694175,16.2276699 C28.573301,16.8951456 28.0393204,17.2582524 27.8631068,17.3703883 C27.6868932,17.4825243 27.6281553,17.5199029 27.6441748,17.6 C27.665534,17.7174757 27.7509709,17.7121359 27.9004854,17.6907767 C28.1087379,17.6533981 29.2354369,17.1514563 29.2834951,15.923301 C29.3635922,14.3533981 27.8684466,12.6393204 25.2252427,12.6553398 Z M5.61747573,19.2660194 C4.77378641,20.184466 3.59902913,20.5315534 3.09174757,20.2378641 C2.54708738,19.9228155 2.76067961,18.5665049 3.79660194,17.5946602 C4.42669903,17.0019417 5.23834951,16.4519417 5.7776699,16.115534 C5.90048544,16.0407767 6.08203883,15.9339806 6.30097087,15.8004854 C6.33834951,15.7791262 6.35970874,15.7684466 6.35970874,15.7684466 C6.40242718,15.7417476 6.44514563,15.7150485 6.48786408,15.6883495 C6.86699029,17.076699 6.5038835,18.2995146 5.61747573,19.2660194 Z M11.7582524,15.0902913 C11.4645631,15.8058252 10.8504854,17.6373786 10.476699,17.5359223 C10.1563107,17.4504854 9.95873786,16.0621359 10.4126214,14.6898058 C10.642233,14.0009709 11.1281553,13.1786408 11.411165,12.8582524 C11.8703883,12.3456311 12.3776699,12.1747573 12.5004854,12.3830097 C12.6553398,12.6553398 11.9398058,14.6417476 11.7582524,15.0902913 Z M16.8257282,17.5145631 C16.7029126,17.5786408 16.5854369,17.6213592 16.5320388,17.5893204 C16.4946602,17.5679612 16.5854369,17.4825243 16.5854369,17.4825243 C16.5854369,17.4825243 17.2208738,16.7990291 17.4718447,16.4893204 C17.6160194,16.307767 17.7868932,16.0941748 17.9684466,15.8538835 C17.9684466,15.8752427 17.9684466,15.9019417 17.9684466,15.923301 C17.9684466,16.7402913 17.1781553,17.2902913 16.8257282,17.5145631 Z M20.734466,16.6228155 C20.6436893,16.5587379 20.6597087,16.3451456 20.9640777,15.6776699 C21.0815534,15.4160194 21.3592233,14.9781553 21.834466,14.5563107 C21.8878641,14.7271845 21.9252427,14.8927184 21.9199029,15.0475728 C21.9145631,16.0781553 21.1776699,16.4626214 20.734466,16.6228155 Z" id="Shape"></path>
        </g>
    </g>
</svg>