<?xml version="1.0" encoding="UTF-8" standalone="no"?>
<svg width="10px" height="10px" viewBox="0 0 10 10" version="1.1" xmlns="http://www.w3.org/2000/svg" xmlns:xlink="http://www.w3.org/1999/xlink">
    <!-- Generator: Sketch 40.3 (33839) - http://www.bohemiancoding.com/sketch -->
    <title>eye-pupil</title>
    <desc>Created with Sketch.</desc>
    <defs></defs>
    <g id="Symbols" stroke="none" stroke-width="1" fill="none" fill-rule="evenodd">
        <g id="adminoid/header/short" transform="translate(-182.000000, -20.000000)">
            <g id="adminoid/header/short/logo">
                <g transform="translate(15.000000, 5.000000)">
                    <g id="man" transform="translate(159.000000, 0.000000)">
                        <g id="eye-pupil" transform="translate(8.000000, 15.000000)">
                            <path d="M5,10 C7.76142375,10 10,7.76142375 10,5 C10,2.23857625 7.76142375,-3.55271368e-15 5,-3.55271368e-15 C2.23857625,-3.55271368e-15 0,2.23857625 0,5 C0,7.76142375 2.23857625,10 5,10 Z" id="eye" fill="#FFFFFF"></path>
                            <path d="M6,8 C7.1045695,8 8,7.1045695 8,6 C8,4.8954305 7.1045695,4 6,4 C4.8954305,4 4,4.8954305 4,6 C4,7.1045695 4.8954305,8 6,8 Z" id="pupil" fill="#1254B0"></path>
                        </g>
                    </g>
                </g>
            </g>
        </g>
    </g>
</svg>