<?xml version="1.0" encoding="UTF-8"?>
<svg width="20px" height="20px" viewBox="0 0 20 20" version="1.1" xmlns="http://www.w3.org/2000/svg" xmlns:xlink="http://www.w3.org/1999/xlink">
    <title>telegram</title>
    <defs>
        <linearGradient x1="50%" y1="100%" x2="50%" y2="0%" id="linearGradient-1">
            <stop stop-color="#1D93D2" offset="0%"></stop>
            <stop stop-color="#38B0E3" offset="100%"></stop>
        </linearGradient>
    </defs>
    <g id="Page-1" stroke="none" stroke-width="1" fill="none" fill-rule="evenodd">
        <g id="telegram" fill-rule="nonzero">
            <circle id="Oval" fill="url(#linearGradient-1)" cx="10" cy="10" r="10"></circle>
            <path d="M6.76908333,10.731 L7.9555,14.0148333 C7.9555,14.0148333 8.10383333,14.3220833 8.26266667,14.3220833 C8.4215,14.3220833 10.7839167,11.8644167 10.7839167,11.8644167 L13.411,6.79025 L6.81141667,9.88333333 L6.76908333,10.731 Z" id="Path" fill="#C8DAEA"></path>
            <path d="M8.34216667,11.5731667 L8.11441667,13.9936667 C8.11441667,13.9936667 8.01908333,14.7353333 8.76058333,13.9936667 C9.50208333,13.252 10.2118333,12.6800833 10.2118333,12.6800833" id="Path" fill="#A9C6D8"></path>
            <path d="M6.7905,10.8481667 L4.35,10.053 C4.35,10.053 4.05833333,9.93466667 4.15225,9.66633333 C4.17158333,9.611 4.21058333,9.56391667 4.32725,9.483 C4.868,9.10608333 14.3360833,5.703 14.3360833,5.703 C14.3360833,5.703 14.6034167,5.61291667 14.7610833,5.67283333 C14.8404937,5.69741502 14.9005163,5.76285081 14.9181667,5.84408333 C14.9352028,5.91455564 14.942327,5.98705959 14.9393333,6.0595 C14.9385833,6.12216667 14.931,6.18025 14.92525,6.27133333 C14.8675833,7.20175 13.1419167,14.14575 13.1419167,14.14575 C13.1419167,14.14575 13.0386667,14.5520833 12.66875,14.566 C12.4850739,14.5719332 12.3068674,14.5029966 12.175,14.375 C11.4490833,13.7505833 8.94008333,12.0644167 8.38566667,11.6935833 C8.36036531,11.6763418 8.34377062,11.6489879 8.34016667,11.6185833 C8.33241667,11.5795 8.37491667,11.5310833 8.37491667,11.5310833 C8.37491667,11.5310833 12.74375,7.64775 12.86,7.24008333 C12.869,7.2085 12.835,7.19291667 12.7893333,7.20675 C12.4991667,7.3135 7.469,10.4900833 6.91383333,10.8406667 C6.87387087,10.8527574 6.83163306,10.8553259 6.7905,10.8481667 Z" id="Path" fill="#FFFFFF"></path>
        </g>
    </g>
</svg>