<?xml version="1.0" encoding="UTF-8"?>
<svg width="16.753226px" height="19px" viewBox="0 0 16.753226 19" version="1.1" xmlns="http://www.w3.org/2000/svg" xmlns:xlink="http://www.w3.org/1999/xlink">
    <title>es6@2x</title>
    <g id="Page-1" stroke="none" stroke-width="1" fill="none" fill-rule="evenodd">
        <g id="es6" fill-rule="nonzero">
            <polygon id="path13" fill="#D4B830" points="1.52471535 17.1007378 0 0 16.753226 0 15.2271025 17.097978 8.36636223 19"></polygon>
            <polygon id="path15" fill="#FDD83C" points="8.37672563 17.5461951 13.9204129 16.0092577 15.2246807 1.39827059 8.37672563 1.39827059 8.37672563 17.5461951"></polygon>
            <g id="Group" transform="translate(2.285243, 3.348674)">
                <polygon id="path18" fill="#4D4D4D" points="11.822504 4.24510804 8.86673425 4.24510804 8.86673425 2.09740586 12.0093606 2.09740586 12.1954135 8.00395563e-16 6.67390623 8.00395563e-16 6.67390623 6.34234484 9.53331495 6.34234484 9.28076338 9.06239963 6.67391749 9.5369758 6.67391749 11.7233718 11.2411921 10.6841592"></polygon>
                <path d="M5.52814209,2.62629794e-16 L0.844842436,2.62629794e-16 L1.03932517,2.0982507 L3.42285101,2.09826985 L3.42285101,9.23472102 L2.25465918,9.0638077 L2.10529103,7.39113227 C2.10529103,7.39113227 0.701763697,7.39113227 4.00197781e-16,7.39113227 L0.293779868,10.6841592 C5.52814209,11.7233453 0.3136219,10.6833989 5.52814209,11.7233453 L5.52814209,2.62629794e-16 Z" id="path24" fill="#000000"></path>
            </g>
        </g>
    </g>
</svg>