<?xml version="1.0" encoding="UTF-8"?>
<svg width="17.2038519px" height="19px" viewBox="0 0 17.2038519 19" version="1.1" xmlns="http://www.w3.org/2000/svg" xmlns:xlink="http://www.w3.org/1999/xlink">
    <title>jest@2x</title>
    <g id="Page-1" stroke="none" stroke-width="1" fill="none" fill-rule="evenodd">
        <g id="jest" fill-rule="nonzero">
            <path d="M16.1267315,9.35479071 C16.1267315,8.37811178 15.3349134,7.58629364 14.3582345,7.58629364 C14.2953576,7.58629364 14.2334232,7.58965964 14.1722966,7.59612237 L16.6013377,0.431925282 L6.27875433,0.431925282 L8.70442948,7.5898616 C8.66863648,7.58760686 8.63278326,7.58643945 8.5969194,7.58636096 C7.62024047,7.58636096 6.82842234,8.37804446 6.82842234,9.35485803 C6.82842234,10.14432 7.34584405,10.8127405 8.05990756,11.0401475 C7.68278078,11.6934211 7.2081746,12.2818654 6.66934512,12.7902662 C5.93663396,13.4814409 5.09809573,14.0055946 4.19116035,14.3285288 C3.11134714,13.7738118 2.60146527,12.5401723 3.06153033,11.4585415 C3.11350138,11.3363556 3.16654956,11.2125541 3.21724154,11.0892912 C3.99950024,10.9067192 4.58249166,10.2054465 4.58249166,9.36751419 C4.58249166,8.39076794 3.79067352,7.59901713 2.81392727,7.59901713 C1.83718103,7.59901713 1.04543021,8.39076794 1.04543021,9.36751419 C1.04543021,9.96646045 1.34338864,10.4955285 1.79894325,10.8154333 C1.36122845,11.8120389 0.717783647,12.8550954 0.517304612,14.0639611 C0.277039442,15.5126881 0.516496772,17.0505467 1.7695244,17.9190424 C4.68771285,19.9416052 7.85538932,16.6652069 11.1952704,15.8415464 C12.4056845,15.5431167 13.7343798,15.5911832 14.8007963,14.9735893 C15.6016353,14.5097543 16.1296263,13.7410269 16.2794134,12.8780515 C16.4275174,12.0255107 16.2116894,11.1766725 15.7154062,10.4883926 C15.9816574,10.1707115 16.127312,9.76929121 16.1267315,9.35479071" id="Path" fill="#99425B"></path>
            <path d="M15.8538835,12.8041342 C15.7238212,13.553406 15.2610633,14.207824 14.5843624,14.5998285 C13.9535065,14.9651743 13.1975699,15.0742327 12.3971348,15.1896193 C11.9683736,15.251419 11.5250039,15.3154404 11.0918669,15.4222099 C9.94661859,15.7046174 8.83731921,16.2556319 7.76464193,16.7884699 C5.61780632,17.8548191 3.76381283,18.7756224 2.01564641,17.5639965 C0.735084894,16.6765166 0.794191876,15.0344466 0.943373052,14.1346471 C1.08164838,13.3009559 1.45547648,12.5331711 1.8169177,11.7906985 C1.87849568,11.6645119 1.93957786,11.5380839 2.00016281,11.4114175 C2.18236121,11.4842538 2.3735415,11.5322131 2.56854578,11.5540013 C2.20057452,12.7683872 2.77925746,14.0888022 3.99377803,14.7127242 L4.1600585,14.7981533 L4.33603304,14.7354784 C5.29621856,14.3934926 6.18100565,13.8448344 6.96575519,13.1043815 C7.47301158,12.6258034 7.90917802,12.0963314 8.26765716,11.5305739 C8.37664081,11.5470154 8.48670253,11.555274 8.5969194,11.5552804 C9.7116717,11.5552804 10.6347639,10.7219258 10.777617,9.64561321 C11.2339121,9.62891785 11.718549,9.62878321 12.1774696,9.64547857 C12.320188,10.7219258 13.2434149,11.5553477 14.3581672,11.5553477 C14.824291,11.5553477 15.2566202,11.4092632 15.6128105,11.1611216 C15.8600769,11.6673009 15.9523727,12.2368283 15.8538835,12.8041342 L15.8538835,12.8041342 Z M2.81399459,8.03094241 C3.55101423,8.03094241 4.15056637,8.63056187 4.15056637,9.36758151 C4.15056637,9.63228385 4.07287906,9.87914638 3.93951809,10.0870306 C3.71736201,10.4335268 3.33969667,10.6710318 2.90581911,10.7006526 C2.87545778,10.7026723 2.84482716,10.7041533 2.81399459,10.7041533 C2.64973373,10.7041533 2.49240683,10.6741959 2.34692826,10.6198013 C2.05394021,10.5096277 1.8085885,10.3006561 1.6531954,10.0289334 C1.53780836,9.82763149 1.47718178,9.59960869 1.47735512,9.36758151 C1.47735512,8.63056187 2.07697496,8.03094241 2.81399459,8.03094241 L2.81399459,8.03094241 Z M7.26041494,9.35485803 C7.26041494,8.68522573 7.75541908,8.12922965 8.39859461,8.03309665 C8.46335647,8.02333525 8.52959937,8.01828624 8.59698672,8.01828624 C9.02547868,8.01828624 9.40698126,8.22125612 9.65162224,8.53577528 C9.71290059,8.61419688 9.76524014,8.69920914 9.80767005,8.78923517 C9.89074996,8.96621321 9.93373561,9.1593498 9.93355905,9.35485803 C9.93355905,9.46169491 9.92063306,9.5655697 9.89686909,9.66520334 C9.76660484,10.2104955 9.30162542,10.6273411 8.73182873,10.6846978 C8.68753215,10.6891409 8.64256238,10.6914303 8.59698672,10.6914303 C8.339898,10.6916409 8.08827083,10.6172519 7.87262325,10.4772848 C7.50465199,10.2389046 7.26041494,9.82495376 7.26041494,9.35485803 L7.26041494,9.35485803 Z M12.8388888,7.76543223 C12.5480305,8.04305764 12.3387096,8.39499896 12.2336145,8.78310905 C11.7298279,8.76453618 11.2255279,8.76453618 10.7217414,8.78310905 C10.6086437,8.36357065 10.3742354,7.99344516 10.0588411,7.71231673 L11.441931,4.91570824 L12.8388888,7.76543223 Z M6.88120124,0.863985204 L15.9988235,0.863985204 L13.8453232,7.21529298 C13.7526752,7.23748386 13.6615766,7.26570621 13.5726098,7.29977962 L11.445297,2.96012883 L9.31192539,7.27386141 C9.21892452,7.24193889 9.1238776,7.21632166 9.02743096,7.1971839 L6.88120124,0.863985204 Z M15.6947389,9.35492535 C15.6947389,9.4888922 15.6747449,9.61828128 15.6379208,9.74046713 C15.5505574,10.0281284 15.3691267,10.2781202 15.1227207,10.4503568 C14.8987694,10.6075249 14.6317653,10.6917381 14.3581672,10.6914976 C13.7410445,10.6914976 13.2204587,10.2709489 13.067373,9.70142152 C13.0369742,9.58843217 13.0215954,9.47193251 13.0215954,9.35492535 C13.0215954,9.1722188 13.0584868,8.99799457 13.1251336,8.83925395 C13.1595246,8.75803192 13.2018736,8.68041477 13.2515606,8.60753843 C13.492095,8.25249261 13.8979675,8.01835356 14.3581672,8.01835356 C14.4003768,8.01835356 14.4419806,8.02050781 14.4832478,8.02441237 C15.1618336,8.08762587 15.6948063,8.66004805 15.6948063,9.35492535 L15.6947389,9.35492535 Z M16.5586568,9.35492535 C16.5586568,8.28063238 15.7846112,7.38426625 14.7651167,7.1928081 L17.2038519,0 L5.67630743,0 L8.11881258,7.20734922 C7.13472845,7.42634126 6.39656438,8.30574275 6.39656438,9.35485803 C6.39656438,10.142637 6.81287141,10.8345522 7.43679341,11.2233926 C7.13668073,11.6705323 6.78082708,12.0912824 6.37300237,12.4760837 C5.72619156,13.0862051 5.00566533,13.5489629 4.22885956,13.8534514 C3.44639891,13.3619479 3.11565563,12.4350185 3.45912239,11.6275821 L3.4860504,11.5643013 L3.53654042,11.4455487 C4.39594787,11.1457727 5.01441694,10.3278344 5.01441694,9.36758151 C5.01441694,8.15420538 4.02730341,7.16709185 2.81399459,7.16709185 C1.60068578,7.16709185 0.613437608,8.15420538 0.613437608,9.36758151 C0.613437608,9.97999178 0.865214502,10.5345741 1.27034641,10.9339165 C1.19478604,11.0940103 1.11808414,11.2535628 1.04024657,11.4125619 C0.669784469,12.1733455 0.249976792,13.0356477 0.0911688524,13.9932751 C-0.224158146,15.8950658 0.284511965,17.4153539 1.52353703,18.2740208 C2.27536707,18.7950778 3.0389108,19 3.80723424,19 C5.25394159,19 6.71747894,18.2731457 8.14890463,17.5621116 C9.17977618,17.0501428 10.2457888,16.5206708 11.2987413,16.2609501 C11.6905438,16.1643459 12.0936562,16.1061814 12.5204651,16.0446509 C13.3668798,15.9225324 14.2420401,15.7963073 15.0172975,15.3473501 C15.9159525,14.8268316 16.5310556,13.9536909 16.7050106,12.9519689 C16.8543264,12.0919556 16.6746492,11.2305959 16.2363959,10.500039 C16.4475664,10.1554215 16.5591137,9.75902882 16.5586568,9.35485803 L16.5586568,9.35492535 Z" id="Shape" fill="#FFFFFF"></path>
        </g>
    </g>
</svg>