<?xml version="1.0" encoding="UTF-8"?>
<svg width="27px" height="16.6103979px" viewBox="0 0 27 16.6103979" version="1.1" xmlns="http://www.w3.org/2000/svg" xmlns:xlink="http://www.w3.org/1999/xlink">
    <title>pug</title>
    <g id="Page-1" stroke="none" stroke-width="1" fill="none" fill-rule="evenodd">
        <g id="pug" fill-rule="nonzero">
            <path d="M22.593149,5.18404325 C22.5510023,4.256816 22.6774424,3.43495549 22.2559755,2.73953505 C21.2444549,1.01152063 18.7156533,-1.22663021e-15 13.6580501,-1.22663021e-15 L13.6580501,0.147513426 L13.5526834,0.147513426 L13.6580501,0.147513426 L13.6580501,-1.22663021e-15 C8.60044693,-1.22663021e-15 5.94520527,1.01152063 4.93368463,2.7606084 C4.53329105,3.47710218 4.57543774,4.27788935 4.5122177,5.20511659 C4.47007101,5.94268372 4.13289747,6.72239754 4.28041089,7.56533141 C4.44899766,8.66114543 4.5122177,9.75695945 4.68080448,10.7684801 C4.80724455,11.5903406 5.94520527,12.285761 6.050572,13.0654749 C6.34559885,15.2149562 8.57937358,16.2054035 13.6369768,16.2054035 L13.6369768,16.3739903 L13.5105367,16.3739903 L13.6580501,16.3739903 L13.6580501,16.2054035 C18.7156533,16.2054035 20.8651346,15.2149562 21.1390881,13.0654749 C21.2444549,12.2646877 22.2981222,11.5903406 22.4245623,10.7684801 C22.593149,9.75695945 22.6563691,8.66114543 22.8249558,7.56533141 C22.9724693,6.72239754 22.6352957,5.92161038 22.593149,5.18404325 Z" id="Path" fill="#EFCCA3"></path>
            <path d="M13.5737567,5.94268372 C14.4799106,5.96375707 15.112111,6.53273743 15.7021647,7.05957109 C16.3975851,7.67069814 17.5776926,8.09216507 18.0623795,8.61899873 C18.5470665,9.1458324 19.1792669,9.67266606 19.4110737,10.4945266 C19.6428805,11.3163871 19.7061006,12.3700544 19.7061006,12.6440079 C19.7061006,12.9179614 19.853614,12.8547414 20.2750809,12.6440079 C21.2655282,12.159321 22.3613422,10.8527735 22.3613422,10.8527735 C22.2349021,11.674634 21.1601615,12.4122011 21.0547947,13.1919149 C20.8019146,15.3413963 18.7156533,16.3739903 13.5526834,16.3739903 L13.53161,16.3739903 L13.6580501,16.3739903" id="Path" fill="#CCAC8D"></path>
            <path d="M16.9033455,4.29896269 C17.0930056,4.95223644 17.7673527,7.16493782 16.4608052,6.42737069 C16.4608052,6.42737069 17.0087122,6.74347089 17.3458857,7.94465164 C17.7041326,9.1458324 18.5681398,9.29334582 18.5681398,9.29334582 C18.5681398,9.29334582 19.9800541,9.56729933 21.0337214,8.66114543 C21.9188019,7.90250495 22.0663154,6.55381077 21.6869951,5.52121679 C21.3076749,4.50969616 20.6333278,4.19359596 19.6428805,3.9828625 C18.6524332,3.75105568 16.6715387,3.56139556 16.9033455,4.29896269 L16.9033455,4.29896269 Z" id="Path" fill="#CCAC8D"></path>
            <circle id="Oval" fill="#000000" cx="19.4110737" cy="6.7013242" r="1.8544545"></circle>
            <circle id="Oval" fill="#FFFFFF" cx="18.9263867" cy="5.87946368" r="1"></circle>
            <path d="M16.5872453,6.61703081 C16.5872453,6.61703081 18.2520396,7.75499152 19.1581935,8.87187889 C20.0643474,9.98876626 20.0432741,10.1994997 20.0432741,10.1994997 L19.3900004,10.4945266 C19.3900004,10.4945266 18.4627731,8.74543881 17.3248124,8.09216507 C16.1657783,7.43889133 16.0393383,6.89098432 16.0393383,6.89098432 L16.5872453,6.61703081 L16.5872453,6.61703081 Z" id="Path" fill="#EFCCA3"></path>
            <path d="M13.6369768,5.94268372 C12.7308229,5.96375707 12.0564758,6.53273743 11.4453487,7.05957109 C10.7499283,7.67069814 9.52767418,8.09216507 9.04298721,8.61899873 C8.55830024,9.1458324 7.9050265,9.67266606 7.67321968,10.4945266 C7.44141287,11.3163871 7.35711949,12.3700544 7.35711949,12.6440079 C7.35711949,12.9179614 7.39926618,12.9390348 6.78813913,12.6440079 C5.79769184,12.1803943 4.70187782,10.8527735 4.70187782,10.8527735 C4.8283179,11.674634 5.90305857,12.4122011 6.00842531,13.1919149 C6.30345216,15.3413963 8.38971347,16.3739903 13.5526834,16.3739903 L13.6580501,16.3739903" id="Path" fill="#CCAC8D"></path>
            <path d="M18.5259931,9.50407929 C17.5144725,8.26075184 15.8918248,7.10171778 13.6369768,7.10171778 L13.6159034,7.10171778 C11.3610553,7.10171778 9.73840764,8.26075184 8.72688701,9.50407929 C7.67321968,10.7895534 7.75751307,11.2953137 7.75751307,12.5175678 C7.75751307,16.9429706 9.31694071,15.6785698 10.3495347,16.2264768 C11.403202,16.7533105 12.499016,16.5847237 13.6159034,16.5847237 L13.6369768,16.5847237 C14.7749375,16.5847237 15.8496781,16.7322371 16.9033455,16.2054035 C17.9359394,15.6785698 19.4953671,16.9851173 19.4953671,12.5597145 C19.5164404,11.3374604 19.5796605,10.7895534 18.5259931,9.50407929 L18.5259931,9.50407929 Z" id="Path" fill="#56332B"></path>
            <path d="M13.53161,8.1975318 C13.53161,8.1975318 13.3840966,10.2416464 13.0890697,10.64204 L13.6369768,10.5155999 L13.53161,8.1975318 Z" id="Path" fill="#442823"></path>
            <path d="M13.6791234,8.1975318 C13.6791234,8.1975318 13.8266369,10.2416464 14.1216637,10.64204 L13.5737567,10.5155999 L13.6791234,8.1975318 Z" id="Path" fill="#442823"></path>
            <path d="M11.9089623,7.71284483 C11.6982289,7.22815786 12.4568693,6.44844404 13.6580501,6.42737069 C14.8592309,6.42737069 15.6178713,7.20708451 15.4071379,7.71284483 C15.1964044,8.21860515 14.4377639,8.36611857 13.6580501,8.38719192 C12.8994096,8.36611857 12.1196958,8.21860515 11.9089623,7.71284483 L11.9089623,7.71284483 Z" id="Path" fill="#56332B"></path>
            <path d="M13.6580501,8.1975318 C13.6580501,8.11323842 14.3745439,8.09216507 14.7538641,7.83928491 C14.7538641,7.83928491 13.9741503,8.09216507 13.8055635,7.98679834 C13.6369768,7.90250495 13.5948301,7.64962479 13.5948301,7.64962479 C13.5948301,7.64962479 13.53161,7.90250495 13.4051699,7.98679834 C13.2576565,8.07109172 12.372576,7.83928491 12.372576,7.83928491 C12.372576,7.83928491 13.5526834,8.13431176 13.5526834,8.1975318 C13.5526834,8.26075184 13.53161,8.47148531 13.53161,8.61899873 C13.53161,9.1458324 13.53161,10.4523799 13.6159034,10.5577466 C13.7423435,10.7474067 13.7001968,9.1458324 13.7001968,8.61899873 C13.6791234,8.45041196 13.6791234,8.28182519 13.6580501,8.1975318 L13.6580501,8.1975318 Z" id="Path" fill="#000000"></path>
            <path d="M13.7001968,11.0213602 C14.0584437,11.0213602 14.6906441,11.2742404 15.2596244,11.674634 C14.7117174,11.0635069 14.0584437,10.64204 13.7001968,10.64204 C13.3208766,10.64204 12.5200894,11.1056536 11.951109,11.7800007 C12.5411627,11.3163871 13.2998032,11.0213602 13.7001968,11.0213602 Z" id="Path" fill="#7F4A41"></path>
            <path d="M13.5526834,14.7513426 C12.7518962,14.7513426 11.9721824,14.4984624 11.2556886,14.3088023 C11.1081752,14.2666556 10.9606617,14.3720223 10.8131483,14.3298756 C9.48552749,13.9084087 8.41078681,13.1919149 7.75751307,12.285761 L7.75751307,12.4964945 C7.75751307,16.9218973 9.31694071,15.6785698 10.3495347,16.2054035 C11.403202,16.7322371 12.499016,16.5636504 13.6159034,16.5636504 L13.6369768,16.5636504 C14.7749375,16.5636504 15.8496781,16.7111638 16.9033455,16.1843301 C17.9359394,15.6574965 19.4953671,16.9429706 19.4953671,12.5175678 C19.4953671,12.3489811 19.4953671,12.1803943 19.5164404,12.0328809 C18.9053134,13.0233282 17.788426,13.803042 16.3975851,14.2666556 C16.2711451,14.3088023 15.9761182,14.2034356 15.8496781,14.2245089 C15.0910377,14.4773891 14.4166906,14.7513426 13.5526834,14.7513426 L13.5526834,14.7513426 Z" id="Path" fill="#442823"></path>
            <path d="M11.5507154,12.3700544 C11.5507154,12.3700544 11.0238818,13.9505554 11.3821287,14.6459758 L10.8974417,14.4352424 C10.8974417,14.4352424 11.2556886,12.833668 11.5507154,12.3700544 L11.5507154,12.3700544 Z M15.7232381,12.3700544 C15.7232381,12.3700544 16.2500717,13.9505554 15.8918248,14.6459758 L16.3765118,14.4352424 C16.3765118,14.4352424 15.9971916,12.833668 15.7232381,12.3700544 Z" id="Shape" fill="#442823"></path>
            <path d="M10.2020213,4.29896269 C10.0123611,4.95223644 9.33801406,7.16493782 10.6445615,6.42737069 C10.6445615,6.42737069 10.0966545,6.74347089 9.75948099,7.94465164 C9.42230745,9.1458324 8.53722689,9.29334582 8.53722689,9.29334582 C8.53722689,9.29334582 7.12531267,9.56729933 6.07164535,8.66114543 C5.18656479,7.90250495 5.03905137,6.55381077 5.4183716,5.52121679 C5.79769184,4.48862281 6.47203893,4.19359596 7.46248622,3.9828625 C8.4529335,3.75105568 10.4127547,3.56139556 10.2020213,4.29896269 L10.2020213,4.29896269 Z" id="Path" fill="#CCAC8D"></path>
            <path d="M13.6369768,10.64204 C14.2059571,10.64204 15.9761182,11.8642941 15.9971916,13.3605017 L15.9971916,13.2762083 C15.9971916,11.7167807 14.564204,10.4734532 13.6369768,10.4734532 C12.7097495,10.4734532 11.2767619,11.737854 11.2767619,13.2762083 L11.2767619,13.3605017 C11.2978353,11.8642941 13.0679964,10.64204 13.6369768,10.64204 Z" id="Path" fill="#000000"></path>
            <circle id="Oval" fill="#331712" transform="translate(14.018062, 7.418236) rotate(-14.465000) translate(-14.018062, -7.418236) " cx="14.0180616" cy="7.41823588" r="1"></circle>
            <circle id="Oval" fill="#331712" transform="translate(13.107496, 7.419269) rotate(17.235000) translate(-13.107496, -7.419269) " cx="13.107496" cy="7.41926912" r="1"></circle>
            <circle id="Oval" fill="#000000" cx="7.79965976" cy="6.7013242" r="1.8544545"></circle>
            <circle id="Oval" fill="#FFFFFF" cx="8.28434673" cy="5.87946368" r="1"></circle>
            <path d="M14.1848838,6.72239754 C14.1848838,6.7013242 13.7001968,6.93313101 13.5737567,6.95420436 C13.4473166,6.93313101 12.9626297,6.7013242 12.9626297,6.72239754 L14.1848838,6.72239754 Z" id="Path" fill="#7F4A41"></path>
            <path d="M10.4970481,6.61703081 C10.4970481,6.61703081 8.83225374,7.75499152 7.92609984,8.87187889 C7.01994594,9.98876626 7.04101929,10.1994997 7.04101929,10.1994997 L7.69429303,10.4945266 C7.69429303,10.4945266 8.62152028,8.74543881 9.75948099,8.09216507 C10.8974417,7.43889133 11.0449551,6.89098432 11.0449551,6.89098432 L10.4970481,6.61703081 Z" id="Path" fill="#EFCCA3"></path>
            <path d="M6.85135917,3.24529537 C6.85135917,3.24529537 6.28237881,4.80472301 5.01797802,5.45799675 C5.01797802,5.45799675 6.99887259,5.22618994 6.85135917,3.24529537 Z M20.1486408,3.24529537 C20.1486408,3.24529537 20.7176212,4.80472301 21.982022,5.45799675 C21.982022,5.45799675 20.0011274,5.22618994 20.1486408,3.24529537 Z M16.5450986,6.15341719 C16.5450986,6.15341719 15.3017711,4.8468697 13.6369768,4.80472301 L13.6580501,4.80472301 L13.6791234,4.80472301 C11.9932557,4.8468697 10.7710016,6.15341719 10.7710016,6.15341719 C12.2250625,5.14189655 13.46839,5.1629699 13.6791234,5.1629699 C13.6580501,5.1629699 15.0910377,5.14189655 16.5450986,6.15341719 L16.5450986,6.15341719 Z M15.0910377,3.41388214 C15.0910377,3.41388214 14.4588373,2.52880158 13.6159034,2.50772824 L13.6580501,2.50772824 C13.0258497,2.52880158 12.2039892,3.41388214 12.2039892,3.41388214 C12.920483,2.7184617 13.6580501,2.73953505 13.6580501,2.73953505 C13.6580501,2.73953505 14.3534705,2.7184617 15.0910377,3.41388214 Z M7.79965976,9.88339952 C7.79965976,9.88339952 6.80921248,10.3680865 6.09271869,10.0730596 L6.07164535,10.0730596 C5.43944495,9.71481275 5.12334475,8.64007208 5.12334475,8.64007208 C5.12334475,8.64007208 5.75554515,10.5366733 7.79965976,9.88339952 L7.79965976,9.88339952 Z M19.3478537,9.88339952 C19.3478537,9.88339952 20.338301,10.3680865 21.0547947,10.0730596 C21.8977286,9.71481275 22.0241687,8.64007208 22.0241687,8.64007208 C22.0241687,8.64007208 21.3919683,10.5366733 19.3478537,9.88339952 L19.3478537,9.88339952 Z" id="Shape" fill="#CCAC8D"></path>
            <path d="M8.93762048,3.13992863 C9.48552749,3.0345619 10.3916814,3.01348855 11.1081752,3.24529537 C12.0143291,3.56139556 11.2767619,4.72042962 11.4664221,4.78364966 C11.6560822,4.8468697 11.9089623,3.9828625 13.5948301,4.06715588 C15.3017711,4.15144927 15.4914312,4.91008974 15.7232381,4.78364966 C15.9550449,4.65720958 15.4914312,2.67631501 18.0413062,3.13992863 C18.0413062,3.13992863 15.3649912,2.42343485 15.4914312,4.36218273 C15.4914312,4.36218273 13.953077,3.18207533 11.8035956,4.23574265 C11.824669,4.23574265 12.372576,2.42343485 8.93762048,3.13992863 L8.93762048,3.13992863 Z M18.273113,3.13992863 C18.3152597,3.13992863 18.336333,3.16100198 18.3574064,3.16100198 C18.3784797,3.16100198 18.336333,3.13992863 18.273113,3.13992863 Z M8.20005335,0.54790701 C8.20005335,0.54790701 5.92413192,3.41388214 5.58695838,4.50969616 C5.24978483,5.62658352 4.99690467,10.1994997 4.70187782,10.8527735 L3.6482105,6.34307731 L5.58695838,1.64372103 L8.20005335,0.54790701 L8.20005335,0.54790701 Z M18.9053134,0.54790701 C18.9053134,0.54790701 21.1812348,3.41388214 21.5184084,4.50969616 C21.8555819,5.62658352 22.1084621,10.1994997 22.4034889,10.8527735 L23.4571562,6.34307731 L21.5184084,1.64372103 L18.9053134,0.54790701 L18.9053134,0.54790701 Z" id="Shape" fill="#CCAC8D"></path>
            <path d="M18.7999467,0.54790701 C18.7999467,0.54790701 21.2444549,2.59202162 21.9609486,4.95223644 C22.6774424,7.31245125 22.3824156,10.1784264 22.9303226,10.5366733 C23.7100364,11.0424336 24.595117,8.02894503 24.8901438,7.71284483 C25.3537574,7.20708451 26.8921117,5.92161038 26.9974785,5.68980356 C27.1028452,5.45799675 23.8786232,1.93874788 22.466709,1.24332745 C20.7597679,0.442540277 18.6524332,0.379320238 18.7999467,0.54790701 Z" id="Path" fill="#56332B"></path>
            <path d="M20.886208,1.8123078 C20.886208,1.8123078 23.7732564,5.50014345 23.7311097,10.094133 L24.8901438,7.73391818 C24.8690705,7.73391818 23.8575498,4.72042962 20.886208,1.8123078 L20.886208,1.8123078 Z" id="Path" fill="#442823"></path>
            <path d="M8.20005335,0.54790701 C8.20005335,0.54790701 5.75554515,2.59202162 5.03905137,4.95223644 C4.32255758,7.31245125 4.61758444,10.1784264 4.06967743,10.5366733 C3.2899636,11.0424336 2.40488305,8.02894503 2.1098562,7.71284483 C1.64624257,7.20708451 0.107888277,5.92161038 0.0025215445,5.68980356 C-0.102845188,5.45799675 3.12137683,1.93874788 4.53329105,1.24332745 C6.24023212,0.442540277 8.34756677,0.379320238 8.20005335,0.54790701 L8.20005335,0.54790701 Z" id="Path" fill="#56332B"></path>
            <path d="M6.11379204,1.8123078 C6.11379204,1.8123078 3.22674356,5.50014345 3.26889026,10.094133 L2.13092954,7.73391818 C2.13092954,7.73391818 3.14245018,4.72042962 6.11379204,1.8123078 Z" id="Path" fill="#442823"></path>
            <path d="M4.5543644,10.1784264 C4.5543644,10.1784264 4.76509786,11.3163871 5.10227141,11.674634 C5.43944495,12.0328809 5.20763814,11.4006805 5.20763814,11.4006805 C5.20763814,11.4006805 4.84939125,11.2110204 4.91261129,9.75695945 C4.97583133,8.30289853 4.5543644,10.1784264 4.5543644,10.1784264 L4.5543644,10.1784264 Z M22.529929,10.1784264 C22.529929,10.1784264 22.3191955,11.3163871 21.982022,11.674634 C21.6448484,12.0328809 21.8766552,11.4006805 21.8766552,11.4006805 C21.8766552,11.4006805 22.2349021,11.2110204 22.1716821,9.75695945 C22.1084621,8.30289853 22.529929,10.1784264 22.529929,10.1784264 L22.529929,10.1784264 Z" id="Shape" fill="#CCAC8D"></path>
            <g id="Group" transform="translate(9.991288, 9.145832)" fill="#442823">
                <ellipse id="Oval" cx="1.45406091" cy="0.177631579" rx="1" ry="1"></ellipse>
                <ellipse id="Oval" cx="0.48468697" cy="1.24342105" rx="1" ry="1"></ellipse>
                <ellipse id="Oval" cx="0.168586772" cy="0.177631579" rx="1" ry="1"></ellipse>
            </g>
            <g id="Group" transform="translate(15.386065, 9.145832)" fill="#442823">
                <ellipse id="Oval" cx="0.168586772" cy="0.177631579" rx="1" ry="1"></ellipse>
                <ellipse id="Oval" cx="1.13796071" cy="1.24342105" rx="1" ry="1"></ellipse>
                <ellipse id="Oval" cx="1.45406091" cy="0.177631579" rx="1" ry="1"></ellipse>
            </g>
        </g>
    </g>
</svg>