<?xml version="1.0" encoding="UTF-8"?>
<svg width="40px" height="40px" viewBox="0 0 40 40" version="1.1" xmlns="http://www.w3.org/2000/svg" xmlns:xlink="http://www.w3.org/1999/xlink">
    <title>public/static/img/adminoid/footer/colors</title>
    <defs></defs>
    <g id="fl.ru" stroke="none" stroke-width="1" fill="none" fill-rule="evenodd">
        <g id="Colors-adminoid" transform="translate(1.000000, 1.000000)" stroke="#000000">
            <g>
                <g id="Green" transform="translate(9.500000, 28.500000) rotate(-270.000000) translate(-9.500000, -28.500000) translate(0.000000, 19.000000)" fill="#418B1B">
                    <path d="M19,0 L-4.10399684e-15,0 L-4.10399684e-15,19 C10.4934102,19 19,10.4934102 19,0 Z" id="Combined-Shape"></path>
                </g>
                <g id="Blue" transform="translate(28.500000, 9.500000) rotate(-180.000000) translate(-28.500000, -9.500000) translate(19.000000, 0.000000)" fill="#1254B0">
                    <path d="M-4.88498131e-15,0 L19,0 L19,19 C8.50658975,19 2.24971043e-16,10.4934102 -3.55271368e-15,3.43730172e-15 Z" id="Combined-Shape"></path>
                </g>
                <g id="Red" transform="translate(28.500000, 28.500000) rotate(-180.000000) translate(-28.500000, -28.500000) translate(19.000000, 19.000000)" fill="#CD2D41">
                    <path d="M19,-4.4408921e-16 L19,19 L4.21119078e-15,19 C4.65527999e-15,8.50658975 8.50658975,0 19,0 Z" id="Combined-Shape"></path>
                </g>
                <g id="Orange" transform="translate(9.500000, 9.500000) rotate(-90.000000) translate(-9.500000, -9.500000) " fill="#FF981C">
                    <path d="M19,19 L0,19 L0,-4.4408921e-16 C10.4934102,0 19,8.50658975 19,19 Z" id="Combined-Shape"></path>
                </g>
            </g>
        </g>
    </g>
</svg>