<?xml version="1.0" encoding="UTF-8"?>
<svg width="66.067829px" height="90px" viewBox="0 0 66.067829 90" version="1.1" xmlns="http://www.w3.org/2000/svg" xmlns:xlink="http://www.w3.org/1999/xlink">
    <title>go1</title>
    <g id="Page-1" stroke="none" stroke-width="1" fill="none" fill-rule="evenodd">
        <g id="go1" fill-rule="nonzero">
            <path d="M0.849669179,48.7210863 C0.978752259,51.3805088 3.63817474,50.1412594 4.82584275,49.3149203 C5.96192937,48.5145016 6.29759721,49.1858373 6.40075999,47.6365811 C6.47826168,46.6039165 6.58142446,45.5969129 6.52984307,44.5642483 C4.79992245,44.4092449 2.94091874,44.8224145 1.52074567,45.8550791 C0.772167491,46.3714114 -0.570503896,48.0756709 0.849409976,48.7210863 M53.8569358,81.4083953 C55.896604,82.673565 59.6405317,86.4949944 56.5679397,88.3539981 C53.6244308,91.0393409 51.972271,85.3845689 49.390091,84.6100704 C50.5002574,83.0867346 51.8945101,81.6924818 53.8569358,81.4083953 Z M17.3481975,85.7202367 C14.9469411,86.0818249 13.6042697,88.2505761 11.5905219,89.3610017 C9.70559787,90.471168 8.98268078,88.9994135 8.82767741,88.689666 C8.54385015,88.5605829 8.56951125,88.8187491 8.10476032,88.3539981 C6.3491786,85.5911537 9.91218263,83.5774058 11.7711863,82.2088141 C14.3531071,81.6924818 15.979865,83.9387347 17.3481975,85.7202367 Z M65.1916225,48.3854185 C65.0625395,51.044841 62.403117,49.8055916 61.215449,48.9792525 C60.0793623,48.1788337 59.7436945,48.8501694 59.6405317,47.3009133 C59.5627708,46.2682486 59.459608,45.2612451 59.5114486,44.2285805 C61.2411101,44.0735771 63.1001138,44.4867466 64.5202868,45.5194112 C65.2434631,46.0357436 66.6117956,47.7400031 65.1916225,48.3854185" id="Shape" fill="#F6D2A2"></path>
            <path d="M58.142857,15.9562757 C67.3603738,12.7030192 60.156864,0.0775016882 52.126756,5.6542536 C46.8597517,1.13582742 39.6046605,0.309488347 31.987722,0.309488347 C24.5263053,0.903840758 17.4256991,2.27217324 12.4684423,6.60967575 C4.4639954,1.44557497 -2.92017882,13.8388466 6.47800248,16.9632792 C3.8445003,27.1875404 6.83933142,37.6186455 6.42616189,48.0238303 C6.03891265,57.3706895 3.58607494,69.892785 8.77583681,78.2842219 C13.1911002,85.4620706 22.6924443,88.0183303 30.5159676,88.3024167 C40.5079829,88.6637457 52.617168,86.210908 57.4712621,76.5286402 C62.1187713,67.3111234 60.8279405,55.8214333 60.2341065,45.8809994 C59.6402725,35.8371435 60.7504388,25.6385434 58.1425978,15.9560165 L58.142857,15.9562757 Z" id="Path" fill="#69D7E2"></path>
            <path d="M65.8886193,46.8105012 C65.6304532,46.2682486 65.1400411,45.6484943 64.6752902,45.3128265 C63.4876222,44.4608263 61.9640271,43.9960754 60.3891099,43.944494 C60.3375285,42.3436565 60.2859471,40.5878155 60.2859471,38.3674829 L60.2859471,36.3534758 C60.2600268,30.0019662 60.1825251,27.2134607 59.8211962,23.7276991 C59.5371097,20.9910342 59.0980199,18.4606948 58.4785248,16.0853587 C60.5700336,15.28494 61.9383661,13.9681889 62.4806187,12.2639293 C62.996951,10.6890121 62.7387848,8.90751008 61.8611236,7.33259283 C60.9572828,5.78333668 59.5114486,4.62132976 57.8331094,4.15683804 C56.0256871,3.66616681 54.0635206,4.02775496 52.1785966,5.29266545 C50.5002574,3.87275158 48.5640112,2.78824635 46.3950007,1.96190728 C42.5479102,0.542252614 38.0813247,0 32.0136423,0 L32.0136423,0.258166159 L31.987722,0 C25.5071294,0.516332317 20.7046167,1.52333586 16.7284431,3.45984125 C15.1276056,4.23433973 13.7076917,5.16384158 12.4684423,6.24834681 C10.557598,5.06067879 8.56951125,4.77659234 6.73642784,5.34476525 C5.03242751,5.86109757 3.56067305,7.07468588 2.68275259,8.64960312 C1.80483213,10.2245204 1.59824736,12.0319427 2.19208136,13.5811988 C2.78591537,15.1301958 4.15424785,16.3437841 6.19417523,17.0926215 C5.54875983,19.7002034 5.21309198,22.4630478 5.16151059,25.5097195 C5.10967,28.4788896 5.23875308,30.8544848 5.703504,36.2246519 C6.03917185,40.2267458 6.16825493,42.0598292 6.22009552,44.280421 C4.4642546,44.2029194 2.70867288,44.6676703 1.39166259,45.6230924 C0.926911665,45.9587603 0.410579347,46.5525943 0.178333486,47.120508 C-0.157334361,47.8436843 -0.0282512815,48.4890997 0.643084412,48.8763489 C0.746247194,50.1155983 1.44350318,50.683512 2.50208812,50.5803492 C3.27658659,50.5028476 4.20608844,50.089678 5.00650722,49.5217643 C5.17560369,49.3993317 5.35740463,49.2954827 5.54875983,49.2120168 C5.62626152,49.1860965 5.67784291,49.1601762 5.7553446,49.1342559 C5.7553446,49.1342559 5.91008877,49.0829337 5.96192937,49.0570134 C6.03917185,49.0310931 6.11667354,49.0051728 6.16825493,48.9535914 C6.11667354,50.1671797 6.01351076,51.4323494 5.78100569,54.324277 C5.52283953,57.5772742 5.39375645,59.3590354 5.34217506,61.3471222 C5.10967,68.7312965 5.98759046,74.1017228 8.62109264,78.3619828 C9.44743171,79.7046542 10.4544352,80.8923222 11.6421033,81.9768274 C11.4095982,82.1315716 10.428515,82.8547479 10.1187674,83.0869938 C9.03426217,83.9133328 8.285684,84.6103296 7.84659416,85.3848281 C7.27868046,86.3918316 7.27868046,87.3988352 7.92409585,88.4574201 L7.95001615,88.4833404 L7.97593645,88.5092607 C8.2597637,88.793088 8.41476707,88.8705896 8.62135184,88.8705896 L8.69833512,88.8705896 C8.72425542,88.9224302 8.75017572,88.9480913 8.77609602,88.9996727 C8.8533385,89.1287558 8.93084019,89.2319186 9.00834188,89.3353406 C9.65375727,90.084178 10.5573388,90.2648424 11.7709271,89.5419253 C12.4163425,89.2062575 12.8810935,88.8187491 13.8621767,87.9926692 L13.9140173,87.9408286 C15.4889345,86.5984164 16.263433,86.1080044 17.4254399,85.9270807 L17.8386095,85.849579 C17.9933536,85.9273399 18.148357,85.9789213 18.3290215,86.0561638 C21.9954475,87.5279183 26.2554483,88.328337 30.5675489,88.4833404 C36.1445601,88.6899252 41.5149864,87.9926692 46.0590737,86.3402503 C47.272662,85.9014196 48.4087486,85.3848281 49.4932538,84.8169144 C50.1645895,85.0750806 50.732244,85.6173332 51.8170085,86.8825029 C51.8685899,86.9343435 51.8685899,86.9343435 51.8942509,86.9856656 C51.9460915,87.0375062 51.9460915,87.0634265 51.9720118,87.0890876 C52.023334,87.1665893 52.1008357,87.2181707 52.1524171,87.2956724 C53.0046765,88.3024167 53.5728494,88.793088 54.2182648,89.0771744 C55.0700057,89.4385034 55.8963448,89.2578389 56.748345,88.4833404 C58.2460197,87.5538386 58.3491825,86.1080044 57.3678401,84.4553263 C56.6708433,83.2935785 55.4575142,82.0799902 54.3214276,81.3054918 C55.6640989,79.9887407 56.8258467,78.4138234 57.7294282,76.6320622 C60.2081862,71.6748054 61.1636084,65.8912095 61.112027,58.4551947 C61.0861067,55.8216925 60.9826847,53.5238582 60.6988574,49.1342559 L60.6988574,49.005432 C60.8279405,49.0570134 60.9570236,49.1345151 61.0861067,49.2376779 C61.8865255,49.7799305 62.8160273,50.2187611 63.5905258,50.2962628 C64.6491107,50.3996848 65.3463667,49.8315119 65.4495295,48.5922625 C66.0949449,48.1790929 66.224028,47.5336775 65.8883601,46.8107604 L65.8886193,46.8105012 Z M57.6783652,4.69883145 C59.2276214,5.11200098 60.5702928,6.19650621 61.3963726,7.64234038 C62.2227117,9.08817455 62.4549576,10.7149324 61.9902066,12.1607666 C61.4997946,13.6841024 60.260286,14.8976907 58.3237806,15.6206078 C57.9376731,14.2382566 57.4809631,12.876605 56.9554481,11.5410123 C57.7042855,10.8955969 58.0656145,10.0951781 57.4717805,8.95935067 C56.8782057,7.82300485 55.8452818,7.69392177 54.7864377,8.02958962 C54.115102,7.15166916 53.3665238,6.37717068 52.5920253,5.6542536 C54.2960257,4.56974837 56.0518666,4.26000082 57.6783652,4.69883145 L57.6783652,4.69883145 Z M2.6314304,13.4259363 C2.08917778,12.0314243 2.26984225,10.3792645 3.09618132,8.93343038 C3.92226119,7.487337 5.26493258,6.35150959 6.86577012,5.88675866 C8.51818906,5.39608744 10.2996911,5.6283333 12.055532,6.66125714 C11.0402146,7.57383911 10.1385976,8.60547692 9.37018922,9.73384915 C8.02751784,9.03659316 6.65918536,8.90751008 5.88468688,10.327424 C5.08426811,11.851019 6.01376996,12.806182 7.33052105,13.529099 C7.14985658,13.9681889 6.96893291,14.4329398 6.81418873,14.8976907 C6.63326506,15.4656044 6.45260059,16.0594384 6.29785642,16.6532724 C4.41293241,15.9303554 3.17368301,14.820189 2.6314304,13.4259363 L2.6314304,13.4259363 Z M5.7556038,48.6179236 C5.7296835,48.6179236 5.57468013,48.6695049 5.57468013,48.695166 C5.49743764,48.7210863 5.41993595,48.7470066 5.34243427,48.798588 C5.1358495,48.8760897 4.92926473,49.0051728 4.72293917,49.159917 C3.99976288,49.6765085 3.12184242,50.0637577 2.45050672,50.1153391 C1.67600825,50.1928408 1.23717762,49.857173 1.15967593,48.9276711 C1.70192855,48.7470066 1.93417441,48.6179236 2.14075918,48.308176 L1.72758964,47.9981693 C1.57284547,48.204754 1.41784209,48.2822557 0.953091165,48.4369999 C0.927170868,48.4369999 0.927170868,48.4369999 0.90125057,48.4629202 C0.488340239,48.2304151 0.41083855,47.8690862 0.643343615,47.3527539 C0.849928382,46.8880029 1.31467931,46.3457503 1.70192855,46.0619231 C2.94117795,45.1580823 4.59359688,44.7192517 6.24601582,44.8224145 C6.24601582,45.4678299 6.27193612,46.1132453 6.24601582,46.7327404 C6.24601582,46.8105012 6.24601582,46.8620826 6.22009552,46.9395843 C6.19443443,47.3009133 6.19443443,47.4559166 6.16851413,47.6368403 C6.09127165,48.3854185 6.03943105,48.4885813 5.7556038,48.6179236 L5.7556038,48.6179236 Z M13.5529476,87.5792405 L13.501107,87.631081 C12.545944,88.4571609 12.0811931,88.7928288 11.4873591,89.1284966 C10.5062758,89.7223306 9.83494015,89.5932475 9.37018922,89.0253338 C9.29268754,88.9475729 9.24110614,88.8444101 9.18952475,88.7669085 C9.16360446,88.7409882 9.13768416,88.689666 9.11202307,88.6637457 L9.11202307,88.6378254 C9.16386366,88.1730745 9.34452813,87.8374066 9.80927906,87.1144895 C9.83519935,87.0885692 9.83519935,87.0885692 9.83519935,87.0629081 C10.1190266,86.6497386 10.2481097,86.4174927 10.3771928,86.1334063 L9.91244184,85.9268215 C9.80927906,86.1593266 9.68019598,86.3659113 9.42177061,86.7788217 C9.39585032,86.804742 9.39585032,86.804742 9.39585032,86.8306623 C8.93135859,87.501998 8.72451462,87.9149083 8.62135184,88.3796592 L8.59543155,88.3796592 L8.51792986,88.3796592 C8.46608926,88.3537389 8.38884678,88.3021575 8.285684,88.1989948 C7.27868046,86.5981572 8.07909923,85.2298247 10.3510133,83.5255652 C10.6350997,83.3192396 11.5905219,82.6479039 11.848688,82.4413192 C11.9005286,82.4413192 11.9518508,82.4153989 12.0036914,82.3894786 C13.397685,83.5774058 15.0244428,84.6100704 16.8318651,85.4620706 C16.8318651,85.4879909 16.8577854,85.5139112 16.8834465,85.5398315 C15.8248616,85.7977384 14.9985225,86.339991 13.5526884,87.5792405 L13.5529476,87.5792405 Z M56.9038668,84.7650738 C57.7042855,86.1077452 57.6783652,87.1919912 56.6713617,87.9408286 C56.5941192,87.7858252 56.5422786,87.6051607 56.4391158,87.3469946 C56.4391158,87.3210743 56.4391158,87.3210743 56.4131955,87.295154 C56.0518666,86.3140708 55.8196207,85.9011604 55.3805309,85.4364095 L55.0189428,85.7977384 C55.406192,86.1593266 55.5871157,86.5465758 55.9484446,87.4501574 C55.9484446,87.4760777 55.9484446,87.4760777 55.9743649,87.501998 C56.103448,87.8374066 56.1809497,88.0439914 56.2584514,88.224915 C55.5871157,88.7928288 54.9932817,88.8962507 54.3735274,88.6121643 C53.8312747,88.3796592 53.3149424,87.888988 52.4886034,86.9597454 C52.437022,86.9079048 52.3854406,86.8306623 52.3338592,86.7531606 C52.3079389,86.7272403 52.2820186,86.70132 52.2560983,86.6497386 C52.2047761,86.5981572 52.2047761,86.5981572 52.1788558,86.5465758 C51.2234337,85.4364095 50.65552,84.8425755 50.0357656,84.5066484 C51.481859,83.6805686 52.772949,82.7510667 53.9346967,81.6665615 C55.0189428,82.4669803 56.2325311,83.6546483 56.9038668,84.7650738 L56.9038668,84.7650738 Z M57.2651957,76.3995571 C55.0448631,80.8664019 51.1202709,84.0162364 45.8530073,85.9268215 C41.3605014,87.5535794 36.0416565,88.224915 30.5421471,88.0183303 C21.0664641,87.6826624 12.8559508,84.3778246 9.00886028,78.1294778 C6.42693949,73.9723805 5.57468013,68.6794559 5.80718519,61.3984444 C5.88468688,59.4103576 5.98784966,57.6288556 6.24601582,54.3755991 C6.53010228,50.7091731 6.60760396,49.6505882 6.68510565,47.9981693 C6.73668704,46.8105012 6.73668704,45.5969129 6.71102595,44.3060821 C6.65918536,42.0339089 6.53010228,40.2264866 6.19443443,36.1728113 C5.7296835,30.802385 5.60060042,28.4527101 5.65218182,25.5092011 C5.72994271,21.6367088 6.24601582,18.2281897 7.33052105,15.0011127 C9.08558436,9.75925104 12.313439,6.2219081 16.9609482,3.92433297 C20.8596201,2.01400708 25.584631,1.03266463 32.0136423,0.516073114 C38.0297433,0.516073114 42.4188272,1.05832573 46.2143363,2.45257851 C50.7584235,4.13091774 54.1407631,7.07416747 56.4645177,11.5928529 C57.9621925,15.2590197 58.8401129,19.2095321 59.3048639,23.7536194 C59.6661928,27.2134607 59.7436945,30.0019662 59.7696148,36.3275555 L59.7696148,38.3415626 C59.7955351,41.465736 59.8468573,43.6604075 59.9761996,45.8550791 C60.027781,46.7070793 60.053442,47.0686674 60.1825251,49.1083356 C60.4666116,53.4976787 60.5700336,55.7698519 60.5956947,58.4033541 C60.6475353,65.8134486 59.7177742,71.5195428 57.2649365,76.3995571 L57.2651957,76.3995571 Z M65.1659614,48.1272523 C65.1400411,48.1272523 65.11438,48.101332 65.088719,48.101332 C64.623968,47.9465879 64.4689647,47.8431659 64.3139613,47.6625014 L63.9007917,47.972249 C64.1332968,48.2822557 64.3655427,48.4113388 64.8821342,48.5917441 C64.7787122,49.5215051 64.3398816,49.857173 63.5913034,49.7796713 C62.9199677,49.7278307 62.041788,49.3149203 61.318871,48.8242491 C61.1122862,48.6695049 60.9059606,48.566083 60.6993759,48.4629202 C60.6734556,48.4629202 60.6475353,48.4369999 60.621615,48.4369999 C60.5184522,47.017086 60.5184522,46.6554979 60.4668708,45.9066605 L60.3893691,44.5124077 C61.8354625,44.538328 63.2553763,44.9771586 64.3396224,45.7775774 C64.7271308,46.0616639 65.1918817,46.6039165 65.3984665,47.0684082 C65.6566327,47.507498 65.6050513,47.8947473 65.1659614,48.1272523 L65.1659614,48.1272523 Z" id="Shape" fill="#000000"></path>
            <path d="M35.9022053,26.9371503 C35.9281256,28.2539014 36.1862917,29.6997356 35.9537867,31.0939883 C35.5921985,31.765324 34.921122,31.8430849 34.327288,32.1009919 C33.500949,31.9719088 32.803693,31.4296562 32.4682843,30.6551577 C32.2616996,29.0802405 32.5198657,27.5825657 32.5973674,26.0076484 C32.5973674,25.9558079 33.5784506,26.0335687 34.4563711,26.2917349 C35.2049493,26.5239808 35.9022053,26.91123 35.9022053,26.9371503 L35.9022053,26.9371503 Z M28.5952735,27.0403131 C27.8720973,29.7774964 29.5506957,34.244082 32.3132809,30.577656 C32.1066962,29.0283999 32.3392012,27.5309843 32.4164437,26.0076484 C32.442364,25.8785654 28.6211938,26.8596486 28.5952735,27.0403131 L28.5952735,27.0403131 Z" id="Shape" fill="#FFFFFF"></path>
            <path d="M36.2119528,28.1507386 C36.1601122,27.3759809 36.1344511,27.0662334 36.1344511,26.6789841 L36.1344511,26.4983197 L35.9537867,26.4464791 L32.7005302,25.4397347 L32.7005302,25.2588111 L32.3648623,25.336572 L32.338942,25.336572 L32.338942,25.362233 L28.6727752,26.2917349 L28.5436922,26.3176552 L28.4918516,26.4464791 C27.9239378,27.8150708 28.0530209,29.8806592 28.775938,31.1458289 C29.6022771,32.5916631 30.9446893,32.6173242 32.3132809,30.9649053 C32.7000455,31.7113468 33.4189911,32.2291417 34.2495271,32.3594172 L34.327288,32.3594172 L34.4045305,32.3334969 C34.5079525,32.2816563 34.6111153,32.255736 34.792039,32.1784936 C34.8179593,32.1784936 34.8179593,32.1784936 34.8436203,32.1525733 C35.5921985,31.8944071 35.9022053,31.6878223 36.1603714,31.1974103 L36.1862917,31.17149 L36.1862917,31.1199086 C36.2635342,30.6551577 36.2894545,30.1644865 36.2894545,29.6224931 C36.2894545,29.2349846 36.2635342,28.8733965 36.2119528,28.1507386 L36.2119528,28.1507386 Z M32.0807759,27.1953165 C32.0548556,27.6600674 32.0291945,27.8407319 32.0035334,28.098898 C31.9516928,29.0543202 31.9516928,29.7772372 32.0294537,30.5001543 C30.8156062,32.0494105 29.8604432,32.0494105 29.2150278,30.8874036 C28.5952735,29.8031575 28.4659313,27.9698149 28.9309414,26.7564858 L32.1839387,25.9301468 C32.1582776,26.2658146 32.1326165,26.6014825 32.0807759,27.1953165 L32.0807759,27.1953165 Z M35.6956205,31.0167458 C35.514956,31.3264934 35.282451,31.4814968 34.6626967,31.6880815 C34.6367764,31.6880815 34.6367764,31.6880815 34.6111153,31.7137426 C34.4563711,31.7655832 34.3529491,31.8169054 34.2754474,31.8428257 C33.5781914,31.7137426 32.9846166,31.2489917 32.7005302,30.6035763 C32.6230285,29.9063203 32.6230285,29.1834032 32.6746099,28.2282403 C32.7005302,27.9698149 32.7005302,27.7891505 32.7523708,27.3243995 C32.803693,26.7308247 32.8296133,26.3692366 32.8296133,26.0335687 L35.6440391,26.8855689 C35.6440391,27.2212368 35.6699594,27.5309843 35.7215408,28.20232 C35.7731222,28.899576 35.7987833,29.2609049 35.7987833,29.6740745 C35.7987833,30.1644865 35.772863,30.6035763 35.6956205,31.0167458 Z" id="Shape" fill="#000000"></path>
            <g id="Group" transform="translate(12.624314, 5.718261)">
                <path d="M0.428890175,9.96999834 C2.8042262,19.2131763 17.5987541,16.8378402 17.0308404,7.56874202 C16.3592455,-3.53369881 -1.84328306,-1.39060865 0.428630972,9.96999834" id="Path" fill="#FFFFFF"></path>
                <path d="M17.2890066,7.54282173 C17.1340032,4.85747895 15.9463352,2.76622939 13.9841687,1.4494783 C12.2283278,0.261810287 9.90457317,-0.202940639 7.60673883,0.0808866138 C5.3089045,0.391152569 3.19147543,1.4238172 1.79722266,3.05057505 C0.248225705,4.85773816 -0.345608301,7.23307418 0.196644314,9.96999834 L0.428890175,9.91815775 L0.196644314,9.96999834 C2.62356173,19.4713424 17.8569203,17.1735081 17.2890066,7.54282173 Z M0.661136037,9.91841695 C0.144803719,7.31083507 0.712976631,5.09024322 2.1588108,3.41190399 C3.47556189,1.88856813 5.46364867,0.881823792 7.65832022,0.597737337 C9.85299177,0.313650881 12.0476633,0.752740713 13.7003415,1.88856813 C15.5331657,3.12807673 16.6435912,5.06458213 16.7983354,7.62058262 C17.340588,16.6315147 2.95922957,18.8005251 0.66139524,9.91841695 L0.661136037,9.91841695 Z" id="Shape" fill="#000000"></path>
                <ellipse id="Oval" fill="#000000" cx="4.50848573" cy="8.44666248" rx="2.5044191" ry="2.71100387"></ellipse>
                <ellipse id="Oval" fill="#FFFFFF" cx="5.64431314" cy="9.06615758" rx="1" ry="1"></ellipse>
            </g>
            <g id="Group" transform="translate(33.525379, 4.838599)">
                <path d="M0.275986615,9.12155426 C2.10932923,19.7333239 19.4598577,16.918898 16.9554386,6.22962672 C14.7091856,-3.37513935 -0.343767687,-0.71571687 0.275986615,9.12155426" id="Path" fill="#FFFFFF"></path>
                <path d="M17.1876844,6.17804533 C14.8898501,-3.71080719 -0.60141544,-0.999803326 0.0180796595,9.14721536 L0.0180796595,9.17313566 C0.86982062,14.1819739 5.33692461,16.7382336 10.2682611,15.9118945 C12.5142549,15.5246452 14.5282619,14.4403992 15.845013,12.8395617 C17.2908472,11.0578005 17.8071795,8.75996612 17.1876844,6.17804533 Z M15.458023,12.5295549 C14.2185144,14.0272297 12.3338496,15.0598943 10.1907594,15.4214825 C5.51732988,16.1959809 1.33457155,13.7947246 0.50849168,9.09563397 C-0.0596812317,-0.457550712 14.5541822,-3.01381041 16.7229335,6.28120811 C17.2911064,8.73404582 16.8263555,10.877136 15.458023,12.5295549 Z" id="Shape" fill="#000000"></path>
                <ellipse id="Oval" fill="#000000" cx="4.53624664" cy="8.65680334" rx="2.45283771" ry="2.71100387"></ellipse>
                <ellipse id="Oval" fill="#FFFFFF" cx="5.67233326" cy="9.27629844" rx="1" ry="1"></ellipse>
            </g>
            <path d="M29.1284541,21.4625244 C27.0885267,21.6431888 25.4361077,24.0444451 26.4949519,25.9550302 C27.8889454,28.4853696 31.0131188,25.7227844 32.9496242,25.9809505 C35.1958772,26.0327911 37.0292198,28.3562866 38.8107218,26.3941201 C40.7988086,24.2251096 37.9587216,22.1079398 35.7122095,21.1784379 L29.1284541,21.4625244 Z" id="Path" fill="#F6D2A2"></path>
            <path d="M39.068888,23.192445 C38.371632,22.3145245 37.1583029,21.5141057 35.8412926,20.9718531 L35.7897112,20.9459328 L35.7381298,20.9459328 L29.1284541,21.2043582 C26.8303605,21.410943 25.1782008,24.0703654 26.2881079,26.0841133 C26.7271977,26.858871 27.3210317,27.2461202 28.1214505,27.2977016 C28.7150253,27.3236219 29.3350388,27.1945388 30.2902018,26.858871 C30.3677035,26.8329507 30.4708662,26.8070304 30.5999493,26.755449 C31.8910393,26.3166184 32.4073716,26.1875353 32.9237039,26.265037 L32.9496242,26.265037 C33.5691193,26.265037 34.0857109,26.4457015 35.0667941,26.8329507 C36.1512993,27.2717813 36.4869672,27.4011236 37.0289606,27.4524458 C37.7780572,27.5042864 38.4234726,27.2461202 39.0170474,26.6007048 C40.0240509,25.4902793 39.9724695,24.3026113 39.068888,23.192445 L39.068888,23.192445 Z M38.6297981,26.2391167 C38.1393861,26.7813693 37.6487149,26.962293 37.0548809,26.9363727 C36.59013,26.9104524 36.2803824,26.7813693 35.2474586,26.3681998 C34.2147939,25.9293691 33.6468802,25.774625 32.9755445,25.7487047 C32.3301291,25.6709438 31.7878765,25.8002861 30.4192848,26.265037 C30.2902018,26.3166184 30.187039,26.3425387 30.1095373,26.3681998 C28.2246133,27.0136152 27.3210317,26.9620338 26.7012774,25.8259472 C25.7717756,24.1478671 27.1919487,21.8756939 29.1284541,21.6950294 L35.6606281,21.4366041 C36.9001367,21.9531956 38.010303,22.7017738 38.6557184,23.5024517 C39.4302169,24.4316944 39.4561372,25.3611962 38.6297981,26.2391167 L38.6297981,26.2391167 Z" id="Shape" fill="#231F20"></path>
            <path d="M36.228801,20.352358 C35.4283822,17.4088491 28.7152845,17.8479389 28.8700287,21.3593616 C29.2056965,23.9669435 37.0032995,23.2696875 36.228801,20.352358 Z" id="Path" fill="#000000"></path>
        </g>
    </g>
</svg>