<?xml version="1.0" encoding="UTF-8"?>
<svg width="84.4200037px" height="115px" viewBox="0 0 84.4200037 115" version="1.1" xmlns="http://www.w3.org/2000/svg" xmlns:xlink="http://www.w3.org/1999/xlink">
    <title>go1</title>
    <g id="Page-1" stroke="none" stroke-width="1" fill="none" fill-rule="evenodd">
        <g id="go1" fill-rule="nonzero">
            <path d="M1.0856884,62.2547214 C1.25062789,65.6528724 4.64877883,64.069387 6.16635462,63.0135093 C7.61802086,61.990752 8.04692977,62.8485698 8.17874888,60.8689648 C8.27777882,59.5494488 8.40959793,58.2627221 8.34368837,56.9432062 C6.13323424,56.7451463 3.75784062,57.2730851 1.94317502,58.5926011 C0.986658461,59.252359 -0.7289772,61.430024 1.08535719,62.2547214 M68.8171958,104.021838 C71.4234385,105.638444 76.2073461,110.521382 72.2812563,112.896775 C68.520106,116.328047 66.409013,109.102505 63.1095608,108.112868 C64.5281066,106.166383 66.3096519,104.384838 68.8171958,104.021838 Z M22.1671412,109.531414 C19.0988692,109.993443 17.3832336,112.764625 14.8101113,114.183502 C12.4015973,115.602048 11.4778699,113.721473 11.27981,113.325684 C10.9171419,113.160745 10.949931,113.490624 10.3560826,112.896775 C8.11283933,109.366474 12.6655667,106.793352 15.0409603,105.044596 C18.3400813,104.384838 20.4187164,107.25505 22.1671412,109.531414 Z M83.3004066,61.8258125 C83.1354671,65.2239635 79.7373161,63.6404781 78.2197403,62.5846004 C76.7680741,61.5618431 76.3391652,62.4196609 76.2073461,60.4400558 C76.1079849,59.1205399 75.9761658,57.8338132 76.0424066,56.5142972 C78.2525295,56.3162374 80.6279231,56.8441762 82.4425887,58.1636922 C83.3666473,58.8234501 85.1150722,61.0011151 83.3004066,61.8258125" id="Shape" fill="#F6D2A2"></path>
            <path d="M74.2936506,20.3885745 C86.0715887,16.2316356 76.867104,0.0990299349 66.6064105,7.2248796 C59.8763493,1.45133503 50.6059551,0.395457332 40.8732004,0.395457332 C31.3391679,1.15490764 22.2661711,2.90333247 15.9318985,8.44569679 C5.70399412,1.84712357 -3.73133961,17.6829706 8.27744761,21.6753012 C4.91241705,34.7396349 8.7391457,48.0682693 8.21120685,61.3637832 C7.71638838,73.3069921 4.58220687,89.3074475 11.2135693,100.029839 C16.8552947,109.201535 28.995901,112.467866 38.9926252,112.830866 C51.7602003,113.292564 67.233048,110.158382 73.4355015,97.7865958 C79.3739856,86.0086577 77.7245907,71.327387 76.9658028,58.6257214 C76.2070149,45.7919056 77.6255607,32.760361 74.2933193,20.3882432 L74.2936506,20.3885745 Z" id="Path" fill="#69D7E2"></path>
            <path d="M84.1910136,59.8134183 C83.8611346,59.1205399 83.234497,58.3286316 82.6406486,57.8997227 C81.1230728,56.8110558 79.1762569,56.2172074 77.1638626,56.1512979 C77.0979531,54.1057832 77.0320435,51.8622087 77.0320435,49.025117 L77.0320435,46.4516635 C76.9989232,38.3358457 76.8998932,34.7727553 76.4381951,30.3187266 C76.0751958,26.821877 75.5141365,23.5886655 74.7225595,20.5535139 C77.3950429,19.5307566 79.1434677,17.8482413 79.8363461,15.6705764 C80.496104,13.6581821 80.1662251,11.3818184 79.044769,9.36942417 C77.8898614,7.38981909 76.0424066,5.90503247 73.897862,5.31151527 C71.588378,4.68454648 69.0811652,5.14657578 66.6726512,6.7628503 C64.5281066,4.94851591 62.0540143,3.56275923 59.2825009,2.50688153 C54.3667742,0.69287834 48.6594704,0 40.9063207,0 L40.9063207,0.32987898 L40.8732004,0 C32.5924431,0.659757961 26.4558991,1.94648471 21.3752329,4.42090826 C19.3297183,5.4105452 17.5153839,6.59824202 15.9318985,7.9839987 C13.4902642,6.4664229 10.949931,6.10342354 8.6076578,6.82942226 C6.43032404,7.48918023 4.54974889,9.0398764 3.42796164,11.0522707 C2.30617438,13.0646649 2.04220496,15.374149 2.80099285,17.3537541 C3.55978075,19.333028 5.30820559,20.8837241 7.91477946,21.8405719 C7.09008201,25.1724821 6.66117309,28.7027833 6.59526354,32.5957527 C6.52902278,36.3896922 6.69396227,39.425175 7.28781067,46.2870552 C7.71671959,51.4008418 7.88165908,53.7431151 7.94789984,56.580538 C5.70432533,56.4815081 3.46108202,57.0753565 1.77823553,58.2961737 C1.18438713,58.7250826 0.524629166,59.4838705 0.227870565,60.209538 C-0.20103835,61.1335966 -0.0360988597,61.958294 0.821718971,62.4531125 C0.953538081,64.0365979 1.84447629,64.7622654 3.19711259,64.6304463 C4.18674953,64.5314163 5.37444634,64.0034775 6.39720367,63.27781 C6.61327139,63.1213683 6.84557259,62.9886723 7.09008201,62.8820214 C7.18911194,62.848901 7.2550215,62.8157807 7.35405143,62.7826603 C7.35405143,62.7826603 7.5517801,62.7170819 7.61802086,62.6839616 C7.71671959,62.6508412 7.81574952,62.6177208 7.88165908,62.5518112 C7.81574952,64.1025074 7.68393041,65.7191131 7.38684061,69.4143539 C7.05696163,73.5709615 6.89202214,75.8476564 6.82611258,78.3879895 C6.52902278,87.8233232 7.65081003,94.6855347 11.0158406,100.1292 C12.0717183,101.844836 13.358445,103.362412 14.8760208,104.748168 C14.578931,104.945897 13.3253247,105.869956 12.9295361,106.166714 C11.5437794,107.222592 10.5872629,108.113199 10.0262037,109.102836 C9.30053614,110.389563 9.30053614,111.676289 10.1252336,113.028926 L10.158354,113.062046 L10.1914743,113.095166 C10.5541425,113.457835 10.7522024,113.556865 11.0161718,113.556865 L11.1145393,113.556865 C11.1476597,113.623105 11.1807801,113.655894 11.2139005,113.721804 C11.3125992,113.886744 11.4116291,114.018563 11.5106591,114.150713 C12.3353565,115.107561 13.4899329,115.33841 15.0406291,114.414682 C15.8653266,113.985773 16.459175,113.490624 17.7127813,112.435077 L17.7790221,112.368837 C19.7914164,110.653532 20.7810533,110.026894 22.2658399,109.795714 L22.7937788,109.696684 C22.9915074,109.796045 23.1895673,109.861955 23.4204163,109.960654 C28.105294,111.841229 33.5486284,112.863986 39.0585348,113.062046 C46.1847156,113.326016 53.0469271,112.435077 58.8532608,110.323653 C60.403957,109.762925 61.8556232,109.102836 63.2413799,108.377168 C64.0991977,108.707047 64.824534,109.399926 66.2106219,111.016531 C66.2765315,111.082772 66.2765315,111.082772 66.3093207,111.148351 C66.3755614,111.214591 66.3755614,111.247712 66.4086818,111.280501 C66.4742601,111.379531 66.5732901,111.44544 66.6391996,111.54447 C67.7281977,112.830866 68.4541964,113.457835 69.2788939,113.820834 C70.3672296,114.282532 71.4231073,114.051683 72.5117741,113.062046 C74.4254697,111.874349 74.5572888,110.026894 73.3033512,107.915139 C72.4127442,106.430684 70.8623792,104.879988 69.410713,103.890351 C71.1263487,102.207835 72.6108041,100.195441 73.7653805,97.9187461 C76.9326824,91.5844735 78.1534996,84.1943233 78.08759,74.6927488 C78.0544697,71.3277182 77.9223193,68.3915966 77.5596512,62.7826603 L77.5596512,62.618052 C77.7245907,62.6839616 77.8895302,62.7829915 78.0544697,62.9148106 C79.077227,63.6076889 80.2649238,64.168417 81.2545607,64.2674469 C82.607197,64.3995972 83.4981352,63.6735985 83.6299543,62.0901131 C84.4546518,61.5621743 84.6195913,60.7374768 84.1906824,59.8137495 L84.1910136,59.8134183 Z M73.7001334,6.00406241 C75.6797384,6.53200126 77.3953741,7.91775794 78.4509206,9.76521271 C79.5067983,11.6126675 79.8035569,13.6913025 79.2097085,15.5387573 C78.5830709,17.485242 76.9992544,19.0359382 74.5248308,19.9596655 C74.0314712,18.1933279 73.4478973,16.4534397 72.776406,14.746849 C73.7332537,13.9221515 74.1949518,12.8993942 73.4361639,11.4480592 C72.6777072,9.99606175 71.3578601,9.83112226 70.0048926,10.2600312 C69.1470748,9.13824392 68.1905582,8.14860698 67.2009213,7.2248796 C69.378255,5.83912292 71.6218295,5.44333438 73.7001334,6.00406241 L73.7001334,6.00406241 Z M3.36238329,17.155363 C2.66950495,15.3734866 2.90035399,13.2623936 3.95623169,11.4149388 C5.01177819,9.56715284 6.72741385,8.11581781 8.77292849,7.5219694 C10.8843527,6.89500062 13.1607164,7.19175922 15.4042909,8.51160634 C14.1069409,9.67768331 12.9548747,10.9958872 11.9730196,12.4376961 C10.2573839,11.5467579 8.50895907,11.3818184 7.51932212,13.1961528 C6.4965648,15.1429687 7.68426161,16.3634547 9.3667769,17.2871821 C9.13592785,17.8482413 8.9047476,18.4420897 8.70701894,19.0359382 C8.47583869,19.7616057 8.24498964,20.5203936 8.04726097,21.2791815 C5.63874697,20.3554541 4.05526163,18.9369082 3.36238329,17.155363 L3.36238329,17.155363 Z M7.35438263,62.1229023 C7.32126225,62.1229023 7.12320239,62.1888119 7.12320239,62.2216011 C7.02450365,62.2547214 6.92547372,62.2878418 6.82644378,62.3537514 C6.56247436,62.4527813 6.29850493,62.6177208 6.03486671,62.8154495 C5.11080812,63.4755386 3.98902087,63.9703571 3.13120304,64.0362666 C2.1415661,64.1352966 1.58083807,63.7063877 1.48180814,62.5186909 C2.17468648,62.2878418 2.47144508,62.1229023 2.7354145,61.7271138 L2.20747565,61.330994 C2.00974699,61.5949635 1.81168712,61.6939934 1.21783871,61.8917221 C1.18471833,61.8917221 1.18471833,61.8917221 1.15159795,61.9248425 C0.623990305,61.6277526 0.52496037,61.1660546 0.822050175,60.5062966 C1.0860196,59.9124482 1.67986801,59.2195699 2.17468648,58.8569017 C3.75817182,57.7019941 5.86959602,57.141266 7.98102022,57.2730851 C7.98102022,58.0977826 8.0141406,58.92248 7.98102022,59.7140571 C7.98102022,59.8134183 7.98102022,59.8793278 7.94789984,59.9783577 C7.91511066,60.4400558 7.91511066,60.6381157 7.88199028,60.869296 C7.78329155,61.8258125 7.71705079,61.9576316 7.35438263,62.1229023 L7.35438263,62.1229023 Z M17.3176552,111.906807 L17.2514145,111.973048 C16.0309285,113.028594 15.4370801,113.457503 14.6782922,113.886412 C13.4246858,114.6452 12.566868,114.480261 11.9730196,113.754593 C11.8739896,113.655232 11.8080801,113.523413 11.7421705,113.424383 C11.7090501,113.391263 11.6759298,113.325684 11.6431406,113.292564 L11.6431406,113.259444 C11.7093813,112.665595 11.9402304,112.236686 12.5340788,111.312959 C12.5671992,111.279838 12.5671992,111.279838 12.5671992,111.247049 C12.9298673,110.71911 13.0948068,110.422352 13.2597463,110.059352 L12.6658979,109.795383 C12.5340788,110.092473 12.3691393,110.356442 12.0389291,110.88405 C12.0058087,110.91717 12.0058087,110.91717 12.0058087,110.950291 C11.4122915,111.808109 11.1479909,112.335716 11.0161718,112.929565 L10.9830514,112.929565 L10.8840215,112.929565 C10.8177807,112.896444 10.719082,112.830535 10.5872629,112.698716 C9.30053614,110.653201 10.3232935,108.904776 13.2262947,106.727111 C13.5892941,106.463473 14.8101113,105.605655 15.1399903,105.341686 C15.206231,105.341686 15.2718094,105.308565 15.3380501,105.275445 C17.1192641,106.793352 19.1978992,108.112868 21.5073832,109.201535 C21.5073832,109.234655 21.5405036,109.267775 21.5732928,109.300896 C20.2206565,109.630444 19.1647788,110.323322 17.317324,111.906807 L17.3176552,111.906807 Z M72.7104964,108.310928 C73.7332537,110.026563 73.7001334,111.411989 72.4134066,112.368837 C72.3147079,112.170777 72.2484671,111.939928 72.116648,111.610049 C72.116648,111.576928 72.116648,111.576928 72.0835276,111.543808 C71.6218295,110.290202 71.3250709,109.762594 70.7640117,109.168745 L70.3019824,109.630444 C70.7968009,110.092473 71.0279811,110.587291 71.4896792,111.741868 C71.4896792,111.774988 71.4896792,111.774988 71.5227996,111.808109 C71.6877391,112.236686 71.786769,112.500656 71.885799,112.731836 C71.0279811,113.457503 70.2691932,113.589654 69.477285,113.226654 C68.7844066,112.929565 68.1246487,112.302596 67.068771,111.11523 C67.0028614,111.048989 66.9369518,110.950291 66.8710423,110.851261 C66.8379219,110.81814 66.8048015,110.78502 66.7716812,110.71911 C66.7061028,110.653201 66.7061028,110.653201 66.6729824,110.587291 C65.4521652,109.168745 64.7264977,108.409958 63.9345894,107.980717 C65.7823754,106.925171 67.4321015,105.737474 68.9165569,104.351717 C70.3019824,105.374475 71.8526786,106.892051 72.7104964,108.310928 L72.7104964,108.310928 Z M73.1721945,97.6216563 C70.3351028,103.329291 65.3203461,107.35408 58.5899538,109.795383 C52.8495296,111.874018 46.0532277,112.731836 39.0260768,112.467866 C26.9182596,112.038958 16.4270482,107.816109 11.5113215,99.8321105 C8.21220047,94.520264 7.12320239,87.7570825 7.42029219,78.4535679 C7.51932212,75.9132348 7.65114124,73.6368711 7.98102022,69.4799322 C8.34401958,64.7950545 8.44304951,63.4424182 8.54207945,61.330994 C8.607989,59.8134183 8.607989,58.2627221 8.57519982,56.6133272 C8.50895907,53.7099947 8.34401958,51.4005106 7.91511066,46.2208145 C7.32126225,39.358603 7.15632276,36.3562406 7.22223232,32.5950903 C7.32159346,27.6469056 7.98102022,23.2915757 9.3667769,19.1680885 C11.6093578,12.4701541 15.7338387,7.95021591 21.6723227,5.01442546 C26.653959,2.57345349 32.691473,1.31951592 40.9063207,0.659426757 C48.5935608,0.659426757 54.2018347,1.3523051 59.0516519,3.13385031 C64.8579856,5.27839489 69.1798639,9.03921399 72.149106,14.8130898 C74.0628015,19.4976362 75.1845888,24.5455133 75.7784372,30.351847 C76.2401353,34.7727553 76.3391652,38.3358457 76.3722856,46.4185432 L76.3722856,48.9919966 C76.405406,52.983996 76.4709843,55.7882985 76.636255,58.5926011 C76.7021646,59.6812679 76.7349537,60.1432972 76.8998932,62.7495399 C77.2628926,68.358145 77.3950429,71.2614775 77.4278321,74.626508 C77.4940728,84.0949621 76.3060448,91.3860825 73.1718633,97.6216563 L73.1721945,97.6216563 Z M83.2676174,61.4959335 C83.234497,61.4959335 83.2017078,61.4628132 83.1689187,61.4628132 C82.5750703,61.2650845 82.3770104,61.1329342 82.1789505,60.9020851 L81.6510117,61.2978737 C81.9481015,61.6939934 82.2448601,61.8589329 82.9049492,62.0894507 C82.7727989,63.2774788 82.2120709,63.7063877 81.2555543,63.6073577 C80.3977365,63.541117 79.275618,63.0135093 78.3518907,62.3865405 C78.0879212,62.1888119 77.824283,62.0566616 77.5603136,61.9248425 C77.5271932,61.9248425 77.4940728,61.8917221 77.4609524,61.8917221 C77.3291333,60.0773877 77.3291333,59.6153584 77.2632238,58.6585106 L77.1641938,56.8769654 C79.0119798,56.9100858 80.8263142,57.4708138 82.2117397,58.4935711 C82.7068894,58.8565705 83.3007378,59.5494488 83.5647072,60.142966 C83.8945862,60.7040253 83.8286766,61.1988437 83.2676174,61.4959335 L83.2676174,61.4959335 Z" id="Shape" fill="#000000"></path>
            <path d="M45.8750401,34.419692 C45.9081605,36.1022073 46.2380394,37.9496621 45.9409496,39.7312073 C45.4789203,40.5890251 44.6214337,40.6883863 43.8626458,41.0179341 C42.8067681,40.8529946 41.9158299,40.1601162 41.4872522,39.1704793 C41.2232828,37.158085 41.5531617,35.2443895 41.6521917,33.2319952 C41.6521917,33.1657545 42.9057981,33.2651156 44.0275853,33.5949946 C44.9841019,33.8917532 45.8750401,34.3865717 45.8750401,34.419692 L45.8750401,34.419692 Z M36.5384051,34.5515112 C35.6143465,38.0490232 37.7592223,43.756327 41.2891923,39.0714494 C41.0252229,37.0918443 41.3223127,35.1784799 41.4210114,33.2319952 C41.4541318,33.0670557 36.5715255,34.3206621 36.5384051,34.5515112 L36.5384051,34.5515112 Z" id="Shape" fill="#FFFFFF"></path>
            <path d="M46.2708286,35.9703882 C46.2045879,34.9804201 46.1717987,34.5846315 46.1717987,34.0898131 L46.1717987,33.858964 L45.9409496,33.7927233 L41.7840108,32.5063277 L41.7840108,32.2751475 L41.3551019,32.3745086 L41.3219815,32.3745086 L41.3219815,32.4072978 L36.637435,33.5949946 L36.4724955,33.628115 L36.4062548,33.7927233 C35.6805873,35.5414793 35.8455267,38.1808423 36.7692541,39.7974481 C37.8251318,41.6449028 39.5404363,41.677692 41.2891923,39.5662678 C41.7833914,40.5200542 42.7020442,41.181681 43.7632847,41.3481442 L43.8626458,41.3481442 L43.9613445,41.3150239 C44.0934949,41.2487831 44.225314,41.2156627 44.4564942,41.116964 C44.4896146,41.116964 44.4896146,41.116964 44.5224038,41.0838436 C45.4789203,40.7539646 45.8750401,40.4899952 46.2049191,39.8633576 L46.2380394,39.8302373 L46.2380394,39.7643277 C46.3367382,39.1704793 46.3698585,38.5435105 46.3698585,37.8509634 C46.3698585,37.3558137 46.3367382,36.8937844 46.2708286,35.9703882 L46.2708286,35.9703882 Z M40.9921025,34.749571 C40.9589821,35.3434194 40.926193,35.5742685 40.8934038,35.9041475 C40.827163,37.1249646 40.827163,38.048692 40.9265242,38.9724194 C39.3754968,40.9520245 38.1550108,40.9520245 37.3303134,39.4672379 C36.5384051,38.0818124 36.3731344,35.739208 36.967314,34.188843 L41.1239216,33.1329653 C41.0911325,33.5618742 41.0583433,33.9907831 40.9921025,34.749571 L40.9921025,34.749571 Z M45.6110707,39.6325086 C45.3802216,40.0282971 45.0831318,40.226357 44.2912235,40.4903264 C44.2581031,40.4903264 44.2581031,40.4903264 44.225314,40.5231156 C44.0275853,40.5893564 43.895435,40.6549347 43.7964051,40.6880551 C42.9054668,40.5231156 42.1470102,39.9292672 41.7840108,39.1045697 C41.6849809,38.2136315 41.6849809,37.2899041 41.7508904,36.0694182 C41.7840108,35.739208 41.7840108,35.5083589 41.8502516,34.9145105 C41.9158299,34.1560538 41.9489503,33.6940245 41.9489503,33.2651156 L45.5451611,34.3537825 C45.5451611,34.7826914 45.5782815,35.1784799 45.644191,36.0362978 C45.7101006,36.927236 45.7428898,37.3889341 45.7428898,37.9168729 C45.7428898,38.5435105 45.7097694,39.1045697 45.6110707,39.6325086 Z" id="Shape" fill="#000000"></path>
            <g id="Group" transform="translate(16.131068, 7.306667)">
                <path d="M0.548026335,12.7394423 C3.58317792,24.5501697 22.487297,21.5150181 21.7616294,9.67117036 C20.9034804,-4.51528181 -2.35530614,-1.77688883 0.547695131,12.7394423" id="Path" fill="#FFFFFF"></path>
                <path d="M22.0915084,9.63804998 C21.8934486,6.20677866 20.3758728,3.53462644 17.86866,1.85211116 C15.6250855,0.334535367 12.6558435,-0.259313038 9.71972184,0.103355118 C6.78360019,0.499806061 4.07799639,1.81932198 2.29645117,3.897957 C0.317177289,6.20710987 -0.441610606,9.24226145 0.251267734,12.7394423 L0.548026335,12.6732016 L0.251267734,12.7394423 C3.35232887,24.8800487 22.8171759,21.943927 22.0915084,9.63804998 Z M0.844784936,12.6735328 C0.185026975,9.34162259 0.911025695,6.50419967 2.75848047,4.35965509 C4.44099575,2.41317039 6.98132886,1.12677485 9.7856314,0.763775486 C12.5899339,0.400776126 15.3942365,0.961835356 17.5059919,2.41317039 C19.8479339,3.99698694 21.266811,6.4714105 21.4645396,9.73741112 C22.157418,21.2513799 3.78123779,24.0228932 0.845116139,12.6735328 L0.844784936,12.6735328 Z" id="Shape" fill="#000000"></path>
                <ellipse id="Oval" fill="#000000" cx="5.76084287" cy="10.7929576" rx="3.20009107" ry="3.4640605"></ellipse>
                <ellipse id="Oval" fill="#FFFFFF" cx="7.21217791" cy="11.5845347" rx="1" ry="1"></ellipse>
            </g>
            <g id="Group" transform="translate(42.837984, 6.182655)">
                <path d="M0.352649564,11.6553193 C2.69525401,25.2148027 24.8653737,21.6185919 21.6652826,7.96007859 C18.7950705,-4.31267805 -0.439258712,-0.914527112 0.352649564,11.6553193" id="Path" fill="#FFFFFF"></path>
                <path d="M21.9620412,7.89416904 C19.0259196,-4.74158697 -0.768475284,-1.27752647 0.0231017871,11.6881085 L0.0231017871,11.7212289 C1.11143746,18.121411 6.81940367,21.3877429 13.1205559,20.3318652 C15.9904368,19.8370467 18.5638903,18.4516212 20.2464055,16.4061066 C22.0938603,14.1294117 22.7536183,11.19329 21.9620412,7.89416904 Z M19.7519183,16.0099868 C18.1681017,17.9236824 15.7599189,19.2431983 13.0215259,19.7052276 C7.04992151,20.6948645 1.70528586,17.6265926 0.649739368,11.622199 C-0.0762593516,-0.584648131 18.5970106,-3.85097996 21.3681928,8.02598815 C22.0941915,11.1601697 21.5003431,13.8985626 19.7519183,16.0099868 Z" id="Shape" fill="#000000"></path>
                <ellipse id="Oval" fill="#000000" cx="5.79631515" cy="11.0614709" rx="3.13418152" ry="3.4640605"></ellipse>
                <ellipse id="Oval" fill="#FFFFFF" cx="7.24798138" cy="11.853048" rx="1" ry="1"></ellipse>
            </g>
            <path d="M37.2196913,27.4243367 C34.6131174,27.6551857 32.5016932,30.7234577 33.8546607,33.1647609 C35.6358747,36.3979723 39.6278741,32.8680023 42.1022976,33.1978812 C44.9725097,33.264122 47.3151142,36.2330328 49.5914779,33.7258201 C52.131811,30.9543067 48.502811,28.2490341 45.6322677,27.0613373 L37.2196913,27.4243367 Z" id="Path" fill="#F6D2A2"></path>
            <path d="M49.9213568,29.6347908 C49.0304186,28.5130036 47.4800537,27.4902462 45.7972072,26.7973679 L45.7312976,26.7642475 L45.6653881,26.7642475 L37.2196913,27.0944577 C34.2832384,27.3584271 32.1721454,30.7565781 33.5903601,33.3297004 C34.1514193,34.3196685 34.9102072,34.814487 35.9329645,34.8803965 C36.6914212,34.9135169 37.4836607,34.7485774 38.7041467,34.3196685 C38.8031766,34.2865481 38.9349957,34.2534277 39.0999352,34.1875182 C40.7496613,33.6267902 41.4094193,33.4618507 42.0691773,33.5608806 L42.1022976,33.5608806 C42.8938747,33.5608806 43.5539639,33.7917297 44.8075702,34.2865481 C46.1933269,34.8472761 46.6222358,35.0125468 47.314783,35.0781252 C48.2719619,35.144366 49.0966594,34.814487 49.8551161,33.9897895 C51.1418428,32.5709125 51.0759333,31.0533367 49.9213568,29.6347908 L49.9213568,29.6347908 Z M49.3602976,33.5277602 C48.73366,34.2206386 48.1066913,34.4518188 47.3479034,34.4186984 C46.754055,34.3855781 46.3582664,34.2206386 45.0384193,33.6926997 C43.7189034,33.1319717 42.9932359,32.934243 42.135418,32.9011226 C41.3107206,32.8017615 40.6178422,32.9670322 38.8690862,33.5608806 C38.7041467,33.6267902 38.5723276,33.6599105 38.4732977,33.6926997 C36.0647837,34.5173972 34.9102072,34.4514876 34.1182989,32.9998214 C32.9306021,30.855608 34.7452677,27.9522755 37.2196913,27.7214265 L45.5663581,27.3912163 C47.1501747,28.0513055 48.5687205,29.007822 49.393418,30.0309106 C50.3830549,31.2182762 50.4161753,32.405973 49.3602976,33.5277602 L49.3602976,33.5277602 Z" id="Shape" fill="#231F20"></path>
            <path d="M46.2923569,26.0057908 C45.2695995,22.2446405 36.6917524,22.8056998 36.8894811,27.2925176 C37.31839,30.6244278 47.2819938,29.7334895 46.2923569,26.0057908 Z" id="Path" fill="#000000"></path>
        </g>
    </g>
</svg>