<?xml version="1.0" encoding="UTF-8"?>
<svg width="50px" height="51.4726016px" viewBox="0 0 50 51.4726016" version="1.1" xmlns="http://www.w3.org/2000/svg" xmlns:xlink="http://www.w3.org/1999/xlink">
    <title>laravel</title>
    <g id="Page-1" stroke="none" stroke-width="1" fill="none" fill-rule="evenodd">
        <g id="laravel" fill="#FF2D20">
            <path d="M49.9718049,11.6444508 C49.9903448,11.7130724 50,11.7838254 50,11.8549072 L50,22.9033625 C50,23.1920072 49.8455877,23.4585977 49.5951988,23.6021984 L40.3220284,28.941144 L40.3220284,39.523373 C40.3220284,39.8113659 40.1689693,40.0772055 39.9192411,40.2222089 L20.5622911,51.3653192 C20.5179845,51.3904934 20.46965,51.4066049 20.4213155,51.4237234 C20.4031901,51.4297652 20.3860716,51.4408419 20.3669392,51.4458767 C20.2316268,51.4815099 20.0893946,51.4815099 19.9540822,51.4458767 C19.9319289,51.4398349 19.9117896,51.4277513 19.8906433,51.4196955 C19.8463366,51.403584 19.8000161,51.3894865 19.7577234,51.3653192 L0.404801224,40.2222089 C0.154564805,40.0784551 0,39.8119616 0,39.523373 L0,6.37800704 C0,6.30550533 0.0100696822,6.23501756 0.0281951102,6.16654372 C0.0342369195,6.14338345 0.0483344746,6.12223712 0.0563902203,6.09907685 C0.0714947436,6.05678418 0.0855922987,6.01348455 0.1077456,5.97421279 C0.122850123,5.94803161 0.145003424,5.92688528 0.163128852,5.90271804 C0.186289121,5.87049506 0.207435453,5.83726511 0.234623595,5.80907 C0.257783864,5.78590973 0.287992911,5.76879127 0.314174085,5.74865191 C0.343376163,5.72448467 0.369557337,5.6983035 0.402787288,5.6791711 L0.403794256,5.6791711 L10.0807589,0.107615937 C10.3301153,-0.0358719791 10.636977,-0.0358719791 10.8863334,0.107615937 L20.563298,5.6791711 L20.565312,5.6791711 C20.5975349,5.69931046 20.6247231,5.72448467 20.6539252,5.74764494 C20.6801063,5.7677843 20.7093084,5.78590973 20.7324687,5.80806303 C20.7606638,5.83726511 20.7808032,5.87049506 20.8049704,5.90271804 C20.8220889,5.92688528 20.8452491,5.94803161 20.8593467,5.97421279 C20.8825069,6.01449152 20.8955975,6.05678418 20.911709,6.09907685 C20.9197648,6.12223712 20.9338623,6.14338345 20.9399041,6.16755069 C20.958444,6.23617227 20.9679229,6.30692527 20.9680992,6.37800704 L20.9680992,27.0802667 L29.0319008,22.4371362 L29.0319008,11.8539002 C29.0319008,11.7834124 29.0419704,11.7119177 29.0600959,11.6444508 C29.0671446,11.6202836 29.0802352,11.5991373 29.088291,11.575977 C29.1044025,11.5336843 29.1185,11.4903847 29.1406533,11.4511129 C29.1557578,11.4249318 29.1779111,11.4037854 29.1950296,11.3796182 C29.2191968,11.3473952 29.2393362,11.3141653 29.2675313,11.2859701 C29.2906916,11.2628099 29.3198937,11.2456914 29.3460748,11.2255521 C29.3762839,11.2013848 29.4024651,11.1752036 29.434688,11.1560712 L29.435695,11.1560712 L39.1136666,5.58451609 C39.3629677,5.44082143 39.66994,5.44082143 39.9192411,5.58451609 L49.5962057,11.1560712 C49.6304427,11.1762106 49.6566238,11.2013848 49.6868329,11.2245451 C49.7120071,11.2446845 49.7412092,11.2628099 49.7643694,11.2849632 C49.7925645,11.3141653 49.8127039,11.3473952 49.8368711,11.3796182 C49.8549966,11.4037854 49.8771499,11.4249318 49.8912474,11.4511129 C49.9144077,11.4903847 49.9274983,11.5336843 49.9436098,11.575977 C49.9526725,11.5991373 49.9657631,11.6202836 49.9718049,11.6444508 Z M48.3868369,22.4371362 L48.3868369,13.2495582 L45.0004028,15.1990487 L40.3220284,17.8926886 L40.3220284,27.0802667 L48.3878439,22.4371362 L48.3868369,22.4371362 Z M38.7098723,39.0571467 L38.7098723,29.8635268 L34.1080276,32.4917139 L20.9670923,39.9916132 L20.9670923,49.2718323 L38.7098723,39.0571467 Z M1.61316309,7.77265803 L1.61316309,39.0571467 L19.3539292,49.2708253 L19.3539292,39.9926202 L10.0857937,34.7473227 L10.0827728,34.7453088 L10.0787449,34.7432948 C10.0475289,34.7251694 10.0213477,34.6989882 9.99214565,34.6768349 C9.96697144,34.6566956 9.93776936,34.6405841 9.91561606,34.6184308 L9.91360213,34.6154099 C9.88742095,34.5902357 9.86929553,34.5590197 9.84714222,34.5308245 C9.82700286,34.5036364 9.80283562,34.4804761 9.78672413,34.452281 L9.78571716,34.4492601 C9.76759173,34.4190511 9.75651508,34.3828002 9.7434245,34.3485633 C9.73033391,34.3183542 9.71321545,34.2901591 9.70515971,34.2579362 L9.70515971,34.2569292 C9.69509002,34.2186644 9.69307609,34.1783857 9.68904821,34.1391139 C9.68502034,34.1089049 9.67696459,34.0786958 9.67696459,34.0484868 L9.67696459,34.0464728 L9.67696459,12.4157885 L4.99959721,9.72114153 L1.61316309,7.773665 L1.61316309,7.77265803 Z M10.4845531,1.73689052 L2.42175857,6.37800704 L10.4825392,11.0191236 L18.5443267,6.37700008 L10.4825392,1.73689052 L10.4845531,1.73689052 Z M14.6775688,30.7013244 L19.3549362,28.0086914 L19.3549362,7.77265803 L15.968502,9.7221485 L11.2901277,12.4157885 L11.2901277,32.6518218 L14.6775688,30.7013244 Z M39.5164539,7.21379067 L31.4546663,11.8549072 L39.5164539,16.4960237 L47.5772345,11.8539002 L39.5164539,7.21379067 Z M38.7098723,17.8926886 L34.031498,15.1990487 L30.6450638,13.2495582 L30.6450638,22.4371362 L35.3224312,25.1297692 L38.7098723,27.0802667 L38.7098723,17.8926886 Z M20.1595038,38.5969622 L31.9843316,31.8462473 L37.895235,28.4729037 L29.8394893,23.8348081 L20.564305,29.1747606 L12.1108068,34.041438 L20.1595038,38.5969622 Z" id="Shape"></path>
        </g>
    </g>
</svg>