<?xml version="1.0" encoding="UTF-8"?>
<svg width="141.651947px" height="40px" viewBox="0 0 141.651947 40" version="1.1" xmlns="http://www.w3.org/2000/svg" xmlns:xlink="http://www.w3.org/1999/xlink">
    <title>node-js</title>
    <g id="Page-1" stroke="none" stroke-width="1" fill="none" fill-rule="evenodd">
        <g id="node-js" fill-rule="nonzero">
            <path d="M130.302798,14.1940073 C129.957776,14.1940073 129.622454,14.2652288 129.325651,14.4331672 L119.9344,19.8565265 C119.326662,20.2065369 118.957253,20.868037 118.957253,21.5713833 L118.957253,32.398703 C118.957253,33.1017721 119.326662,33.7621638 119.9344,34.1132827 L122.386966,35.5266262 C123.578609,36.1141337 124.018131,36.1047114 124.560467,36.1047114 C126.324652,36.1047114 127.331729,35.0341729 127.331729,33.1735478 L127.331729,22.4917193 C127.331729,22.3406856 127.200925,22.2326063 127.052663,22.2326063 L125.876262,22.2326063 C125.725505,22.2326063 125.597196,22.3434568 125.597196,22.4917193 L125.597196,33.1790903 C125.597196,34.0038178 124.738105,34.8335336 123.34416,34.1362841 L120.794599,32.6409113 C120.704533,32.5918599 120.634975,32.5023482 120.634975,32.4017514 L120.634975,21.5744317 C120.634975,21.471895 120.703702,21.3671413 120.794599,21.3153187 L130.166175,15.9113583 C130.254024,15.8609213 130.358501,15.8609213 130.445241,15.9113583 L139.816817,21.3153187 C139.906052,21.368804 139.976442,21.4685695 139.976442,21.5744317 L139.976442,32.4017514 C139.976442,32.5051195 139.924619,32.6109817 139.83677,32.6608644 L130.445518,38.0648248 C130.36238,38.1127676 130.25153,38.1127676 130.166452,38.0648248 L127.753792,36.6293112 C127.681739,36.587188 127.583913,36.5905135 127.514632,36.6293112 C126.848698,37.0067571 126.723437,37.050543 126.099071,37.2672557 C125.945266,37.320741 125.711095,37.404156 126.178884,37.6663174 L129.329254,39.5230627 C129.629105,39.6965437 129.963319,39.7821757 130.306401,39.7821757 C130.654194,39.7821757 130.98342,39.6990379 131.283548,39.5230627 L140.6748,34.1191023 C141.282537,33.7654893 141.651947,33.1075918 141.651947,32.4045227 L141.651947,21.5772029 C141.651947,20.8738567 141.282537,20.2137421 140.6748,19.8623462 L131.283548,14.4389869 C130.98924,14.2710484 130.6517,14.199827 130.306401,14.199827 L130.302798,14.1940073 Z M132.815224,21.9308159 C130.140957,21.9308159 128.548313,23.0689731 128.548313,24.9614678 C128.548313,27.0122015 130.12904,27.5786474 132.695783,27.832495 C135.766341,28.1331769 136.005778,28.5840612 136.005778,29.1884734 C136.005778,30.2368417 135.169965,30.6838462 133.194333,30.6838462 C130.712391,30.6838462 130.166729,30.0641921 129.984103,28.8271008 C129.962487,28.6946345 129.860505,28.5879409 129.72499,28.5879409 L128.505635,28.5879409 C128.35293,28.5913144 128.229943,28.7143022 128.226569,28.867007 C128.226569,30.4474576 129.086214,32.3163965 133.191562,32.3163965 C136.163186,32.3163965 137.877211,31.1524666 137.877211,29.1061669 C137.877211,27.0831458 136.492689,26.5363759 133.610299,26.1547731 C130.700474,25.7667965 130.420023,25.5811219 130.420023,24.8985602 C130.420023,24.3354398 130.65558,23.5822108 132.81273,23.5822108 C134.739588,23.5822108 135.451803,23.9979001 135.743894,25.2970676 C135.769389,25.4190031 135.876914,25.5187685 136.003007,25.5187685 L137.222362,25.5187685 C137.297186,25.5187685 137.369793,25.4727656 137.421893,25.4190031 C137.472884,25.361638 137.50891,25.2970676 137.501705,25.2194723 C137.313259,22.9819555 135.821212,21.9294303 132.816056,21.9294303 L132.815224,21.9308159 Z" id="Shape" fill="#83CD29"></path>
            <path d="M75.0909502,7.35094126e-05 C74.9860379,0.000625355139 74.8829833,0.0281320512 74.7919311,0.0802482949 C74.607628,0.188091446 74.493946,0.385217519 74.4929119,0.598751371 L74.4929119,15.8523304 C74.4929119,16.0019785 74.4230761,16.1361076 74.2933811,16.2112088 C74.1639939,16.2866436 74.0040306,16.2866436 73.8746434,16.2112088 L71.3821706,14.7756952 C71.012125,14.5615862 70.5558625,14.5615862 70.1858169,14.7756952 L60.2364329,20.5180267 C59.8645296,20.7325223 59.6378391,21.1454404 59.6378391,21.5747088 L59.6378391,33.0596489 C59.6372328,33.4874354 59.8654523,33.882882 60.2361558,34.096378 L70.1858169,39.8389866 C70.5557077,40.0536711 71.0122797,40.0536711 71.3821706,39.8389866 L81.3318317,34.096378 C81.7025352,33.882882 81.9307547,33.4874354 81.9301483,33.0596489 L81.9301483,4.42697237 C81.9301483,3.99133002 81.6923729,3.58256891 81.3121557,3.37029026 L75.3902465,0.060018084 C75.2971321,0.00819548903 75.1940411,-0.000949674799 75.0909502,7.35094126e-05 L75.0909502,7.35094126e-05 Z M11.0858885,14.3367273 C10.896057,14.3444869 10.7178649,14.3774649 10.5474323,14.4763989 L0.59804832,20.2187304 C0.227029857,20.4318749 -0.00123113394,20.8275766 4.99527274e-06,21.2554594 L0.0202402421,36.6689403 C0.0202402421,36.8834359 0.131090713,37.0824125 0.319536513,37.1871662 C0.504379673,37.2980167 0.733563021,37.2980167 0.917574802,37.1871662 L6.81953098,33.7973588 C7.19365132,33.5756579 7.43752236,33.1887897 7.43752236,32.7609069 L7.43752236,25.5625545 C7.43752236,25.1330089 7.66338019,24.7394897 8.0361149,24.5261026 L10.5485408,23.0706359 C10.73009,22.9650602 10.9365667,22.9099487 11.1465791,22.9110112 C11.3567027,22.9097641 11.5633165,22.9648866 11.7448945,23.0706359 L14.2562119,24.5252712 C14.6283924,24.7386584 14.8542502,25.1327318 14.8542502,25.5617231 L14.8542502,32.7597984 C14.8542502,33.1882355 15.1036638,33.5773206 15.4722416,33.7962503 L21.3741978,37.1860577 C21.5598723,37.2969082 21.7885014,37.2969082 21.9722361,37.1860577 C22.1551393,37.0807498 22.2715323,36.8820503 22.2715323,36.6678318 L22.2915042,21.2549052 C22.2938904,20.8267134 22.0653157,20.4304678 21.6934471,20.2181762 L11.7440631,14.4761218 C11.5758476,14.3774649 11.396824,14.3442097 11.205607,14.3364502 L11.0864427,14.3364502 L11.0858885,14.3367273 Z M100.493444,14.4763944 C100.283407,14.4758207 100.076965,14.5308973 99.8951286,14.6360236 L89.9454675,20.3786322 C89.5741184,20.593405 89.346875,20.9860928 89.346875,21.4150841 L89.346875,32.9000243 C89.346875,33.3317868 89.5901918,33.723089 89.9648663,33.9364762 L99.8347151,39.5621375 C100.199136,39.7699822 100.643924,39.7857784 101.011116,39.5815364 L106.992884,36.2515882 C107.182716,36.1462803 107.311025,35.9495207 107.311579,35.7333623 C107.312134,35.5172039 107.199898,35.3226613 107.012283,35.2151363 L97.0024856,29.4725277 C96.8151483,29.365557 96.6837905,29.1491215 96.6837905,28.9340715 L96.6837905,25.3427934 C96.6837905,25.1282978 96.8168111,24.9315382 97.0024856,24.8245675 L100.11295,23.0298984 C100.29807,22.9229276 100.525314,22.9229276 100.711542,23.0298984 L103.823392,24.8245675 C104.008858,24.9311151 104.122982,25.1289015 104.122411,25.3427934 L104.122411,28.1741916 C104.121841,28.3880835 104.235964,28.5858699 104.42143,28.6924175 C104.607936,28.7999425 104.833794,28.8004967 105.020023,28.6924175 L110.981561,25.2236292 C111.351525,25.0085793 111.580154,24.614783 111.580154,24.1871773 L111.580154,21.4159155 C111.580154,20.9882824 111.352122,20.593102 110.981838,20.3791865 L101.092037,14.6365778 C100.910251,14.5313281 100.703776,14.4763944 100.493721,14.4769532 L100.493444,14.4763944 Z M70.743949,23.0506828 C70.799622,23.0504364 70.8544803,23.0640558 70.9035737,23.0903119 L74.313057,25.0642816 C74.4056172,25.117767 74.4726817,25.216701 74.4726817,25.3233946 L74.4726817,29.2713341 C74.4726817,29.3785819 74.4061714,29.4772388 74.313057,29.5304471 L70.9035737,31.5044168 C70.8107364,31.5570708 70.6973918,31.5570708 70.6042774,31.5044168 L67.1947941,29.5304471 C67.1019568,29.4769617 67.0351694,29.3780277 67.0351694,29.2713341 L67.0351694,25.3228403 C67.0351694,25.2158696 67.1022339,25.117767 67.1947941,25.0637274 L70.6042774,23.0900347 C70.6508346,23.0631535 70.6918493,23.0504057 70.743949,23.0504057 L70.743949,23.0501286 L70.743949,23.0506828 Z" id="Shape" fill="#404137"></path>
            <path d="M40.9750551,14.4162625 C40.764958,14.4159747 40.5584817,14.4709588 40.3764626,14.5758872 L30.4268015,20.2985428 C30.0548981,20.5130384 29.8287589,20.9262335 29.8287589,21.3552249 L29.8287589,32.840165 C29.8276216,33.2679489 30.0558692,33.6635216 30.4268015,33.8766169 L40.3764626,39.6192255 C40.7463534,39.8339101 41.2029254,39.8339101 41.5728163,39.6192255 L51.5224774,33.8766169 C51.8931809,33.6631209 52.1214004,33.2676743 52.120794,32.8398879 L52.120794,21.3549477 C52.120794,20.9254022 51.8946578,20.5124842 51.5222003,20.2982656 L41.5725392,14.5756101 C41.3907239,14.4701888 41.1841123,14.4150924 40.9739466,14.4159747 L40.9750551,14.4162625 Z M100.474045,24.6652199 C100.434416,24.6652199 100.390353,24.6652199 100.354327,24.6846188 L98.4402162,25.8014372 C98.3676312,25.8417519 98.3220136,25.9176756 98.3204977,26.000691 L98.3204977,28.1941447 C98.3204977,28.2767283 98.3684405,28.3521066 98.4402162,28.3936755 L100.354327,29.4902638 C100.421389,29.5318128 100.506194,29.5318128 100.573256,29.4902638 L102.487367,28.3936755 C102.558311,28.352938 102.607085,28.2767283 102.607085,28.1941447 L102.607085,26.000691 C102.607085,25.9181074 102.558588,25.842729 102.487367,25.8011601 L100.573256,24.6843416 C100.537784,24.66328 100.513397,24.6649119 100.473491,24.6649119 L100.474045,24.6652199 Z" id="Shape" fill="#83CD29"></path>
        </g>
    </g>
</svg>