<?xml version="1.0" encoding="UTF-8"?>
<svg width="67px" height="45.9428137px" viewBox="0 0 67 45.9428137" version="1.1" xmlns="http://www.w3.org/2000/svg" xmlns:xlink="http://www.w3.org/1999/xlink">
    <title>php</title>
    <defs>
        <path d="M0,14.9554524 C0,14.9554524 3.24743607,18.5207418 5.49658031,19.998356 C6.21317292,20.4687008 11.5429051,23.2504185 14.9654275,13.6765684 C16.8378285,8.43468246 16.869103,4.5299377 12.6130774,2.86469003 C10.0644863,1.86725636 10.9753621,0 10.9753621,0" id="path-1"></path>
        <linearGradient x1="86.1204223%" y1="23.8259802%" x2="169.417319%" y2="-55.113331%" id="linearGradient-3">
            <stop stop-color="#8C9BD6" offset="0%"></stop>
            <stop stop-color="#505E9B" offset="100%"></stop>
        </linearGradient>
        <path d="M-1.15625941e-14,1.67861404 L6.82038109,1.67861404 C7.39272965,1.67861404 7.85625317,1.30208598 7.85625317,0.839054823 L7.85625317,0.839054823 C7.85625317,0.375771472 7.39272965,-1.14685289e-14 6.82038109,-1.14685289e-14 L1.46710404,-1.14685289e-14 L-1.15625941e-14,1.67861404 Z" id="path-4"></path>
        <linearGradient x1="-146.394589%" y1="81.8550076%" x2="137.78853%" y2="36.9715673%" id="linearGradient-6">
            <stop stop-color="#808FD0" offset="0%"></stop>
            <stop stop-color="#505E9B" offset="100%"></stop>
        </linearGradient>
        <path d="M14.8879278,18.0393256 L14.8879278,4.52617999 C14.8879278,1.19417147 11.554525,0 7.44348077,0 L7.44348077,0 C3.33175006,0 0,1.19417147 0,4.52617999 L0,18.1987133" id="path-7"></path>
        <linearGradient x1="28.3886804%" y1="76.1034685%" x2="127.486043%" y2="-13.4372952%" id="linearGradient-9">
            <stop stop-color="#8C9BD6" offset="0%"></stop>
            <stop stop-color="#505E9B" offset="100%"></stop>
        </linearGradient>
        <path d="M14.8889448,18.0389978 L14.8889448,4.52610433 C14.8889448,1.19359142 11.5557963,-2.86713224e-15 7.44459954,-2.86713224e-15 L7.44459954,-2.86713224e-15 C3.33314851,-2.86713224e-15 -5.78129703e-15,1.19359142 -5.78129703e-15,4.52610433 L-5.78129703e-15,18.1983854" id="path-10"></path>
        <linearGradient x1="-36.7065805%" y1="134.912791%" x2="62.4000939%" y2="45.3712455%" id="linearGradient-12">
            <stop stop-color="#8C9BD6" offset="0%"></stop>
            <stop stop-color="#505E9B" offset="100%"></stop>
        </linearGradient>
        <path d="M2.66200759,13.5721594 C5.56135607,8.89645264 5.25242515,4.94656486 1.38928848,2.87603883 C-0.923625204,1.63574078 0.349678718,0 0.349678718,0" id="path-13"></path>
        <linearGradient x1="59.5103405%" y1="24.9256727%" x2="112.905711%" y2="-91.6194069%" id="linearGradient-15">
            <stop stop-color="#808FD0" offset="0%"></stop>
            <stop stop-color="#505E9B" offset="100%"></stop>
        </linearGradient>
        <path d="M39.3670367,40.5099048 C39.3670367,40.5099048 34.5533082,40.5661444 16.9652733,39.9881121 C-0.62175488,39.4103319 0.0273130531,33.155124 -4.51663831e-16,24.171916 L-4.51663831e-16,2.56480422 C-4.51663831e-16,0.737193013 1.59660077,2.86713224e-15 3.56664689,2.86713224e-15 C5.5364057,2.86713224e-15 7.13539655,0.737193013 7.13539655,2.56480422 C7.13539655,2.56480422 7.58958857,8.73880516 7.98171472,12.4945023 C8.85892597,26.1385375 25.4643825,10.2509701 37.5355722,10.9924252 C48.5047811,11.6667963 57.1431508,15.4222413 57.1431508,24.347192 C57.1431508,33.2741603 51.4819599,40.5099048 39.3670367,40.5099048 Z" id="path-16"></path>
        <linearGradient x1="38.8446606%" y1="51.8784096%" x2="77.7889344%" y2="31.4700012%" id="linearGradient-18">
            <stop stop-color="#8C9BD6" offset="0%"></stop>
            <stop stop-color="#505E9B" offset="100%"></stop>
        </linearGradient>
        <path d="M0.0196867068,20.8172351 C0.0384590277,18.7880692 -0.249276435,1.06426551 0.879318142,0 C0.524739181,0.784832765 1.30044311,17.9555715 1.29051155,19.0347165 L1.28008164,19.6662143 C1.28008164,19.9668315 1.28008164,20.2631614 1.28008164,20.5582302 C0.845053507,20.7176179 0.422835202,20.9135739 0.0152167433,21.1377758 L0.0196867068,20.8172351 Z" id="path-19"></path>
        <linearGradient x1="47.2878516%" y1="115.782378%" x2="51.5439481%" y2="15.0143769%" id="linearGradient-21">
            <stop stop-color="#FAFAFD" offset="0%"></stop>
            <stop stop-color="#8892D2" offset="100%"></stop>
        </linearGradient>
        <path d="M38.8615676,16.7117427 C38.8615676,16.7117427 34.1523416,16.7667213 16.9438722,16.2012987 C-0.263862298,15.6358762 2.89064852e-15,9.34712621 2.89064852e-15,0.892520294 L0.00380918248,0.579797727 C0.402091062,0.355595822 0.814873626,0.159639827 1.23848021,0 C1.24245436,8.00141039 1.58550499,13.8722722 18.1827996,14.4175191 C35.3906079,14.9829417 40.1013595,14.9279631 40.1013595,14.9279631 C46.6822238,14.9279631 51.2127021,12.7242777 54.0335084,9.28609487 C51.4364545,13.73533 46.5194947,16.7117427 38.8615676,16.7117427 L38.8615676,16.7117427 Z" id="path-22"></path>
        <linearGradient x1="28.6438964%" y1="57.6120331%" x2="60.418779%" y2="43.4042482%" id="linearGradient-24">
            <stop stop-color="#FAFAFD" offset="0%"></stop>
            <stop stop-color="#8892D2" offset="100%"></stop>
        </linearGradient>
        <path d="M14.8890719,14.1519824 L14.8890719,4.52870194 C14.8890719,1.19666821 11.5549064,-5.73426447e-15 7.44370961,-5.73426447e-15 L7.44370961,-5.73426447e-15 C3.33236029,-5.73426447e-15 -5.78129703e-15,1.19666821 -5.78129703e-15,4.52870194 L-5.78129703e-15,19.1759713" id="path-25"></path>
        <linearGradient x1="10.1967648%" y1="81.4535464%" x2="99.4114044%" y2="-3.47979447%" id="linearGradient-27">
            <stop stop-color="#8C9BD6" offset="0%"></stop>
            <stop stop-color="#505E9B" offset="100%"></stop>
        </linearGradient>
        <path d="M14.8886905,20.387746 L14.8886905,4.52766794 C14.8886905,1.19586118 11.5547792,-5.73426447e-15 7.44358248,-5.73426447e-15 L7.44358248,-5.73426447e-15 C3.33187719,-5.73426447e-15 0,1.19586118 0,4.52766794 L0,13.6402522" id="path-28"></path>
        <linearGradient x1="-31.1075875%" y1="138.359248%" x2="48.08932%" y2="58.196336%" id="linearGradient-30">
            <stop stop-color="#8C9BD6" offset="0%"></stop>
            <stop stop-color="#505E9B" offset="100%"></stop>
        </linearGradient>
        <path d="M-2.89064852e-15,18.2756077 C-2.89064852e-15,18.2756077 4.36131639,21.2497506 7.116014,22.2691253 C7.99401347,22.5942055 14.3288263,24.254157 15.3557992,13.4047015 C15.9172144,7.46423372 14.9062602,3.36126321 9.99514848,2.61804272 C7.05613479,2.17266525 7.51121674,-1.14685289e-14 7.51121674,-1.14685289e-14" id="path-31"></path>
        <linearGradient x1="67.1904906%" y1="35.7991901%" x2="134.446745%" y2="-36.5584957%" id="linearGradient-33">
            <stop stop-color="#8C9BD6" offset="0%"></stop>
            <stop stop-color="#505E9B" offset="100%"></stop>
        </linearGradient>
        <path d="M5.64409345,3.2132434 C10.5821826,6.27615919 13.3235313,4.7100244 13.3235313,4.7100244 C11.1764233,6.65722677 8.76111745,6.01185818 8.22695936,5.81312804 C5.48169494,4.79375335 0.179880959,1.0264552 0.179880959,1.0264552 C0.179880959,1.0264552 -0.537016763,-0.234775093 0.891540839,0.0388571529 C0.891540839,0.0388571529 3.99892823,2.19210334 5.64409345,3.2132434 L5.64409345,3.2132434 Z" id="path-34"></path>
        <linearGradient x1="20.6558842%" y1="67.4815965%" x2="152.354605%" y2="-19.3397659%" id="linearGradient-36">
            <stop stop-color="#FAFAFD" offset="0%"></stop>
            <stop stop-color="#8892D2" offset="100%"></stop>
        </linearGradient>
    </defs>
    <g id="Page-1" stroke="none" stroke-width="1" fill="none" fill-rule="evenodd">
        <g id="php">
            <g id="g14" transform="translate(17.409169, 10.894132) scale(-1, 1) rotate(-180.000000) translate(-17.409169, -10.894132) translate(9.323154, 0.527280)">
                <g id="g16-Clipped" transform="translate(0.000000, 0.000000)">
                    <mask id="mask-2" fill="white">
                        <use xlink:href="#path-1"></use>
                    </mask>
                    <g id="path18"></g>
                    <g id="g16" mask="url(#mask-2)" fill="url(#linearGradient-3)" fill-rule="nonzero">
                        <path d="M0,14.9554524 C0,14.9554524 3.24743607,18.5207418 5.49658031,19.998356 C6.21317292,20.4687008 11.5429051,23.2504185 14.9654275,13.6765684 C16.8378285,8.43468246 16.869103,4.5299377 12.6130774,2.86469003 C10.0644863,1.86725636 10.9753621,0 10.9753621,0" id="path28"></path>
                    </g>
                </g>
            </g>
            <path d="M14.5086419,0.828346053 C12.2271299,2.32714465 9.041963,5.81223536 8.90758453,5.95951824 C8.7084448,6.17867498 8.73178624,6.51182666 8.96113256,6.70248655 C9.18986845,6.89289299 9.53749851,6.87095197 9.73691781,6.65154177 C9.76931113,6.61598219 12.9657926,3.11853452 15.1313856,1.69640276 C15.1962485,1.65302575 16.7760677,0.639199335 18.7001353,1.24925992 C20.7235177,1.89109905 22.4763651,4.14093496 23.7677459,7.75464544 C25.8235745,13.5084886 25.2138745,16.5461849 21.7284471,17.9087979 C20.7229341,18.3032331 20.0609314,18.8731946 19.7614839,19.6063273 C19.3662811,20.5732453 19.782537,21.4465981 19.8005141,21.4839243 C19.9276468,21.7459549 20.2506379,21.8571732 20.5249628,21.7371275 C20.800001,21.6183433 20.9220725,21.3073861 20.7994918,21.0433373 C20.7974132,21.0382871 20.5623148,20.5202842 20.7914634,19.9775599 C20.9798731,19.5296604 21.4350562,19.1606976 22.1447334,18.8837868 C27.4028141,16.8256189 26.3300744,11.6730089 24.8083283,7.41342475 C23.3809911,3.42041269 21.4427108,1.01093506 19.0467794,0.250313681 C16.6517129,-0.509551106 14.7203988,0.689890655 14.5086476,0.828346053" id="path30" fill="#363254" fill-rule="nonzero"></path>
            <g id="g34-Clipped" transform="translate(56.921349, 9.209311) scale(-1, 1) rotate(-180.000000) translate(-56.921349, -9.209311) translate(52.993222, 8.370004)">
                <mask id="mask-5" fill="white">
                    <use xlink:href="#path-4"></use>
                </mask>
                <g id="path36"></g>
                <g id="g34" mask="url(#mask-5)" fill="url(#linearGradient-6)" fill-rule="nonzero">
                    <path d="M-1.15625941e-14,1.67861404 L6.82038109,1.67861404 C7.39272965,1.67861404 7.85625317,1.30208598 7.85625317,0.839054823 L7.85625317,0.839054823 C7.85625317,0.375771472 7.39272965,-1.14685289e-14 6.82038109,-1.14685289e-14 L1.46710404,-1.14685289e-14 L-1.15625941e-14,1.67861404" id="path46"></path>
                </g>
            </g>
            <path d="M59.8136026,8.89608346 C60.0999053,8.89608346 60.2989942,9.06152442 60.2989942,9.209562 C60.2989942,9.35734989 60.0999053,9.52278896 59.8136026,9.52278896 C59.8136026,9.52278896 55.1839618,9.52278896 54.7173865,9.52278896 C54.6077999,9.39820558 54.4437996,9.20880541 54.1702107,8.89608346 C55.7819911,8.89608346 59.8136026,8.89608346 59.8136026,8.89608346 Z M51.8167425,7.84392269 L54.2032644,10.5752013 L59.8136026,10.5752013 C60.6885255,10.5752013 61.3994481,9.96261939 61.3994481,9.209562 C61.3994481,8.45625492 60.6885255,7.84392269 59.8136026,7.84392269 L51.8167425,7.84392269" id="path48" fill="#363254" fill-rule="nonzero"></path>
            <path d="M61.9242493,6.41851301 C62.8619767,5.97540656 63.9578538,6.08385005 64.3745921,6.66036925 C64.7892976,7.23840162 64.3659535,8.0638379 63.4284759,8.50871098 C62.4925296,8.95131431 60.0388819,9.48672625 59.6229045,8.90793729 C59.2064199,8.33141809 60.9880493,6.86136979 61.9242493,6.41851301" id="path50" fill="#8B9DD7" fill-rule="nonzero"></path>
            <path d="M62.1673264,6.89012009 L62.1673264,6.89012009 C62.8947768,6.54662965 63.6934185,6.64347277 63.9212398,6.95947263 C63.9845516,7.04799329 63.9992983,7.14962939 63.9662446,7.27118642 C63.9075095,7.49059662 63.6707903,7.80684993 63.1838751,8.03760893 C62.2797105,8.46482895 60.6740325,8.71551077 60.1779638,8.59445687 C60.361034,8.18665654 61.365378,7.26992671 62.1673264,6.89012009 L62.1673264,6.89012009 Z M61.6806649,5.94715939 L61.6806649,5.94715939 C60.8965142,6.31713037 59.3017689,7.49664931 59.0495402,8.4290178 L59.1705686,9.20653565 C59.9239539,10.2561751 62.9634281,9.31573761 63.6720603,8.98006461 C64.3778988,8.64590477 64.8732047,8.11932031 65.0313564,7.53523524 C65.1445052,7.1188609 65.0720399,6.70248655 64.8271836,6.36227402 C64.2528009,5.56634463 62.8716374,5.38425876 61.6806649,5.94715939" id="path52" fill="#363254" fill-rule="nonzero"></path>
            <path d="M63.5901879,9.82466712 C64.5955483,10.1575653 65.1554379,10.9285274 64.8452351,11.5474154 C64.5322365,12.1670601 63.4655991,12.3970625 62.4610015,12.0631561 C61.4579295,11.7310145 59.4403435,10.4786116 59.7518165,9.86048016 C60.0645614,9.23957391 62.5871159,9.4917689 63.5901879,9.82466712" id="path54" fill="#8B9DD7" fill-rule="nonzero"></path>
            <path d="M63.4099153,10.3214931 L63.4104874,10.3214931 C63.9505425,10.5013092 64.2462523,10.8001611 64.3421105,11.0205794 C64.4150831,11.1890467 64.3657571,11.2879061 64.3489757,11.3201878 C64.1837033,11.6485465 63.417097,11.8235696 62.6413371,11.5660785 C61.7547186,11.2727744 60.5627277,10.44633 60.3382131,10.0660183 C60.7541886,9.9278164 62.4399599,9.99943869 63.4099782,10.3214931 L63.4099153,10.3214931 Z M59.2565106,9.63224249 L59.2570826,10.3956387 C59.6443257,11.2879061 61.4312947,12.2792884 62.281299,12.5609903 C63.5597391,12.9859405 64.9042885,12.6411885 65.3403503,11.7774178 C65.4331573,11.5910459 65.479434,11.3910554 65.479434,11.1882901 C65.479434,10.9971252 65.4387505,10.803944 65.3568781,10.6147973 C65.1104961,10.0486168 64.5322995,9.58028956 63.7700162,9.32809457 C63.0095122,9.07514299 59.8312098,8.4905529 59.2565735,9.63224249" id="path56" fill="#363254" fill-rule="nonzero"></path>
            <path d="M63.7371532,7.91731161 C65.2289196,7.90772187 66.444048,8.44086973 66.4496768,9.10944096 C66.4570231,9.77775874 65.254601,10.3270408 63.7620698,10.3366249 C62.2725918,10.3467064 58.8969817,9.82895508 58.8901061,9.16114044 C58.8832514,8.49181451 62.2474196,7.92840885 63.7371532,7.91731161" id="path58" fill="#8B9DD7" fill-rule="nonzero"></path>
            <path d="M65.8996697,9.11448551 C65.8996697,9.139956 65.8757676,9.18963917 65.8088974,9.25470564 C65.5393762,9.51774631 64.7816697,9.80373615 63.758765,9.81029197 C62.4795621,9.81886032 60.4561294,9.47462086 59.677572,9.15508774 C60.4505343,8.82370269 62.4640527,8.45221853 63.7414744,8.44364451 L63.7409023,8.44364451 C65.1535939,8.43431958 65.8983329,8.93769574 65.8996049,9.11448551 L65.8996697,9.11448551 Z M63.7338465,7.39072715 L63.7330837,7.39072715 C62.6494112,7.39853891 59.43119,7.77709148 58.605595,8.57957859 L58.3403969,9.16643654 C58.3556527,10.7134051 63.7119811,10.8632093 63.7661393,10.8632093 C64.966519,10.8548869 66.0501934,10.5217371 66.5938108,9.99288287 C66.8633302,9.73085035 67.0034303,9.4241811 66.9999362,9.10414485 C66.9914793,8.10015407 65.6176901,7.37912678 63.7338465,7.39072715" id="path60" fill="#363254" fill-rule="nonzero"></path>
            <g id="g64-Clipped" transform="translate(21.799463, 34.005575) scale(-1, 1) rotate(-180.000000) translate(-21.799463, -34.005575) translate(14.355499, 24.906218)">
                <mask id="mask-8" fill="white">
                    <use xlink:href="#path-7"></use>
                </mask>
                <g id="path66"></g>
                <g id="g64" mask="url(#mask-8)" fill="url(#linearGradient-9)" fill-rule="nonzero">
                    <path d="M14.8879278,18.0393256 L14.8879278,4.52617999 C14.8879278,1.19417147 11.554525,0 7.44348077,0 L7.44348077,0 C3.33175006,0 0,1.19417147 0,4.52617999 L0,18.1987133" id="path76"></path>
                </g>
            </g>
            <path d="M13.8055507,24.9062183 L13.8055507,38.5787513 C13.8055507,41.837371 16.6435706,43.6312895 21.7989787,43.6312895 C26.9542865,43.6312895 29.7933998,41.837371 29.7933998,38.5787513 L29.7933998,25.0656066 C29.7933998,24.7748238 29.5470179,24.5390221 29.2434265,24.5390221 C28.9395815,24.5390221 28.6934532,24.7748238 28.6934532,25.0656066 L28.6934532,38.5787513 C28.6934532,41.8850359 24.9448109,42.5785745 21.7989787,42.5785745 C18.6543424,42.5785745 14.90565,41.8850359 14.90565,38.5787513 L14.90565,24.9062183 C14.90565,24.6159405 14.6591154,24.3801389 14.3554987,24.3801389 C14.051958,24.3801389 13.8055507,24.6159405 13.8055507,24.9062183" id="path78" fill="#363254" fill-rule="nonzero"></path>
            <path d="M17.6179109,38.5626114 C17.6179109,39.9105958 16.8300989,41.006387 15.8578437,41.006387 C14.8854869,41.006387 14.097446,39.9105958 14.097446,38.5626114 C14.097446,37.2121038 14.8854869,34.1630587 15.8578437,34.1630587 C16.8300989,34.1630587 17.6179109,37.2121038 17.6179109,38.5626114" id="path80" fill="#8B9DD7" fill-rule="nonzero"></path>
            <path d="M14.2809992,38.5626114 C14.2809992,37.0940763 15.1159009,34.3383334 15.8578437,34.3383334 C16.5994812,34.3383334 17.4346627,37.0940763 17.4346627,38.5626114 C17.4346627,39.8140061 16.7277066,40.831362 15.8578437,40.831362 C14.9885655,40.831362 14.2809992,39.8140061 14.2809992,38.5626114 Z M13.9139182,38.5626114 C13.9139182,40.0069358 14.7856627,41.1824183 15.8578437,41.1824183 C16.9296178,41.1824183 17.8009811,40.0069358 17.8009811,38.5626114 C17.8009811,37.2433755 17.0268485,33.9870256 15.8578437,33.9870256 C14.6891185,33.9870256 13.9139182,37.2433755 13.9139182,38.5626114" id="path82" fill="#363254" fill-rule="nonzero"></path>
            <path d="M14.5716232,38.8062324 C14.5716232,37.5076759 15.5243255,35.1698224 16.2197634,35.1698224 C16.2864059,35.1698224 16.3516755,35.2028607 16.4145296,35.253047 C16.2407146,34.8414637 16.0415751,34.5690924 15.830612,34.5690924 C15.1346656,34.5690924 14.5716232,37.5081809 14.5716232,38.8062324" id="path84" fill="#A6BDE6" fill-rule="nonzero"></path>
            <path d="M18.4480579,39.8609145 C18.4480579,40.9024812 17.8217291,41.7470856 17.0485118,41.7470856 C16.2745826,41.7470856 15.6473639,40.9024812 15.6473639,39.8609145 C15.6473639,38.8163196 16.2745826,36.4638394 17.0485118,36.4638394 C17.8217291,36.4638394 18.4480579,38.8163196 18.4480579,39.8609145" id="path86" fill="#8B9DD7" fill-rule="nonzero"></path>
            <path d="M15.830612,39.8609145 C15.830612,38.7691596 16.4884442,36.6396191 17.0485118,36.6396191 C17.6086812,36.6396191 18.2645045,38.7691596 18.2645045,39.8609145 C18.2645045,40.8038733 17.7187266,41.5715574 17.0485118,41.5715574 C16.3765935,41.5715574 15.830612,40.8038733 15.830612,39.8609145 Z M15.4640394,39.8609145 C15.4640394,40.997308 16.1748856,41.9226137 17.0485118,41.9226137 C17.9208412,41.9226137 18.6314077,40.997308 18.6314077,39.8609145 C18.6314077,38.9716715 18.0697383,36.2883113 17.0485118,36.2883113 C16.0256834,36.2883113 15.4640394,38.9716715 15.4640394,39.8609145" id="path88" fill="#363254" fill-rule="nonzero"></path>
            <path d="M16.2361634,39.2405133 C16.1657321,38.4983015 16.8221659,37.2663246 17.3335673,37.1762908 C17.3814453,37.1699922 17.4306961,37.181341 17.4796674,37.2017632 C17.3297787,36.9884057 17.1601592,36.8184252 17.0148473,36.8850049 C16.5086073,37.1248429 16.1657321,38.5008229 16.2361634,39.2405133" id="path90" fill="#A6BDE6" fill-rule="nonzero"></path>
            <g id="g94-Clipped" transform="translate(44.573138, 34.170347) scale(-1, 1) rotate(-180.000000) translate(-44.573138, -34.170347) translate(37.128666, 25.071154)">
                <mask id="mask-11" fill="white">
                    <use xlink:href="#path-10"></use>
                </mask>
                <g id="path96"></g>
                <g id="g94" mask="url(#mask-11)" fill="url(#linearGradient-12)" fill-rule="nonzero">
                    <path d="M14.8889448,18.0389978 L14.8889448,4.52610433 C14.8889448,1.19359142 11.5557963,-2.86713224e-15 7.44459954,-2.86713224e-15 L7.44459954,-2.86713224e-15 C3.33314851,-2.86713224e-15 -5.78129703e-15,1.19359142 -5.78129703e-15,4.52610433 L-5.78129703e-15,18.1983854" id="path106"></path>
                </g>
            </g>
            <path d="M36.5784384,25.0711543 L36.5784384,38.7434357 C36.5784384,42.0012988 39.4178054,43.7958963 44.5732657,43.7958963 C46.8936802,43.7958963 48.7543846,43.4324831 50.1042735,42.7162734 C51.7155447,41.8608252 52.5675839,40.4873684 52.5675839,38.7434357 L52.5675839,25.2305425 C52.5675839,24.9400132 52.3212019,24.7044612 52.0176105,24.7044612 C51.7140191,24.7044612 51.4681464,24.9400132 51.4681464,25.2305425 L51.4681464,38.7434357 C51.4681464,40.1201703 50.8469778,41.1183619 49.5700633,41.7965153 C48.4019745,42.4156549 46.6745033,42.743257 44.5732657,42.743257 C41.428017,42.743257 37.6791478,42.0487103 37.6791478,38.7434357 L37.6791478,25.0711543 C37.6791478,24.7801199 37.4322567,24.5445698 37.1286653,24.5445698 C36.825074,24.5445698 36.5784384,24.7801199 36.5784384,25.0711543" id="path108" fill="#363254" fill-rule="nonzero"></path>
            <path d="M40.3918913,38.7270423 C40.3918913,40.0750286 39.6044359,41.1725827 38.6323828,41.1725827 C37.6585524,41.1725827 36.8713507,40.0750286 36.8713507,38.7270423 C36.8713507,37.3772913 37.6585524,34.3279947 38.6323828,34.3279947 C39.6044359,34.3279947 40.3918913,37.3772913 40.3918913,38.7270423" id="path110" fill="#7483CA" fill-rule="nonzero"></path>
            <path d="M37.0541672,38.7270423 C37.0541672,38.0377917 37.2629168,36.94755 37.5611686,36.0764669 C37.8929833,35.1062691 38.3036193,34.5032694 38.6323828,34.5032694 C39.3735634,34.5032694 40.2088211,37.2587588 40.2088211,38.7270423 C40.2088211,39.978942 39.5017125,40.996803 38.6323828,40.996803 C37.7620386,40.996803 37.0541672,39.978942 37.0541672,38.7270423 Z M37.2125725,35.967265 C36.9033879,36.86937 36.6875177,38.0047534 36.6875177,38.7270423 C36.6875177,40.1718717 37.5598986,41.3478593 38.6323828,41.3478593 C39.7038525,41.3478593 40.5752151,40.1718717 40.5752151,38.7270423 C40.5752151,37.4078064 39.8009808,34.1527181 38.6323828,34.1527181 C37.9718065,34.1527181 37.495824,35.1388023 37.2125725,35.967265" id="path112" fill="#363254" fill-rule="nonzero"></path>
            <path d="M37.3465703,38.972428 C37.3465703,37.6733684 38.2985353,35.3340018 38.9939464,35.3340018 C39.0608185,35.3340018 39.1259095,35.3680482 39.1889677,35.4174798 C39.0145418,35.0066531 38.8159622,34.7337768 38.6051778,34.7337768 C37.9087484,34.7337768 37.3465703,37.6733684 37.3465703,38.972428" id="path114" fill="#839AD6" fill-rule="nonzero"></path>
            <path d="M41.2225722,40.0250938 C41.2225722,41.0681737 40.5965733,41.9107599 39.8225945,41.9107599 C39.0493766,41.9107599 38.4223613,41.0681737 38.4223613,40.0250938 C38.4223613,38.9807505 39.0493766,36.6285219 39.8225945,36.6285219 C40.5965733,36.6285219 41.2225722,38.9807505 41.2225722,40.0250938" id="path116" fill="#7483CA" fill-rule="nonzero"></path>
            <path d="M38.6059406,40.0250938 C38.6059406,38.933339 39.2624494,36.8043035 39.8225945,36.8043035 C40.381975,36.8043035 41.0389929,38.933339 41.0389929,40.0250938 C41.0389929,40.9683042 40.4930891,41.7362399 39.8225945,41.7362399 C39.1513372,41.7362399 38.6059406,40.9683042 38.6059406,40.0250938 Z M38.2392911,40.0250938 C38.2392911,41.162747 38.9494508,42.0867931 39.8225945,42.0867931 C40.6957363,42.0867931 41.405896,41.162747 41.405896,40.0250938 C41.405896,39.1361043 40.8439736,36.4532472 39.8225945,36.4532472 C38.8004527,36.4532472 38.2392911,39.1361043 38.2392911,40.0250938" id="path118" fill="#363254" fill-rule="nonzero"></path>
            <path d="M39.0109834,39.4051957 C38.9395345,38.6637406 39.5962988,37.4320172 40.1078789,37.3414802 C40.1561884,37.3349168 40.2055163,37.3457738 40.2538259,37.3664476 C40.1040649,37.1530901 39.9344695,36.982858 39.7890317,37.0496892 C39.2825375,37.2895273 38.9395345,38.6652538 39.0109834,39.4051957" id="path120" fill="#839AD6" fill-rule="nonzero"></path>
            <g id="g124-Clipped" transform="translate(22.616575, 13.396010) scale(-1, 1) rotate(-180.000000) translate(-22.616575, -13.396010) translate(20.318410, 6.609930)">
                <mask id="mask-14" fill="white">
                    <use xlink:href="#path-13"></use>
                </mask>
                <g id="path126"></g>
                <g id="g124" mask="url(#mask-14)" fill="url(#linearGradient-15)" fill-rule="nonzero">
                    <path d="M2.66200759,13.5721594 C5.56135607,8.89645264 5.25242515,4.94656486 1.38928848,2.87603883 C-0.923625204,1.63574078 0.349678718,0 0.349678718,0" id="path136"></path>
                </g>
            </g>
            <path d="M22.7000158,6.15698741 C22.4383017,6.30553001 22.351597,6.6285926 22.5072315,6.87851783 C24.1212239,9.47991697 24.6987856,11.8359285 24.1784334,13.6903229 C23.8084543,15.0085488 22.8857558,16.0705452 21.4393221,16.8470549 C20.5249628,17.3368182 19.9795929,17.9546981 19.8173966,18.6825347 C19.5967207,19.6716453 20.2014892,20.4632886 20.2273975,20.496325 C20.4077731,20.728094 20.7481559,20.7750024 20.9921732,20.6047704 C21.2356317,20.4342849 21.2888498,20.1056746 21.1123645,19.8711327 C21.1096947,19.8665931 20.7744722,19.4113794 20.89535,18.8923608 C20.9921732,18.4772481 21.3561014,18.0981981 21.9764557,17.7652998 C23.6925613,16.8447852 24.7912608,15.5664049 25.2411825,13.9629458 C25.8398467,11.8281092 25.222494,9.19241395 23.4532733,6.34108959 C23.2985275,6.0909109 22.9603569,6.00894795 22.7000158,6.15698741" id="path138" fill="#080604" fill-rule="nonzero"></path>
            <g id="g142-Clipped" transform="translate(29.121719, 23.549277) scale(-1, 1) rotate(-180.000000) translate(-29.121719, -23.549277) translate(0.550144, 3.293579)">
                <mask id="mask-17" fill="white">
                    <use xlink:href="#path-16"></use>
                </mask>
                <g id="path144"></g>
                <g id="g142" mask="url(#mask-17)" fill="url(#linearGradient-18)" fill-rule="nonzero">
                    <path d="M39.3670367,40.5099048 C39.3670367,40.5099048 34.5533082,40.5661444 16.9652733,39.9881121 C-0.62175488,39.4103319 0.0273130531,33.155124 -4.51663831e-16,24.171916 L-4.51663831e-16,2.56480422 C-4.51663831e-16,0.737193013 1.59660077,2.86713224e-15 3.56664689,2.86713224e-15 C5.5364057,2.86713224e-15 7.13539655,0.737193013 7.13539655,2.56480422 C7.13539655,2.56480422 7.58958857,8.73880516 7.98171472,12.4945023 C8.85892597,26.1385375 25.4643825,10.2509701 37.5355722,10.9924252 C48.5047811,11.6667963 57.1431508,15.4222413 57.1431508,24.347192 C57.1431508,33.2741603 51.4819599,40.5099048 39.3670367,40.5099048" id="path154"></path>
                </g>
            </g>
            <path d="M1.10008902,41.2401724 L1.10008902,19.6330594 C1.10008902,19.6350832 1.10147921,18.6810215 1.10147921,18.6810215 C1.10445925,10.3716794 1.10684164,4.88213853 17.5339014,4.34244052 C34.8939391,3.77247715 39.8620042,3.82039558 39.9105693,3.82064714 L39.9171865,3.82064714 C45.4481943,3.82064714 49.9552792,5.40191371 52.9510205,8.39295319 C55.6937665,11.1302845 57.1433277,14.9563443 57.1433277,19.4577847 C57.1433277,29.0911519 46.7604509,31.7518164 38.0506335,32.2874799 C33.4665047,32.5684252 28.0593248,30.320354 23.2886169,28.3363316 C17.9409331,26.1129744 13.3226576,24.1930085 10.4792725,25.8597693 C8.97741055,26.7399333 8.16109566,28.5123629 7.98331411,31.278193 C7.59683256,34.9779028 7.14114037,41.1405545 7.13689428,41.2033512 C7.13559754,43.013612 5.24420282,43.2788959 4.11679563,43.2788959 C2.9904819,43.2788959 1.10008902,43.013612 1.10008902,41.2401724 L1.10008902,41.2401724 Z M17.4968558,3.2912879 C0.00695254776,3.86553733 0.00397287653,10.0796369 0.00139050765,18.6802649 L0,19.6315462 L0,41.2401724 C0,43.1755708 1.53919301,44.3323164 4.11679048,44.3323164 C6.69668163,44.3323164 8.23566606,43.1755708 8.23566606,41.2401724 C8.23884499,41.2147 8.69234988,35.0669266 9.07941611,31.3624257 C9.2352546,28.9446275 9.88083138,27.4453239 11.0537264,26.7570814 C13.4099412,25.3768154 17.9941455,27.2831627 22.8501067,29.3019881 C27.7351323,31.3331704 33.2714796,33.6357177 38.1210583,33.3376225 C51.0971737,32.5394233 58.2432686,27.6102598 58.2432686,19.4577847 C58.2432686,14.6801901 56.6876793,10.6024384 53.7453353,7.66436003 C50.5372841,4.46172779 45.7553384,2.76848637 39.9171808,2.76848637 L39.923798,2.76848637 C39.8757421,2.76791893 34.8954723,2.71830007 17.4968634,3.2912879" id="path156" fill="#363254" fill-rule="nonzero"></path>
            <g id="g158" transform="translate(1.655584, 30.473815) scale(-1, 1) rotate(-180.000000) translate(-1.655584, -30.473815) translate(1.010281, 19.904927)">
                <g id="g160-Clipped" transform="translate(-0.000000, 0.000000)">
                    <mask id="mask-20" fill="white">
                        <use xlink:href="#path-19"></use>
                    </mask>
                    <g id="path162"></g>
                    <g id="g160" mask="url(#mask-20)" fill="url(#linearGradient-21)" fill-rule="nonzero">
                        <path d="M0.0196867068,20.8172351 C0.0384590277,18.7880692 -0.249276435,1.06426551 0.879318142,0 C0.524739181,0.784832765 1.30044311,17.9555715 1.29051155,19.0347165 L1.28008164,19.6662143 C1.28008164,19.9668315 1.28008164,20.2631614 1.28008164,20.5582302 C0.845053507,20.7176179 0.422835202,20.9135739 0.0152167433,21.1377758 L0.0196867068,20.8172351" id="path172"></path>
                    </g>
                </g>
            </g>
            <g id="g176-Clipped" transform="translate(28.065756, 12.244639) scale(-1, 1) rotate(-180.000000) translate(-28.065756, -12.244639) translate(1.049002, 3.888039)">
                <mask id="mask-23" fill="white">
                    <use xlink:href="#path-22"></use>
                </mask>
                <g id="path178"></g>
                <g id="g176" mask="url(#mask-23)" fill="url(#linearGradient-24)" fill-rule="nonzero">
                    <path d="M38.8615676,16.7117427 C38.8615676,16.7117427 34.1523416,16.7667213 16.9438722,16.2012987 C-0.263862298,15.6358762 2.89064852e-15,9.34712621 2.89064852e-15,0.892520294 L0.00380918248,0.579797727 C0.402091062,0.355595822 0.814873626,0.159639827 1.23848021,0 C1.24245436,8.00141039 1.58550499,13.8722722 18.1827996,14.4175191 C35.3906079,14.9829417 40.1013595,14.9279631 40.1013595,14.9279631 C46.6822238,14.9279631 51.2127021,12.7242777 54.0335084,9.28609487 C51.4364545,13.73533 46.5194947,16.7117427 38.8615676,16.7117427" id="path188"></path>
                </g>
            </g>
            <g id="g190" transform="translate(26.472519, 35.829075) scale(-1, 1) rotate(-180.000000) translate(-26.472519, -35.829075) translate(19.027983, 26.241090)">
                <g id="g192-Clipped" transform="translate(-0.000000, -0.000000)">
                    <mask id="mask-26" fill="white">
                        <use xlink:href="#path-25"></use>
                    </mask>
                    <g id="path194"></g>
                    <g id="g192" mask="url(#mask-26)" fill="url(#linearGradient-27)" fill-rule="nonzero">
                        <path d="M14.8890719,14.1519824 L14.8890719,4.52870194 C14.8890719,1.19666821 11.5549064,-5.73426447e-15 7.44370961,-5.73426447e-15 L7.44370961,-5.73426447e-15 C3.33236029,-5.73426447e-15 -5.78129703e-15,1.19666821 -5.78129703e-15,4.52870194 L-5.78129703e-15,19.1759713" id="path204"></path>
                    </g>
                </g>
            </g>
            <path d="M18.4779594,26.2410891 L18.4779594,40.8883595 C18.4779594,44.1479873 21.3175556,45.9428137 26.4716925,45.9428137 C31.6274064,45.9428137 34.4672826,44.1479873 34.4672826,40.8883595 L34.4672826,31.2650775 C34.4672826,30.9745482 34.2203934,30.7387465 33.9170556,30.7387465 C33.6137179,30.7387465 33.3670823,30.9745482 33.3670823,31.2650775 L33.3670823,40.8883595 C33.3670823,44.1963578 29.617704,44.8905016 26.4716925,44.8905016 C23.3272333,44.8905016 19.5780323,44.1963578 19.5780323,40.8883595 L19.5780323,26.2410891 C19.5780323,25.9505598 19.3316256,25.7150097 19.0279835,25.7150097 C18.7242651,25.7150097 18.4779594,25.9505598 18.4779594,26.2410891" id="path206" fill="#363254" fill-rule="nonzero"></path>
            <path d="M23.7108168,41.8217342 C23.7108168,43.0751717 22.6597137,44.0917483 21.3617728,44.0917483 C20.0639311,44.0917483 19.0123971,43.0751717 19.0123971,41.8217342 C19.0123971,40.56681 20.0639311,37.7341488 21.3617728,37.7341488 C22.6597137,37.7341488 23.7108168,40.56681 23.7108168,41.8217342" id="path208" fill="#8B9DD7" fill-rule="nonzero"></path>
            <path d="M19.1958485,41.8217342 C19.1958485,40.5998464 20.243111,37.9089204 21.3617728,37.9089204 C22.4805337,37.9089204 23.5277714,40.5998464 23.5277714,41.8217342 C23.5277714,42.9772448 22.556813,43.9164963 21.3617728,43.9164963 C20.1682048,43.9164963 19.1958485,42.9772448 19.1958485,41.8217342 Z M18.8288439,41.8217342 C18.8288439,43.1699474 19.9650999,44.267301 21.3617728,44.267301 C22.7586231,44.267301 23.8946746,43.1699474 23.8946746,41.8217342 C23.8946746,40.5504167 22.8257736,37.5576106 21.3617728,37.5576106 C19.8990421,37.5576106 18.8288439,40.5504167 18.8288439,41.8217342" id="path210" fill="#363254" fill-rule="nonzero"></path>
            <path d="M19.4135743,41.9717919 C19.4135743,40.8492685 20.7288839,38.8327129 21.6912228,38.8327129 C21.7828838,38.8327129 21.8718769,38.8614632 21.960767,38.9053453 C21.7183268,38.5507576 21.4446883,38.3147025 21.1540892,38.3147025 C20.1913441,38.3147025 19.4135743,40.8507817 19.4135743,41.9717919" id="path212" fill="#A6BDE6" fill-rule="nonzero"></path>
            <path d="M25.6247393,41.9992806 C25.6247393,43.652474 24.5359809,44.9976854 23.192753,44.9976854 C21.8475438,44.9976854 20.7587854,43.652474 20.7587854,41.9992806 C20.7587854,40.3438685 21.8475438,36.6055727 23.192753,36.6055727 C24.5359809,36.6055727 25.6247393,40.3438685 25.6247393,41.9992806" id="path214" fill="#8B9DD7" fill-rule="nonzero"></path>
            <path d="M20.9419318,41.9992806 C20.9419318,40.3688358 22.0306902,36.7805959 23.192753,36.7805959 C24.3545373,36.7805959 25.4416691,40.3688358 25.4416691,41.9992806 C25.4416691,43.5553282 24.4330039,44.8218281 23.192753,44.8218281 C21.9521226,44.8218281 20.9419318,43.5553282 20.9419318,41.9992806 Z M20.5753338,41.9992806 C20.5753338,43.7490144 21.7497023,45.1731379 23.192753,45.1731379 C24.6352202,45.1731379 25.8083186,43.7490144 25.8083186,41.9992806 C25.8083186,40.3375642 24.7037437,36.4305496 23.192753,36.4305496 C21.6811788,36.4305496 20.5753338,40.3375642 20.5753338,41.9992806" id="path216" fill="#363254" fill-rule="nonzero"></path>
            <path d="M21.4147106,42.2991405 C21.4147106,40.705012 22.7313151,37.8400709 23.6925613,37.8400709 C23.7841212,37.8400709 23.874411,37.8814298 23.9619033,37.9424617 C23.721166,37.4365567 23.4458227,37.1031553 23.1554277,37.1031553 C22.1925796,37.1031553 21.4147106,40.7072817 21.4147106,42.2991405" id="path218" fill="#A6BDE6" fill-rule="nonzero"></path>
            <path d="M26.9014002,42.8895809 C26.9014002,44.0599206 26.1177568,45.0085046 25.1506886,45.0085046 C24.1840018,45.0085046 23.4002325,44.0599206 23.4002325,42.8895809 C23.4002325,41.7135423 24.1840018,39.0685146 25.1506886,39.0685146 C26.1177568,39.0685146 26.9014002,41.7135423 26.9014002,42.8895809" id="path220" fill="#8B9DD7" fill-rule="nonzero"></path>
            <path d="M23.5835831,42.8895809 C23.5835831,41.6219953 24.4148227,39.2437912 25.1506886,39.2437912 C25.8884118,39.2437912 26.7180744,41.6219953 26.7180744,42.8895809 C26.7180744,43.9618915 26.0155426,44.8326738 25.1506886,44.8326738 C24.2868014,44.8326738 23.5835831,43.9618915 23.5835831,42.8895809 Z M23.2168077,42.8895809 C23.2168077,44.1547966 24.0850676,45.1839571 25.1506886,45.1839571 C26.2181918,45.1839571 27.0844703,44.1547966 27.0844703,42.8895809 C27.0844703,41.7372499 26.31405,38.8932399 25.1506886,38.8932399 C23.9878382,38.8932399 23.2168077,41.7372499 23.2168077,42.8895809" id="path222" fill="#363254" fill-rule="nonzero"></path>
            <path d="M24.1365313,42.190697 C24.0478185,41.3549201 24.8683295,39.969358 25.5075229,39.8692369 C25.5677835,39.8596472 25.6290624,39.8737765 25.6908486,39.8967256 C25.5032017,39.6558794 25.2911454,39.4649661 25.109473,39.5408782 C24.4759987,39.8107263 24.0478185,41.3576949 24.1365313,42.190697" id="path224" fill="#A6BDE6" fill-rule="nonzero"></path>
            <g id="g228-Clipped" transform="translate(49.254522, 34.845878) scale(-1, 1) rotate(-180.000000) translate(-49.254522, -34.845878) translate(41.810177, 24.652005)">
                <mask id="mask-29" fill="white">
                    <use xlink:href="#path-28"></use>
                </mask>
                <g id="path230"></g>
                <g id="g228" mask="url(#mask-29)" fill="url(#linearGradient-30)" fill-rule="nonzero">
                    <path d="M14.8886905,20.387746 L14.8886905,4.52766794 C14.8886905,1.19586118 11.5547792,-5.73426447e-15 7.44358248,-5.73426447e-15 L7.44358248,-5.73426447e-15 C3.33187719,-5.73426447e-15 0,1.19586118 0,4.52766794 L0,13.6402522" id="path240"></path>
                </g>
            </g>
            <path d="M56.1481315,24.6520051 L56.1481315,40.5120823 C56.1481315,43.8196532 52.3987531,44.5133942 49.25376,44.5133942 C46.1095296,44.5133942 42.3604049,43.8196532 42.3604049,40.5120823 L42.3604049,31.3994984 C42.3604049,31.1089691 42.1140229,30.872914 41.810176,30.872914 C41.5065846,30.872914 41.2602027,31.1089691 41.2602027,31.3994984 L41.2602027,40.5120823 C41.2602027,43.7711824 44.0990624,45.5665877 49.25376,45.5665877 C54.4089647,45.5665877 57.2483317,43.7711824 57.2483317,40.5120823 L57.2483317,24.6520051 C57.2483317,24.3612242 57.002459,24.1261773 56.6988676,24.1261773 C56.394767,24.1261773 56.1481315,24.3612242 56.1481315,24.6520051" id="path242" fill="#363254" fill-rule="nonzero"></path>
            <path d="M46.4932142,41.4452074 C46.4932142,42.6978618 45.4415771,43.714236 44.1438136,43.714236 C42.8460481,43.714236 41.7946666,42.6978618 41.7946666,41.4452074 C41.7946666,40.1902813 42.8460481,37.3571151 44.1438136,37.3571151 C45.4415771,37.3571151 46.4932142,40.1902813 46.4932142,41.4452074" id="path244" fill="#8B9DD7" fill-rule="nonzero"></path>
            <path d="M41.9782459,41.4452074 C41.9782459,40.2228146 43.0250507,37.5331482 44.1438136,37.5331482 C45.2630837,37.5331482 46.310144,40.2228146 46.310144,41.4452074 C46.310144,42.599759 45.338091,43.5396669 44.1438136,43.5396669 C42.9497879,43.5396669 41.9782459,42.599759 41.9782459,41.4452074 L41.9782459,41.4452074 Z M41.6113427,41.4452074 C41.6113427,42.7934187 42.7471407,43.8904697 44.1438136,43.8904697 C45.5404865,43.8904697 46.676538,42.7934187 46.676538,41.4452074 C46.676538,40.1736364 45.6073567,37.1818404 44.1438136,37.1818404 C42.6807777,37.1818404 41.6113427,40.1736364 41.6113427,41.4452074" id="path246" fill="#363254" fill-rule="nonzero"></path>
            <path d="M42.1956417,41.5945066 C42.1956417,40.4724882 43.5106959,38.4561842 44.4733399,38.4561842 C44.5651286,38.4561842 44.6538662,38.484683 44.7428592,38.52806 C44.5008004,38.1734723 44.2272116,37.9376707 43.936334,37.9376707 C42.97369,37.9376707 42.1956417,40.4740014 42.1956417,41.5945066" id="path248" fill="#A6BDE6" fill-rule="nonzero"></path>
            <path d="M48.407314,41.6219953 C48.407314,43.2761476 47.3188092,44.6210565 45.9745154,44.6210565 C44.6292032,44.6210565 43.5406984,43.2761476 43.5406984,41.6219953 C43.5406984,39.9665832 44.6292032,36.2292975 45.9745154,36.2292975 C47.3188092,36.2292975 48.407314,39.9665832 48.407314,41.6219953" id="path250" fill="#8B9DD7" fill-rule="nonzero"></path>
            <path d="M43.7240222,41.6219953 C43.7240222,39.9915506 44.8120197,36.4043206 45.9745154,36.4043206 C47.1367555,36.4043206 48.2237347,39.9915506 48.2237347,41.6219953 C48.2237347,43.1785215 47.2145603,44.445604 45.9745154,44.445604 C44.7331966,44.445604 43.7240222,43.1785215 43.7240222,41.6219953 Z M43.3573746,41.6219953 C43.3573746,43.3722077 44.5313121,44.7959283 45.9745154,44.7959283 C47.4169558,44.7959283 48.5903842,43.3722077 48.5903842,41.6219953 C48.5903842,39.9610355 47.4861144,36.0530127 45.9745154,36.0530127 C44.4621516,36.0530127 43.3573746,39.9610355 43.3573746,41.6219953" id="path252" fill="#363254" fill-rule="nonzero"></path>
            <path d="M44.1969535,41.9226137 C44.1969535,40.3287367 45.5135332,37.4637938 46.474398,37.4637938 C46.5664423,37.4637938 46.6564518,37.504903 46.7441729,37.5656815 C46.5036378,37.0597764 46.2285252,36.7271317 45.9373922,36.7271317 C44.9747481,36.7271317 44.1969535,40.3299984 44.1969535,41.9226137" id="path254" fill="#A6BDE6" fill-rule="nonzero"></path>
            <path d="M49.6832121,42.512498 C49.6832121,43.6833919 48.8998243,44.6320005 47.9331108,44.6320005 C46.9663991,44.6320005 46.1825022,43.6833919 46.1825022,42.512498 C46.1825022,41.3370155 46.9663991,38.6912312 47.9331108,38.6912312 C48.8998243,38.6912312 49.6832121,41.3370155 49.6832121,42.512498" id="path256" fill="#8B9DD7" fill-rule="nonzero"></path>
            <path d="M46.3655723,42.512498 C46.3655723,41.245215 47.1959997,38.8675159 47.9331108,38.8675159 C48.6699682,38.8675159 49.5003955,41.245215 49.5003955,42.512498 C49.5003955,43.5845816 48.7965918,44.4564478 47.9331108,44.4564478 C47.0691225,44.4564478 46.3655723,43.5845816 46.3655723,42.512498 Z M45.9989247,42.512498 C45.9989247,43.7782679 46.8662197,44.8069499 47.9331108,44.8069499 C48.9994946,44.8069499 49.8665359,43.7782679 49.8665359,42.512498 C49.8665359,41.3607212 49.0961156,38.5162062 47.9331108,38.5162062 C46.7695987,38.5162062 45.9989247,41.3607212 45.9989247,42.512498" id="path258" fill="#363254" fill-rule="nonzero"></path>
            <path d="M46.9188524,41.8141683 C46.8303685,40.9781398 47.6506239,39.5930827 48.289844,39.4927082 C48.349851,39.4833833 48.4113816,39.4964912 48.4731678,39.5201969 C48.2850136,39.2788457 48.0734646,39.0891959 47.8916663,39.163593 C47.2580395,39.4334429 46.8303685,40.9809146 46.9188524,41.8141683" id="path260" fill="#A6BDE6" fill-rule="nonzero"></path>
            <path d="M5.21409293,10.8213455 C5.01983506,11.0831246 5.08835918,11.4430065 5.36835492,11.6261005 C5.64725719,11.8089429 6.03173012,11.7436249 6.22578451,11.4826024 C7.33193515,9.99187282 9.81985871,9.58104615 11.0026955,10.0044832 C11.238373,10.089221 11.5362433,10.0523998 11.666452,9.92050209 C11.796559,9.79036915 11.7114567,9.61534602 11.4752454,9.53085985 C9.85570995,8.95030615 6.67860345,8.84514058 5.21409293,10.8213455" id="path262" fill="#363254" fill-rule="nonzero"></path>
            <path d="M10.0082684,17.3741444 C8.98673683,17.5877535 8.08610802,17.0208183 7.9974969,16.1083746 C7.9091909,15.1944176 8.66644049,14.2812173 9.68825166,14.06559 C10.7108765,13.8512225 11.6112258,14.4166463 11.7005234,15.3311064 C11.7882192,16.2448118 11.0311986,17.1577606 10.0082684,17.3741444 L10.0082684,17.3741444 Z M12.1206441,15.2092959 C12.0182518,14.1445266 10.9546143,13.4893224 9.7424862,13.742274 C8.53185835,13.9964872 7.63250073,15.0627715 7.73420632,16.1260276 C7.83611539,17.1887806 8.90013453,17.8457496 10.110864,17.5938062 C11.3228904,17.3388364 12.2225532,16.2728055 12.1206441,15.2092959" id="path264" fill="#363254" fill-rule="nonzero"></path>
            <path d="M11.635864,15.4047488 C11.71344,16.2079906 11.0510566,17.0124959 10.1565553,17.2001294 C9.25839277,17.3897793 8.47086051,16.8899288 8.39081803,16.0866851 C8.31385228,15.2834414 8.97631213,14.4796946 9.87122019,14.2918095 C10.7684929,14.1026628 11.5581863,14.6007485 11.635864,15.4047488" id="path266" fill="#FCFCFC" fill-rule="nonzero"></path>
            <path d="M11.5047655,15.4128178 C11.2625026,14.800739 10.6192144,14.4458998 10.0736397,14.6163853 C9.78123605,14.7061656 9.5809014,14.9303688 9.48753561,15.2105575 L10.2501245,15.5848165 L9.54949971,16.0864336 C9.80912889,16.6637093 10.4232531,16.9950944 10.9532157,16.83041 C11.5009769,16.6579082 11.7467995,16.024645 11.5047655,15.4128178" id="path268" fill="#363254" fill-rule="nonzero"></path>
            <path d="M10.9432994,15.1505356 C11.0790511,15.1311159 11.2388814,15.2940336 11.2969809,15.5202531 C11.3555633,15.7436997 11.2925052,15.9424286 11.1537538,15.963613 C11.0165021,15.9840409 10.8569768,15.8198615 10.7981909,15.5943986 C10.7411594,15.3712055 10.8055385,15.1729797 10.9432994,15.1505356" id="path270" fill="#FFFFFF" fill-rule="nonzero"></path>
            <path d="M8.72484483,14.2280027 C7.76865918,14.9598757 7.46641546,16.0228803 8.11242436,16.625375 C8.05640984,16.6016692 8.17835498,16.7565161 8.12671336,16.7277658 C7.10955504,16.1683965 6.93963044,14.5074367 7.87603441,13.5301781 C8.67983951,12.6903666 11.0919671,12.0676956 11.0740923,12.3915148 C10.9745733,12.762999 10.2684056,13.2346042 9.39157575,13.7470669 C9.109317,13.9062017 8.90580398,14.0898008 8.72484426,14.2280027" id="path272" fill="#363254" fill-rule="nonzero"></path>
            <path d="M24.4356737,24.5438132 C24.3864221,24.7929819 24.5563474,24.9975138 24.8126953,24.9975138 L26.2858267,24.9975138 C26.5426322,24.9975138 26.7920653,24.7929819 26.8416468,24.5438132 L27.2339776,22.538353 C27.2833036,22.2886793 27.5322295,22.0846543 27.7892905,22.0846543 L29.3835267,22.0846543 C30.2927752,22.0846543 31.0408191,21.9898275 31.6274064,21.7999242 C32.2152658,21.6110309 32.748204,21.2927594 33.229526,20.8466247 C33.6317713,20.4794285 33.9587556,20.0741495 34.2079332,19.630033 C34.4571127,19.1874297 34.6350969,18.6981714 34.7393459,18.1630111 C34.9941185,16.864708 34.7434077,15.8988 34.1642004,15.127333 C33.43675,14.1614231 31.5803688,14.1102286 31.5803688,14.1102286 C31.3266126,14.0723993 30.9096188,14.0401176 30.6530669,14.0401176 L26.9593724,14.0401176 C26.7030741,14.0401176 26.453641,14.2449011 26.4040595,14.4948263 L24.4356737,24.5438132 Z M30.2075961,15.7694237 C31.1221842,15.7694237 31.7306389,15.9371325 32.0355004,16.2717973 C32.3396009,16.6064603 32.4125754,17.1814663 32.253659,17.9953022 C32.0866075,18.8434361 31.7662347,19.4494622 31.2917778,19.8118673 C30.8173209,20.174019 29.5887178,20.305162 29.5887178,20.305162 C29.3331824,20.3329022 28.914663,20.3553483 28.6586183,20.3553483 L28.128224,20.3553483 C27.8719257,20.3553483 27.7013139,20.1508182 27.7506417,19.9013961 L28.4712269,16.2238789 C28.5200457,15.9742052 28.769986,15.7694237 29.0260307,15.7694237 L30.2075961,15.7694237" id="path274" fill="#363254" fill-rule="nonzero"></path>
            <path d="M24.4356737,24.5438132 C24.3864221,24.7929819 24.5563474,24.9975138 24.8126953,24.9975138 L26.2858267,24.9975138 C26.5426322,24.9975138 26.7920653,24.7929819 26.8416468,24.5438132 L27.2339776,22.538353 C27.2833036,22.2886793 27.5322295,22.0846543 27.7892905,22.0846543 L29.3835267,22.0846543 C30.2927752,22.0846543 31.0408191,21.9898275 31.6274064,21.7999242 C32.2152658,21.6110309 32.748204,21.2927594 33.229526,20.8466247 C33.6317713,20.4794285 33.9587556,20.0741495 34.2079332,19.630033 C34.4571127,19.1874297 34.6350969,18.6981714 34.7393459,18.1630111 C34.9941185,16.864708 34.7434077,15.8988 34.1642004,15.127333 C33.43675,14.1614231 31.5803688,14.1102286 31.5803688,14.1102286 C31.3266126,14.0723993 30.9096188,14.0401176 30.6530669,14.0401176 L26.9593724,14.0401176 C26.7030741,14.0401176 26.453641,14.2449011 26.4040595,14.4948263 L24.4356737,24.5438132 Z M30.2075961,15.7694237 C31.1221842,15.7694237 31.7306389,15.9371325 32.0355004,16.2717973 C32.3396009,16.6064603 32.4125754,17.1814663 32.253659,17.9953022 C32.0866075,18.8434361 31.7662347,19.4494622 31.2917778,19.8118673 C30.8173209,20.174019 29.5887178,20.305162 29.5887178,20.305162 C29.3331824,20.3329022 28.914663,20.3553483 28.6586183,20.3553483 L28.128224,20.3553483 C27.8719257,20.3553483 27.7013139,20.1508182 27.7506417,19.9013961 L28.4712269,16.2238789 C28.5200457,15.9742052 28.769986,15.7694237 29.0260307,15.7694237 L30.2075961,15.7694237 Z" id="path276" stroke="#FFFFFF"></path>
            <path d="M37.060014,11.5814618 C37.1088327,11.3322932 37.3582659,11.1280147 37.6145641,11.1280147 L39.0692092,11.1280147 C39.3260167,11.1280147 39.4956102,11.3322932 39.4462823,11.5814618 L39.0536998,13.5869221 C39.0046255,13.8368473 39.175491,14.0401176 39.431282,14.0401176 L40.624543,14.0401176 C40.8808412,14.0401176 41.2996143,14.0620586 41.5543869,14.0880342 C41.5543869,14.0880342 43.2945701,14.1082104 43.859292,14.7351694 C44.3192558,15.2456121 44.5191074,15.9487347 44.3159491,16.9855103 L43.4067006,21.6307022 C43.3581374,21.8803758 43.1079415,22.0846543 42.8513877,22.0846543 L41.3593657,22.0846543 C41.1028138,22.0846543 40.9327111,21.8803758 40.9817835,21.6307022 L41.7542386,17.6901443 C41.8030573,17.4407241 41.8579783,17.0288873 41.8767945,16.7746742 C41.8767945,16.7746742 41.9111202,16.3083651 41.7232177,16.1083746 C41.5360799,15.9076256 41.1363767,15.8077561 40.5256336,15.8077561 L39.0844651,15.8077561 C38.8276577,15.8077561 38.5789874,16.0115315 38.5291522,16.2612051 L37.4782798,21.6307022 C37.4292056,21.8803758 37.1797724,22.0846543 36.9232206,22.0846543 L35.4683218,22.0846543 C35.211768,22.0846543 35.0421745,21.8803758 35.0909932,21.6307022 L37.060014,11.5814618" id="path278" fill="#363254" fill-rule="nonzero"></path>
            <path d="M37.060014,11.5814618 C37.1088327,11.3322932 37.3582659,11.1280147 37.6145641,11.1280147 L39.0692092,11.1280147 C39.3260167,11.1280147 39.4956102,11.3322932 39.4462823,11.5814618 L39.0536998,13.5869221 C39.0046255,13.8368473 39.175491,14.0401176 39.431282,14.0401176 L40.624543,14.0401176 C40.8808412,14.0401176 41.2996143,14.0620586 41.5543869,14.0880342 C41.5543869,14.0880342 43.2945701,14.1082104 43.859292,14.7351694 C44.3192558,15.2456121 44.5191074,15.9487347 44.3159491,16.9855103 L43.4067006,21.6307022 C43.3581374,21.8803758 43.1079415,22.0846543 42.8513877,22.0846543 L41.3593657,22.0846543 C41.1028138,22.0846543 40.9327111,21.8803758 40.9817835,21.6307022 L41.7542386,17.6901443 C41.8030573,17.4407241 41.8579783,17.0288873 41.8767945,16.7746742 C41.8767945,16.7746742 41.9111202,16.3083651 41.7232177,16.1083746 C41.5360799,15.9076256 41.1363767,15.8077561 40.5256336,15.8077561 L39.0844651,15.8077561 C38.8276577,15.8077561 38.5789874,16.0115315 38.5291522,16.2612051 L37.4782798,21.6307022 C37.4292056,21.8803758 37.1797724,22.0846543 36.9232206,22.0846543 L35.4683218,22.0846543 C35.211768,22.0846543 35.0421745,21.8803758 35.0909932,21.6307022 L37.060014,11.5814618 Z" id="path280" stroke="#FFFFFF"></path>
            <path d="M44.4385051,24.5438132 C44.3891772,24.7929819 44.5592799,24.9975138 44.8160873,24.9975138 L46.2890395,24.9975138 C46.5448286,24.9975138 46.7955336,24.7929819 46.8440987,24.5438132 L47.2366813,22.538353 C47.2857555,22.2886793 47.5356959,22.0846543 47.7914869,22.0846543 L49.3864858,22.0846543 C50.2954789,22.0846543 51.0430154,21.9898275 51.6311284,21.7999242 C52.2172085,21.6110309 52.7511632,21.2927594 53.2317224,20.8466247 C53.6352396,20.4794285 53.9606964,20.0741495 54.2106387,19.630033 C54.4600718,19.1874297 54.6372933,18.6981714 54.742305,18.1630111 C54.9968241,16.864708 54.7664608,15.8839198 54.1666504,15.127333 C53.4224205,14.1881571 51.5825652,14.1102286 51.5825652,14.1102286 C51.328809,14.0723993 50.9115615,14.0401176 50.6552633,14.0401176 L46.9615688,14.0401176 C46.7055241,14.0401176 46.4553282,14.2449011 46.4067631,14.4948263 L44.4385051,24.5438132 Z M50.2110644,15.7694237 C51.1246342,15.7694237 51.7335981,15.9371325 52.0389687,16.2717973 C52.3423065,16.6064603 52.4150254,17.1814663 52.2558554,17.9953022 C52.0890594,18.8434361 51.7699566,19.4494622 51.2947369,19.8118673 C50.8195173,20.174019 49.5909142,20.305162 49.5909142,20.305162 C49.3363952,20.3329022 48.9181313,20.3553483 48.6610703,20.3553483 L48.1301667,20.3553483 C47.8733593,20.3553483 47.7045286,20.1508182 47.7530917,19.9013961 L48.4731678,16.2238789 C48.5224957,15.9742052 48.7721824,15.7694237 49.0284807,15.7694237 L50.2110644,15.7694237" id="path282" fill="#363254" fill-rule="nonzero"></path>
            <path d="M44.4385051,24.5438132 C44.3891772,24.7929819 44.5592799,24.9975138 44.8160873,24.9975138 L46.2890395,24.9975138 C46.5448286,24.9975138 46.7955336,24.7929819 46.8440987,24.5438132 L47.2366813,22.538353 C47.2857555,22.2886793 47.5356959,22.0846543 47.7914869,22.0846543 L49.3864858,22.0846543 C50.2954789,22.0846543 51.0430154,21.9898275 51.6311284,21.7999242 C52.2172085,21.6110309 52.7511632,21.2927594 53.2317224,20.8466247 C53.6352396,20.4794285 53.9606964,20.0741495 54.2106387,19.630033 C54.4600718,19.1874297 54.6372933,18.6981714 54.742305,18.1630111 C54.9968241,16.864708 54.7664608,15.8839198 54.1666504,15.127333 C53.4224205,14.1881571 51.5825652,14.1102286 51.5825652,14.1102286 C51.328809,14.0723993 50.9115615,14.0401176 50.6552633,14.0401176 L46.9615688,14.0401176 C46.7055241,14.0401176 46.4553282,14.2449011 46.4067631,14.4948263 L44.4385051,24.5438132 Z M50.2110644,15.7694237 C51.1246342,15.7694237 51.7335981,15.9371325 52.0389687,16.2717973 C52.3423065,16.6064603 52.4150254,17.1814663 52.2558554,17.9953022 C52.0890594,18.8434361 51.7699566,19.4494622 51.2947369,19.8118673 C50.8195173,20.174019 49.5909142,20.305162 49.5909142,20.305162 C49.3363952,20.3329022 48.9181313,20.3553483 48.6610703,20.3553483 L48.1301667,20.3553483 C47.8733593,20.3553483 47.7045286,20.1508182 47.7530917,19.9013961 L48.4731678,16.2238789 C48.5224957,15.9742052 48.7721824,15.7694237 49.0284807,15.7694237 L50.2110644,15.7694237 Z" id="path284" stroke="#FFFFFF"></path>
            <path d="M24.4356737,24.5438132 C24.3864221,24.7929819 24.5563474,24.9975138 24.8126953,24.9975138 L26.2858267,24.9975138 C26.5426322,24.9975138 26.7920653,24.7929819 26.8416468,24.5438132 L27.2339776,22.538353 C27.2833036,22.2886793 27.5322295,22.0846543 27.7892905,22.0846543 L29.3835267,22.0846543 C30.2927752,22.0846543 31.0408191,21.9898275 31.6274064,21.7999242 C32.2152658,21.6110309 32.748204,21.2927594 33.229526,20.8466247 C33.6317713,20.4794285 33.9587556,20.0741495 34.2079332,19.630033 C34.4571127,19.1874297 34.6350969,18.6981714 34.7393459,18.1630111 C34.9941185,16.864708 34.7434077,15.8988 34.1642004,15.127333 C33.43675,14.1614231 31.5803688,14.1102286 31.5803688,14.1102286 C31.3266126,14.0723993 30.9096188,14.0401176 30.6530669,14.0401176 L26.9593724,14.0401176 C26.7030741,14.0401176 26.453641,14.2449011 26.4040595,14.4948263 L24.4356737,24.5438132 Z M30.2075961,15.7694237 C31.1221842,15.7694237 31.7306389,15.9371325 32.0355004,16.2717973 C32.3396009,16.6064603 32.4125754,17.1814663 32.253659,17.9953022 C32.0866075,18.8434361 31.7662347,19.4494622 31.2917778,19.8118673 C30.8173209,20.174019 29.5887178,20.305162 29.5887178,20.305162 C29.3331824,20.3329022 28.914663,20.3553483 28.6586183,20.3553483 L28.128224,20.3553483 C27.8719257,20.3553483 27.7013139,20.1508182 27.7506417,19.9013961 L28.4712269,16.2238789 C28.5200457,15.9742052 28.769986,15.7694237 29.0260307,15.7694237 L30.2075961,15.7694237" id="path286" fill="#363254" fill-rule="nonzero"></path>
            <path d="M37.060014,11.5814618 C37.1088327,11.3322932 37.3582659,11.1280147 37.6145641,11.1280147 L39.0692092,11.1280147 C39.3260167,11.1280147 39.4956102,11.3322932 39.4462823,11.5814618 L39.0536998,13.5869221 C39.0046255,13.8368473 39.175491,14.0401176 39.431282,14.0401176 L40.624543,14.0401176 C40.8808412,14.0401176 41.2996143,14.0620586 41.5543869,14.0880342 C41.5543869,14.0880342 43.2945701,14.1082104 43.859292,14.7351694 C44.3192558,15.2456121 44.5191074,15.9487347 44.3159491,16.9855103 L43.4067006,21.6307022 C43.3581374,21.8803758 43.1079415,22.0846543 42.8513877,22.0846543 L41.3593657,22.0846543 C41.1028138,22.0846543 40.9327111,21.8803758 40.9817835,21.6307022 L41.7542386,17.6901443 C41.8030573,17.4407241 41.8579783,17.0288873 41.8767945,16.7746742 C41.8767945,16.7746742 41.9111202,16.3083651 41.7232177,16.1083746 C41.5360799,15.9076256 41.1363767,15.8077561 40.5256336,15.8077561 L39.0844651,15.8077561 C38.8276577,15.8077561 38.5789874,16.0115315 38.5291522,16.2612051 L37.4782798,21.6307022 C37.4292056,21.8803758 37.1797724,22.0846543 36.9232206,22.0846543 L35.4683218,22.0846543 C35.211768,22.0846543 35.0421745,21.8803758 35.0909932,21.6307022 L37.060014,11.5814618" id="path288" fill="#363254" fill-rule="nonzero"></path>
            <path d="M44.4385051,24.5438132 C44.3891772,24.7929819 44.5592799,24.9975138 44.8160873,24.9975138 L46.2890395,24.9975138 C46.5448286,24.9975138 46.7955336,24.7929819 46.8440987,24.5438132 L47.2366813,22.538353 C47.2857555,22.2886793 47.5356959,22.0846543 47.7914869,22.0846543 L49.3864858,22.0846543 C50.2954789,22.0846543 51.0430154,21.9898275 51.6311284,21.7999242 C52.2172085,21.6110309 52.7511632,21.2927594 53.2317224,20.8466247 C53.6352396,20.4794285 53.9606964,20.0741495 54.2106387,19.630033 C54.4600718,19.1874297 54.6372933,18.6981714 54.742305,18.1630111 C54.9968241,16.864708 54.7664608,15.8839198 54.1666504,15.127333 C53.4224205,14.1881571 51.5825652,14.1102286 51.5825652,14.1102286 C51.328809,14.0723993 50.9115615,14.0401176 50.6552633,14.0401176 L46.9615688,14.0401176 C46.7055241,14.0401176 46.4553282,14.2449011 46.4067631,14.4948263 L44.4385051,24.5438132 Z M50.2110644,15.7694237 C51.1246342,15.7694237 51.7335981,15.9371325 52.0389687,16.2717973 C52.3423065,16.6064603 52.4150254,17.1814663 52.2558554,17.9953022 C52.0890594,18.8434361 51.7699566,19.4494622 51.2947369,19.8118673 C50.8195173,20.174019 49.5909142,20.305162 49.5909142,20.305162 C49.3363952,20.3329022 48.9181313,20.3553483 48.6610703,20.3553483 L48.1301667,20.3553483 C47.8733593,20.3553483 47.7045286,20.1508182 47.7530917,19.9013961 L48.4731678,16.2238789 C48.5224957,15.9742052 48.7721824,15.7694237 49.0284807,15.7694237 L50.2110644,15.7694237" id="path290" fill="#363254" fill-rule="nonzero"></path>
            <g id="g294-Clipped" transform="translate(22.288325, 11.928003) scale(-1, 1) rotate(-180.000000) translate(-22.288325, -11.928003) translate(14.540832, 0.651857)">
                <mask id="mask-32" fill="white">
                    <use xlink:href="#path-31"></use>
                </mask>
                <g id="path296"></g>
                <g id="g294" mask="url(#mask-32)" fill="url(#linearGradient-33)" fill-rule="nonzero">
                    <path d="M-2.89064852e-15,18.2756077 C-2.89064852e-15,18.2756077 4.36131639,21.2497506 7.116014,22.2691253 C7.99401347,22.5942055 14.3288263,24.254157 15.3557992,13.4047015 C15.9172144,7.46423372 14.9062602,3.36126321 9.99514848,2.61804272 C7.05613479,2.17266525 7.51121674,-1.14685289e-14 7.51121674,-1.14685289e-14" id="path306"></path>
                </g>
            </g>
            <path d="M21.4578084,0.444251486 C18.6710222,1.47598442 14.4021816,4.3767385 14.221298,4.50006216 C13.9744076,4.66852946 13.9165879,4.9973913 14.0931744,5.23369797 C14.269176,5.4702581 14.6131444,5.52523737 14.8602384,5.3565185 C14.9032599,5.32801976 19.1972463,2.40961262 21.8543079,1.42554466 C21.9374255,1.39528119 23.8929717,0.693168568 25.7699235,1.80812606 C27.723944,2.96948691 28.9611933,5.74868207 29.3497083,9.84711317 C29.9683329,16.3971373 28.5030087,19.4527401 24.4502678,20.0668371 C23.3013251,20.2403471 22.4650243,20.6776543 21.9635645,21.3679131 C21.3051469,22.2715313 21.5036007,23.265938 21.5129315,23.3080553 C21.5726334,23.5907653 21.8588579,23.7731027 22.1552543,23.718882 C22.452032,23.6649108 22.6467977,23.3892616 22.5923591,23.1050365 C22.5910242,23.0999863 22.4816283,22.4876616 22.8744397,21.9580508 C23.1999233,21.5194839 23.7877063,21.232484 24.6221001,21.1056309 C30.6474737,20.1936902 30.8994488,14.5588847 30.4455874,9.75203478 C30.0186772,5.24807312 28.6400577,2.27443514 26.350664,0.914345392 C24.0521912,-0.451293917 21.7171311,0.34841841 21.4578084,0.444251486" id="path308" fill="#363254" fill-rule="nonzero"></path>
            <g id="g312-Clipped" transform="translate(20.019950, 4.316947) scale(-1, 1) rotate(-180.000000) translate(-20.019950, -4.316947) translate(13.358184, 1.278958)">
                <mask id="mask-35" fill="white">
                    <use xlink:href="#path-34"></use>
                </mask>
                <g id="path314"></g>
                <g id="g312" mask="url(#mask-35)" fill="url(#linearGradient-36)" fill-rule="nonzero">
                    <path d="M5.64409345,3.2132434 C10.5821826,6.27615919 13.3235313,4.7100244 13.3235313,4.7100244 C11.1764233,6.65722677 8.76111745,6.01185818 8.22695936,5.81312804 C5.48169494,4.79375335 0.179880959,1.0264552 0.179880959,1.0264552 C0.179880959,1.0264552 -0.537016763,-0.234775093 0.891540839,0.0388571529 C0.891540839,0.0388571529 3.99892823,2.19210334 5.64409345,3.2132434" id="path324"></path>
                </g>
            </g>
            <path d="M17.2203435,18.5952756 C17.1774237,21.0819232 16.3474039,23.3463878 15.0527417,24.5014443 C14.4653408,25.0262641 13.8101275,25.2860249 13.1561855,25.2542483 C12.9544525,25.2434102 12.7825445,25.3919471 12.7709246,25.5853818 C12.7612887,25.7795711 12.9164145,25.9440039 13.1188343,25.9540911 C13.9755772,25.996965 14.8169372,25.6721358 15.5534133,25.0146618 C16.9883274,23.7335087 17.9078483,21.2781327 17.9535396,18.6056144 C17.9575061,18.4129382 17.7964044,18.2527933 17.5935779,18.2497301 C17.3907767,18.2469865 17.2240049,18.4015894 17.2203435,18.5952756" id="path326" fill="#363254" fill-rule="nonzero"></path>
            <path d="M18.8087825,16.8195662 C18.5325753,17.4477849 18.0498803,17.8480194 17.4833288,17.9148506 C16.9310164,17.9794139 16.36983,17.7231825 15.9816959,17.2286263 C15.8608186,17.074031 15.6300993,17.0422543 15.4682856,17.1587687 C15.3064974,17.2747781 15.2734175,17.4946933 15.3952864,17.6492886 C15.9430476,18.3481233 16.7575827,18.7075021 17.5733383,18.6116671 C18.4079351,18.5117976 19.1039835,17.9577245 19.4852767,17.0909275 C19.5634382,16.9121214 19.47496,16.7080945 19.2890103,16.6321843 C19.1018973,16.5572822 18.8878585,16.6412633 18.8087825,16.8195662" id="path328" fill="#363254" fill-rule="nonzero"></path>
        </g>
    </g>
</svg>