<?xml version="1.0" encoding="UTF-8"?>
<svg width="195.906736px" height="50px" viewBox="0 0 195.906736 50" version="1.1" xmlns="http://www.w3.org/2000/svg" xmlns:xlink="http://www.w3.org/1999/xlink">
    <title>phpunit copy</title>
    <g id="Page-1" stroke="none" stroke-width="1" fill="none" fill-rule="evenodd">
        <g id="phpunit-copy" fill-rule="nonzero">
            <rect id="Rectangle" fill="#356388" x="117.720207" y="-4.60196072e-15" width="10.2072539" height="9.17098446"></rect>
            <rect id="Rectangle" fill="#39B54A" x="163.523316" y="-4.60196072e-15" width="10" height="9.74093264"></rect>
            <rect id="Rectangle" fill="#39B54A" x="133.056995" y="39.4818653" width="10" height="9.74093264"></rect>
            <rect id="Rectangle" fill="#39B54A" x="117.720207" y="12.0725389" width="10.2072539" height="9.74093264"></rect>
            <path d="M117.720207,24.7150259 L117.720207,36.2176166 C117.720207,38.9119171 116.26943,40.5699482 113.834197,40.5699482 C111.554404,40.5699482 109.896373,39.119171 109.896373,36.1658031 L109.896373,-4.60196072e-15 L108.445596,-4.60196072e-15 C102.331606,-4.60196072e-15 99.0673575,3.93782383 99.0673575,11.6062176 L99.0673575,36.4766839 C99.0673575,45.8031088 104.404145,50 113.212435,50 C121.502591,50 127.979275,45.2331606 127.927461,36.2694301 L127.927461,24.7668394 L117.720207,24.7668394 L117.720207,24.7150259 Z" id="Path" fill="#356388"></path>
            <path d="M82.2797927,-4.60196072e-15 L75.8031088,-4.60196072e-15 C69.6891192,-4.60196072e-15 66.4248705,3.93782383 66.4248705,11.6062176 L66.4248705,49.2746114 L77.2020725,49.2746114 L77.2020725,31.761658 L81.9689119,31.761658 C90.880829,31.761658 94.6632124,25.5440415 94.6632124,15.2331606 C94.6632124,5.18134715 90.3626943,-4.60196072e-15 82.2797927,-4.60196072e-15 Z M80.3108808,23.0051813 L77.2020725,23.0051813 L77.2020725,8.86010363 L80.3626943,8.86010363 C82.9015544,8.86010363 84.1450777,10.7772021 84.1450777,15.5440415 C84.1450777,20.6217617 82.7979275,23.0051813 80.3108808,23.0051813 Z" id="Shape" fill="#3C9CD7"></path>
            <path d="M15.8549223,-4.60196072e-15 L9.37823834,-4.60196072e-15 C3.2642487,-4.60196072e-15 -9.20392145e-15,3.93782383 -9.20392145e-15,11.6062176 L-9.20392145e-15,49.2746114 L10.7772021,49.2746114 L10.7772021,31.761658 L15.5440415,31.761658 C24.4559585,31.761658 28.238342,25.5440415 28.238342,15.2331606 C28.238342,5.18134715 23.9378238,-4.60196072e-15 15.8549223,-4.60196072e-15 Z M13.8341969,23.0051813 L10.7253886,23.0051813 L10.7253886,8.86010363 L13.8860104,8.86010363 C16.4248705,8.86010363 17.6683938,10.7772021 17.6683938,15.5440415 C17.7202073,20.6217617 16.3212435,23.0051813 13.8341969,23.0051813 Z" id="Shape" fill="#3C9CD7"></path>
            <path d="M59.6891192,-4.60196072e-15 C53.5751295,-4.60196072e-15 50.3108808,3.93782383 50.3108808,11.6062176 L50.3108808,18.6528497 L50.3108808,19.6373057 L42.642487,19.6373057 L42.642487,18.6528497 L42.642487,-4.60196072e-15 L41.2435233,-4.60196072e-15 C35.1295337,-4.60196072e-15 31.865285,3.93782383 31.865285,11.6062176 L31.865285,49.2746114 L42.642487,49.2746114 L42.642487,30.3626943 L42.642487,29.3782383 L42.642487,29.3782383 L50.3108808,29.3782383 L50.3108808,29.3782383 L50.3108808,30.3626943 L50.3108808,49.2746114 L61.0362694,49.2746114 L61.0362694,0.0518134715 L59.6891192,0.0518134715 L59.6891192,-4.60196072e-15 Z" id="Path" fill="#3C9CD7"></path>
            <path d="M195.906736,20.1554404 L195.906736,12.4352332 L190.880829,12.4352332 L190.880829,4.09326425 L187.720207,4.09326425 C183.316062,4.09326425 180.932642,6.94300518 180.932642,12.4352332 L177.668394,12.4352332 L177.668394,20.1554404 L180.932642,20.1554404 L180.932642,41.9170984 C180.932642,47.357513 184.818653,49.7927461 189.689119,49.7927461 C191.606218,49.7927461 194.041451,49.4300518 195.854922,48.8082902 L195.854922,40.880829 C195.07772,41.0362694 193.989637,41.0880829 192.953368,41.0880829 C191.34715,41.0880829 190.880829,40.3108808 190.880829,38.9637306 L190.880829,20.1554404 L195.906736,20.1554404 Z" id="Path" fill="#356388"></path>
            <path d="M150.725389,11.2435233 C147.46114,11.2435233 144.870466,12.642487 143.056995,15.2331606 L143.056995,12.0725389 L139.792746,12.0725389 C135.388601,12.0725389 133.005181,14.9222798 133.005181,20.4145078 L133.005181,36.5803109 L143.005181,36.5803109 L143.005181,23.4715026 C143.005181,21.2435233 144.093264,19.5854922 145.751295,19.5854922 C147.979275,19.5854922 148.445596,21.2953368 148.445596,22.8497409 L148.445596,49.2227979 L158.393782,49.2227979 L158.393782,19.119171 C158.497409,14.2487047 155.025907,11.2435233 150.725389,11.2435233 Z" id="Path" fill="#356388"></path>
            <path d="M170.310881,12.4352332 C165.906736,12.4352332 163.523316,15.2849741 163.523316,20.7772021 L163.523316,49.2227979 L173.523316,49.2227979 L173.523316,12.4352332 L170.310881,12.4352332 Z" id="Path" fill="#356388"></path>
        </g>
    </g>
</svg>