<?xml version="1.0" encoding="UTF-8"?>
<svg width="66px" height="54.329182px" viewBox="0 0 66 54.329182" version="1.1" xmlns="http://www.w3.org/2000/svg" xmlns:xlink="http://www.w3.org/1999/xlink">
    <title>phpunit</title>
    <defs>
        <linearGradient x1="62.8523821%" y1="98.6331614%" x2="37.3014275%" y2="2.06312322%" id="linearGradient-1">
            <stop stop-color="#D1D8F4" offset="0%"></stop>
            <stop stop-color="#C5CDF6" offset="8%"></stop>
            <stop stop-color="#A7B1FA" offset="32%"></stop>
            <stop stop-color="#919DFD" offset="56%"></stop>
            <stop stop-color="#8491FE" offset="79%"></stop>
            <stop stop-color="#808DFF" offset="100%"></stop>
        </linearGradient>
    </defs>
    <g id="Page-1" stroke="none" stroke-width="1" fill="none" fill-rule="evenodd">
        <g id="phpunit" fill-rule="nonzero">
            <path d="M26.228432,18.3127983 C26.1939072,21.0927906 28.9303683,23.5425463 31.7193671,23.2183139 C33.4035741,23.021673 34.1105808,23.8697808 33.5446753,25.4414071 C32.3167953,28.8518513 31.0784078,32.2582926 29.8295127,35.660731 C28.9904114,37.9363618 27.1350817,38.7904739 24.8399369,37.9558758 C17.4636506,35.2769559 10.0893657,32.5890296 2.71708222,29.8920968 C0.286840555,29.0019589 -0.540252193,27.2171798 0.34538251,24.7749295 C3.02830526,17.3696224 5.7187334,9.96881849 8.41666691,2.57251782 C9.21073599,0.394456885 11.0960872,-0.509190727 13.2831545,0.283377278 C20.7585119,2.98531366 28.2283652,5.70526295 35.6927147,8.44322515 C37.8887885,9.24780176 38.7338942,11.1331529 37.9533348,13.3277257 C37.7702035,13.8455968 37.5900745,14.3664701 37.382926,14.8753348 C36.8575495,16.1632578 35.7452523,16.4124364 34.80708,15.3811973 C33.7248044,14.1908443 32.3603265,13.7720441 30.8427389,13.769042 C29.6270412,13.7554337 28.4561739,14.2275121 27.5898949,15.080546 C26.723616,15.9335799 26.2335548,17.0970353 26.228432,18.3127983 Z M25.0530896,18.3623338 C25.0679447,16.5692705 25.9070717,14.8827819 27.3283454,13.7894944 C28.7496192,12.6962069 30.5949233,12.3177485 32.331806,12.7633212 C33.5581849,13.0725428 34.7245208,13.4838376 35.5711275,14.5075713 C35.8638373,14.8603241 36.1715579,14.879838 36.3396783,14.382982 C36.6001561,13.7084279 36.8261105,13.0210456 37.0166635,12.323506 C37.2628399,11.272753 36.7554763,10.2580258 35.7947878,9.7536643 C35.481045,9.59647334 35.1570818,9.46056926 34.8250929,9.34687276 C27.5508797,6.69096937 20.2746651,4.03906885 12.9964491,1.39117119 C11.3452657,0.790740888 10.0993728,1.37165721 9.48092963,3.04235454 C8.64483043,5.29396819 7.82974629,7.54558184 7.01616322,9.79719549 C5.15582999,14.911861 3.29799854,20.0290283 1.4426689,25.1486974 C0.774690179,27.0010249 1.31057423,28.1403414 3.13738344,28.8113222 C7.0296729,30.2403464 10.9324699,31.6438522 14.8292626,33.0638699 C18.3027519,34.3292768 21.7942542,35.5496514 25.2362209,36.8946152 C26.7793268,37.4950456 28.230867,36.7835356 28.7877662,35.1878921 C29.973616,31.7909576 31.2360207,28.4210425 32.4608986,25.0391188 C32.687561,24.4131702 32.5839868,24.368138 31.894993,24.3351143 C31.0123604,24.2945853 30.0937021,24.2525551 29.2636072,23.9958712 C26.8093483,23.2423311 25.0215671,20.7805669 25.0530896,18.365336 L25.0530896,18.3623338 Z M21.1653034,54.0594166 L18.0490701,54.0594166 L18.0490701,49.4811356 L14.2123204,49.4811356 L14.2123204,54.045907 L11.0600613,54.045907 L11.0600613,42.2684665 L14.1612839,42.2684665 L14.1612839,46.5840593 L18.0325583,46.5840593 L18.0325583,42.2774729 L21.1653034,42.2774729 L21.1653034,54.0594166 Z M26.5691762,50.2046541 L26.5691762,54.0534123 L23.4379321,54.0534123 L23.4379321,42.4185741 C25.5169221,42.1678944 27.5809012,41.9097094 29.6253664,42.4380881 C31.5002101,42.9214345 32.4669029,44.258893 32.4218706,46.102214 C32.3753372,48.0160856 31.2825541,49.3925721 29.3506696,49.8338884 C28.4815467,50.0335314 27.576398,50.0755616 26.5691762,50.2046541 L26.5691762,50.2046541 Z M26.5601697,47.6768425 C26.9444451,47.6768425 27.2146387,47.7008597 27.4803292,47.6768425 C28.2038477,47.6032898 28.9528845,47.4081499 29.1315125,46.6380981 C29.2470953,46.1487474 29.1585319,45.4567514 28.8763296,45.0604674 C28.4154994,44.4135038 27.5914088,44.5140758 26.8693913,44.6101447 C26.7478042,44.6266565 26.5691762,44.8698308 26.5691762,45.012433 C26.5406557,45.8545365 26.5556665,46.6981411 26.5556665,47.6768425 L26.5601697,47.6768425 Z M3.54417497,50.2091573 L3.54417497,54.0609177 L0.469971799,54.0609177 C0.448956738,53.8432617 0.414431995,53.6526251 0.414431995,53.4604874 C0.414431995,50.0080132 0.427941677,46.5660464 0.397920162,43.1195765 C0.397920162,42.5191461 0.594561087,42.3134988 1.14845805,42.3149998 C2.79063494,42.3149998 4.45082473,42.1648923 6.07198656,42.337516 C8.13746682,42.5476666 9.34132958,43.9391638 9.41938552,45.8365236 C9.50344577,47.8434619 8.34011205,49.3850667 6.31666191,49.8353894 C5.44904012,50.0320304 4.54989573,50.0800648 3.54417497,50.2091573 Z M3.56519003,47.6993586 C4.10557731,47.6573285 4.52587852,47.6588296 4.93116898,47.5867779 C5.59614554,47.4666919 6.15904896,47.0914229 6.20107908,46.4084335 C6.22959952,45.923586 6.07949194,45.1625406 5.75075635,44.9779083 C5.19986154,44.6671856 4.44632151,44.7032114 3.77534064,44.6296587 C3.71980084,44.6296587 3.57569756,44.8908459 3.57269541,45.0334481 C3.55618358,45.8740505 3.56519003,46.7146529 3.56519003,47.6993586 Z M34.2081507,42.2654643 L36.7149473,42.2654643 C36.729958,42.5656795 36.7509731,42.8313699 36.7524742,43.0970603 C36.7524742,45.0229405 36.7329602,46.9488207 36.7644828,48.8731999 C36.7706319,49.4961061 36.8569014,50.1156325 37.0211667,50.7165209 C37.2943625,51.6727062 37.9683455,52.1305343 38.9035157,52.1335364 C39.8762128,52.1335364 40.5817185,51.6576954 40.8369013,50.6834972 C40.9932929,50.0543645 41.0744187,49.4088854 41.0785745,48.7606192 C41.1085961,46.8857756 41.0890821,45.0079298 41.0890821,43.1345872 L41.0890821,42.2759719 L43.7670012,42.2759719 C43.7670012,42.9574603 43.7745066,43.5984196 43.7670012,44.2408801 C43.7399819,46.1652592 43.782012,48.0941415 43.6544206,50.0110153 C43.5343345,51.827317 42.7162482,53.3313949 40.8939422,53.9363284 C39.0416147,54.5502684 37.1862851,54.5442641 35.5771318,53.194797 C34.7544918,52.5104228 34.2656894,51.5054801 34.2351701,50.4358197 C34.1511099,47.7338834 34.2081507,45.0409534 34.2081507,42.2654643 L34.2081507,42.2654643 Z M46.0291224,45.4822697 C46.6460646,45.4822697 47.2855228,45.389203 47.8739445,45.5242998 C48.1366328,45.5828418 48.2957468,46.0962097 48.5329168,46.4519647 C48.6439964,46.358898 48.833132,46.1892764 49.0387793,46.0256591 C50.9031154,44.5005662 53.5675249,45.3711901 53.9743165,47.7383866 C54.2099853,49.1028645 54.124424,50.5243832 54.1589488,51.9203837 C54.1799638,52.6138807 54.1589488,53.3088788 54.1589488,54.0534123 L51.4780275,54.0534123 L51.4780275,50.5303875 C51.4780275,49.9554755 51.4870339,49.3775613 51.428492,48.8071525 C51.3354253,47.9065071 50.8415713,47.4381714 50.1090464,47.4651908 C49.3439077,47.4857307 48.7289434,48.1020146 48.7100437,48.8671956 C48.656005,50.164125 48.6800222,51.4655577 48.6740179,52.7699926 L48.6740179,54.065421 L46.0321246,54.065421 L46.0291224,45.4822697 Z M65.9859247,52.0734934 C65.9859247,52.639399 66.0294559,53.1392572 65.9634086,53.6241047 C65.9363892,53.8207456 65.6842085,54.1164575 65.5055805,54.1389737 C64.891117,54.2372974 64.2665858,54.2564672 63.6472487,54.1960145 C62.503429,54.045907 61.8144352,53.412453 61.6628265,52.2671322 C61.512719,51.1833555 61.5457426,50.0770626 61.512719,48.9812773 C61.4977082,48.5099395 61.512719,48.0386017 61.512719,47.5162274 L60.4019229,47.4036467 L60.4019229,45.5498181 L61.4706888,45.4312331 C61.4977082,44.9268717 61.5232265,44.4150048 61.5517469,43.862609 L64.1125822,43.1616066 L64.1125822,45.4822697 L65.9994344,45.4822697 L65.9994344,47.4336682 L64.2116532,47.4336682 C64.2116532,48.7846364 64.1846338,50.0515443 64.2251629,51.312448 C64.2416747,51.7942933 64.6019329,52.0539794 65.0957868,52.0719923 C65.3419632,52.0870031 65.5971461,52.0734934 65.9859247,52.0734934 L65.9859247,52.0734934 Z M56.3415129,54.0579156 L56.3415129,45.5348074 L58.9308686,45.5348074 L58.9308686,54.0579156 L56.3415129,54.0579156 Z" id="Shape" fill="#000000"></path>
            <path d="M28.3539553,18.4629059 C28.3620335,17.3353738 29.0500216,16.3242712 30.095882,15.9028809 C31.1417425,15.4814906 32.3385306,15.7331932 33.1260469,16.5401703 C33.9135631,17.3471474 34.1359814,18.5497223 33.6891909,19.5849865 C33.2424004,20.6202508 32.2148076,21.2833565 31.0874142,21.2639133 C29.5592417,21.2449613 28.3356043,19.9910857 28.3539553,18.4629059 L28.3539553,18.4629059 Z M32.5374534,18.4629059 C32.5204088,17.7019384 31.9010958,17.0926036 31.1399519,17.0879205 C30.6320188,17.0803639 30.1601585,17.3496115 29.9082492,17.7907405 C29.6563399,18.2318695 29.664238,18.7750859 29.9288658,19.2087046 C30.1934935,19.6423234 30.6729823,19.8977387 31.1804809,19.8754182 C31.9451368,19.8517311 32.5492997,19.2188304 32.5374534,18.4538994 L32.5374534,18.4629059 Z M57.6849758,41.6169996 C58.4431931,41.645476 59.0475911,42.2604082 59.0629633,43.0190044 C59.0616816,43.5864717 58.7177369,44.0969514 58.1922887,44.3112523 C57.6668405,44.5255533 57.0639904,44.4012182 56.6662109,43.9965057 C56.2684314,43.5917932 56.1545305,42.9868849 56.3778778,42.4652177 C56.6012251,41.9435504 57.117571,41.6084769 57.6849758,41.6169996 Z M46.6085377,26.8269001 L48.2296995,28.3279758 L47.1789465,29.4507805 L45.6103223,27.9917349 L46.6085377,26.8269001 Z M39.4063761,21.555122 L41.2797187,22.7319654 L40.433112,24.0243916 L38.631821,22.8880773 L39.4063761,21.555122 Z M48.6995362,31.0088972 L49.8178377,29.9386301 C50.3161948,30.5045357 50.7830294,31.0344155 51.2963973,31.619835 L50.1135496,32.5985364 L48.6995362,31.0088972 Z M52.717916,33.3610829 L54.0388627,35.1383566 L52.7944709,36.0254924 C52.3621611,35.4535825 51.9538685,34.9116942 51.4945393,34.3007563 L52.717916,33.3610829 Z M43.1230397,24.0168862 L44.9048167,25.3813641 L43.9171088,26.5822247 L42.2404072,25.2958028 L43.1230397,24.0168862 Z M56.4285753,38.91056 L55.1166351,39.6971237 L53.9893272,37.8643102 L55.2907599,37.0071959 L56.4285753,38.91056 Z M36.7044397,21.8027995 L34.7845638,20.8316035 C35.0112263,20.3737754 35.2153726,19.9639817 35.4660522,19.4596202 L37.4474723,20.4368205 L36.7044397,21.8027995 Z" id="Shape" fill="#000000"></path>
            <path d="M25.0530896,18.365336 C25.0215671,20.7805669 26.8093483,23.2423311 29.2561018,23.9958712 C30.0906999,24.2525551 31.0048551,24.2960863 31.8874876,24.3351143 C32.5764814,24.368138 32.6800556,24.4131702 32.4533932,25.0391188 C31.2285153,28.4210425 29.9661106,31.7939598 28.7802608,35.1878921 C28.2233617,36.7835356 26.7718214,37.4965466 25.2287155,36.8946152 C21.7867488,35.5436471 18.2952465,34.3292768 14.8217572,33.0638699 C10.9189602,31.6438522 7.01616322,30.2403464 3.12987806,28.8113222 C1.30306885,28.1403414 0.767184801,27.0010249 1.43516352,25.1486974 C3.28048599,20.0240247 5.1423203,14.9053563 7.02066645,9.79269227 C7.84025382,7.54107861 8.64933366,5.27895743 9.48543286,3.03785131 C10.1038761,1.36865506 11.3572743,0.789239812 13.0009523,1.38816904 C20.2791683,4.0360667 27.5553829,6.68796722 34.8295961,9.34387061 C35.1602056,9.45970504 35.4826619,9.59761401 35.7947878,9.75666645 C36.7554763,10.2610279 37.2628399,11.272753 37.0166635,12.3265082 C36.8261105,13.0240477 36.6001561,13.71143 36.3396783,14.3859841 C36.1670546,14.8828402 35.8638373,14.8633262 35.5711275,14.5105734 C34.7245208,13.4868397 33.5581849,13.075545 32.331806,12.7663234 C30.5949233,12.3207506 28.7496192,12.699209 27.3283454,13.7924965 C25.9070717,14.885784 25.0679447,16.5722727 25.0530896,18.365336 L25.0530896,18.365336 Z" id="Path" fill="url(#linearGradient-1)"></path>
            <g id="Group" transform="translate(3.563115, 17.078041)" fill="#FFFFFF">
                <path d="M22.9925515,30.5988014 C22.9925515,29.6201 22.9775408,28.7764955 23.0060612,27.934392 C23.0060612,27.7917898 23.1846892,27.5486155 23.3062764,27.5321036 C24.0282938,27.4315316 24.8523844,27.3309595 25.3132147,27.9824264 C25.5954169,28.3787104 25.6839804,29.0707063 25.5683976,29.560057 C25.3852663,30.3301089 24.6362295,30.5252487 23.9172142,30.5988014 C23.6470206,30.6228186 23.3768269,30.5988014 22.9925515,30.5988014 Z M0.00207508714,30.6213176 C0.00207508714,29.6366119 -0.00693136746,28.7960094 0.0125826175,27.955407 C0.0125826175,27.8128048 0.162690194,27.5456133 0.215227846,27.5516176 C0.886208714,27.6251703 1.63974875,27.5891445 2.19064356,27.8998672 C2.516377,28.0844995 2.66648457,28.8455449 2.64096629,29.3303924 C2.59893616,30.0133819 2.04053598,30.3886508 1.37105619,30.5087369 C0.962763578,30.5807885 0.542462363,30.5792875 0.00207508714,30.6213176 Z M28.9743385,1.3758584 C28.9813223,2.13504691 28.382117,2.76154935 27.6233703,2.78837069 C27.0573717,2.80599682 26.536913,2.47959892 26.3063204,1.96240244 C26.0757279,1.44520597 26.1807932,0.839917558 26.5721942,0.430686085 C26.9635952,0.0214546116 27.5636061,-0.11045335 28.0905555,0.0968855722 C28.6175049,0.304224494 28.9667495,0.809636235 28.9743385,1.3758584 L28.9743385,1.3758584 Z" id="Shape"></path>
            </g>
        </g>
    </g>
</svg>