<?xml version="1.0" encoding="UTF-8"?>
<svg width="59.0771652px" height="67px" viewBox="0 0 59.0771652 67" version="1.1" xmlns="http://www.w3.org/2000/svg" xmlns:xlink="http://www.w3.org/1999/xlink">
    <title>es6</title>
    <g id="Page-1" stroke="none" stroke-width="1" fill="none" fill-rule="evenodd">
        <g id="es6" fill-rule="nonzero">
            <polygon id="path13" fill="#D4B830" points="5.3766278 60.3026018 0 0 59.0771652 0 53.6955721 60.2928698 29.5024352 67"></polygon>
            <polygon id="path15" fill="#FDD83C" points="29.5389798 61.8734248 49.0877717 56.4536982 53.6870318 4.93074367 29.5389798 4.93074367 29.5389798 61.8734248"></polygon>
            <g id="Group" transform="translate(8.058487, 11.808482)">
                <polygon id="path18" fill="#4D4D4D" points="41.6898826 14.9695915 31.266905 14.9695915 31.266905 7.3961154 42.3487981 7.3961154 43.0048793 2.82244751e-15 23.5343009 2.82244751e-15 23.5343009 22.3651108 33.617479 22.3651108 32.7269025 31.9568829 23.5343406 33.6303883 23.5343406 41.3403109 39.6399934 37.6757193"></polygon>
                <path d="M19.4939747,9.2611559e-16 L2.97918122,9.2611559e-16 L3.66498876,7.39909458 L12.0700535,7.39916211 L12.0700535,32.5645425 L7.95064025,31.9618482 L7.423921,26.0634664 C7.423921,26.0634664 2.47464041,26.0634664 1.41122376e-15,26.0634664 L1.03596059,37.6757193 C19.4939747,41.3402176 1.10592986,37.6730381 19.4939747,41.3402176 L19.4939747,9.2611559e-16 Z" id="path24" fill="#000000"></path>
            </g>
        </g>
    </g>
</svg>