<?xml version="1.0" encoding="UTF-8"?>
<svg width="35.3131698px" height="39px" viewBox="0 0 35.3131698 39" version="1.1" xmlns="http://www.w3.org/2000/svg" xmlns:xlink="http://www.w3.org/1999/xlink">
    <title>jest@2x</title>
    <g id="Page-1" stroke="none" stroke-width="1" fill="none" fill-rule="evenodd">
        <g id="jest" fill-rule="nonzero">
            <path d="M33.1022384,19.2019388 C33.1022384,17.1971768 31.4769275,15.5718659 29.4721655,15.5718659 C29.3431024,15.5718659 29.2159738,15.5787751 29.0905035,15.5920406 L34.0764301,0.886583473 L12.8879694,0.886583473 L17.8669868,15.5791896 C17.793517,15.5745615 17.7199235,15.5721652 17.6463082,15.5720041 C15.6415462,15.5720041 14.0162353,17.1970386 14.0162353,19.202077 C14.0162353,20.8225515 15.0783115,22.1945726 16.5440208,22.6613555 C15.7699184,24.0022853 14.7957268,25.2101448 13.6897084,26.2537044 C12.1857223,27.6724314 10.4645123,28.7483259 8.60290808,29.4111907 C6.3864494,28.2725611 5.33984977,25.7403537 6.28419383,23.5201641 C6.39087126,23.2693616 6.49975963,23.0152427 6.60381159,22.7622292 C8.20950049,22.3874763 9.40616708,20.9480219 9.40616708,19.2280554 C9.40616708,17.2231553 7.78085617,15.5979825 5.77595598,15.5979825 C3.77105579,15.5979825 2.14588306,17.2231553 2.14588306,19.2280554 C2.14588306,20.4574715 2.75748195,21.5434533 3.69256773,22.2000999 C2.7941005,24.2457642 1.47334538,26.3867748 1.06183578,28.8681307 C0.568659907,31.8418334 1.06017758,34.9984906 3.63218167,36.7811922 C9.62214744,40.9327686 16.1242202,34.2075299 22.9797656,32.5168584 C25.4642997,31.9042922 28.1916217,32.002955 30.3805819,30.7352622 C32.0244094,29.7831799 33.1081803,28.2052658 33.4156379,26.4338953 C33.719641,24.6839431 33.2766256,22.941591 32.257939,21.5288059 C32.8044546,20.8767235 33.1034298,20.0527556 33.1022384,19.2019388" id="Path" fill="#99425B"></path>
            <path d="M32.5421819,26.2821701 C32.2752119,27.8201492 31.3253405,29.1634282 29.9363229,29.968069 C28.6414081,30.7179893 27.0897488,30.9418461 25.4467504,31.1786921 C24.5666616,31.3055443 23.6565869,31.4369566 22.7675162,31.6561151 C20.4167434,32.2357937 18.1397605,33.3668233 15.9379492,34.4605434 C11.5312867,36.6493654 7.72572107,38.5394354 4.13737948,36.052414 C1.50885847,34.2307447 1.63018332,30.8601799 1.93639732,29.0132231 C2.22022563,27.3019622 2.98755699,25.7259827 3.72946265,24.2019601 C3.85585956,23.9429454 3.98123876,23.6834353 4.10559734,23.4234359 C4.47958354,23.5729421 4.87200623,23.6713848 5.27227818,23.7161079 C4.51696876,26.2087948 5.70479163,28.9191203 8.19775491,30.1998023 L8.53906744,30.3751568 L8.90027835,30.2465082 C10.8711855,29.5445375 12.6873274,28.4183444 14.2981291,26.8984672 C15.3393396,25.9161228 16.2346286,24.8293118 16.9704542,23.6680202 C17.1941575,23.7017685 17.4200736,23.7187203 17.6463082,23.7187334 C19.934484,23.7187334 21.8292522,22.0081634 22.122477,19.7988903 C23.0590827,19.7646208 24.0538637,19.7643445 24.9958586,19.7986139 C25.288807,22.0081634 27.1838516,23.7188716 29.4720273,23.7188716 C30.4288079,23.7188716 31.3162204,23.419014 32.0473478,22.9096707 C32.5548947,23.9486703 32.7443439,25.1177002 32.5421819,26.2821701 L32.5421819,26.2821701 Z M5.77609416,16.484566 C7.28892394,16.484566 8.51958361,17.7153638 8.51958361,19.2281936 C8.51958361,19.77153 8.36012018,20.2782478 8.08637925,20.7049576 C7.63037465,21.4161866 6.85516685,21.9036969 5.96457606,21.9644975 C5.90225543,21.968643 5.83938207,21.9716831 5.77609416,21.9716831 C5.43892713,21.9716831 5.11599297,21.9101915 4.81737906,21.7985395 C4.21598253,21.5723936 3.71236586,21.143452 3.39340108,20.5857055 C3.15655401,20.1725067 3.03210997,19.7044599 3.03246577,19.2281936 C3.03246577,17.7153638 4.26326438,16.484566 5.77609416,16.484566 L5.77609416,16.484566 Z M14.902957,19.202077 C14.902957,17.8275686 15.9190181,16.6863135 17.2392205,16.4889879 C17.3721528,16.4689513 17.508125,16.4585876 17.6464464,16.4585876 C18.5259826,16.4585876 19.3090668,16.8752099 19.8112246,17.5208019 C19.9370065,17.6817725 20.0444403,17.8562714 20.1315333,18.0410617 C20.3020657,18.4043324 20.3902994,18.8007706 20.389937,19.202077 C20.389937,19.4213738 20.3634047,19.6345904 20.314626,19.8391016 C20.0472415,20.9583856 19.0928101,21.814016 17.9232274,21.9317481 C17.8323028,21.9408682 17.7399965,21.9455674 17.6464464,21.9455674 C17.118738,21.9459997 16.6022401,21.7933065 16.1595951,21.5060057 C15.4042857,21.0166989 14.902957,20.1670104 14.902957,19.202077 L14.902957,19.202077 Z M26.3535086,15.9395714 C25.7564837,16.5094341 25.3268249,17.23184 25.1111034,18.028487 C24.0770152,17.9903637 23.0418731,17.9903637 22.0077849,18.028487 C21.7756371,17.1673292 21.2944832,16.407598 20.6470948,15.8305449 L23.4860689,10.090138 L26.3535086,15.9395714 Z M14.124571,1.77344331 L32.8396903,1.77344331 L28.4193476,14.8103382 C28.2291754,14.8558879 28.0421835,14.913818 27.8595675,14.9837582 L23.492978,6.07605391 L19.1139521,14.9305576 C18.9230556,14.8650325 18.7279593,14.8124497 18.5299899,14.7731669 L14.124571,1.77344331 Z M32.2155168,19.2022152 C32.2155168,19.4771998 32.1744764,19.7427879 32.0988901,19.9935904 C31.9195652,20.584053 31.5471548,21.097194 31.041374,21.4507324 C30.5816846,21.7733406 30.0336234,21.9461992 29.4720273,21.9457057 C28.2053018,21.9457057 27.1367311,21.0824741 26.8225025,19.9134442 C26.760105,19.6815187 26.7285379,19.4423878 26.7285379,19.2022152 C26.7285379,18.827186 26.8042623,18.4695678 26.9410637,18.1437318 C27.0116558,17.9770129 27.0985826,17.8176935 27.2005717,17.6681052 C27.6943003,16.9393269 28.5274069,16.4587257 29.4720273,16.4587257 C29.5586682,16.4587257 29.6440654,16.4631476 29.7287717,16.4711622 C31.1216585,16.6009163 32.215655,17.7758881 32.215655,19.2022152 L32.2155168,19.2022152 Z M33.9888219,19.2022152 C33.9888219,16.9970875 32.3999914,15.1571781 30.3073448,14.764185 L35.3131698,0 L11.6513679,0 L16.6649311,14.7940326 C14.6449689,15.2435426 13.12979,17.0486299 13.12979,19.202077 C13.12979,20.8190969 13.984315,22.2393439 15.264997,23.0374902 C14.6489762,23.955303 13.9185398,24.8189481 13.0814259,25.6088033 C11.7537616,26.8611578 10.2747867,27.8110291 8.68029068,28.4360318 C7.07418724,27.4271562 6.39529313,25.5245116 7.10030386,23.8671422 L7.15557715,23.7372499 L7.25921455,23.4934948 C9.02326141,22.8781649 10.2927506,21.1992389 10.2927506,19.2281936 C10.2927506,16.7375795 8.26657015,14.7113991 5.77609416,14.7113991 C3.28561818,14.7113991 1.25916141,16.7375795 1.25916141,19.2281936 C1.25916141,20.4852463 1.77596661,21.6235996 2.60755317,22.4433024 C2.45245556,22.7719159 2.29501482,23.0994185 2.13524296,23.425785 C1.37482075,24.9873934 0.513110257,26.7573822 0.187136065,28.7230383 C-0.460114089,32.626714 0.583998244,35.7473054 3.12726022,37.5098323 C4.6704903,38.5793703 6.23776427,39 7.81484924,39 C10.7844064,39 13.7885094,37.5080359 16.726699,36.0485448 C18.8426985,34.9976615 21.0308296,33.9108506 23.1921532,33.3777397 C23.9963795,33.1794468 24.8238205,33.0600565 25.6999021,32.9337571 C27.4372796,32.6830928 29.2336613,32.4239992 30.8249791,31.5024554 C32.6695868,30.4340228 33.9321668,28.6417866 34.2892322,26.5856204 C34.5957226,24.8203299 34.2269116,23.0522758 33.3273389,21.5527116 C33.7607942,20.8453388 33.9897598,20.0316907 33.9888219,19.202077 L33.9888219,19.2022152 Z" id="Shape" fill="#FFFFFF"></path>
        </g>
    </g>
</svg>