<?xml version="1.0" encoding="UTF-8"?>
<svg width="67px" height="41.2183947px" viewBox="0 0 67 41.2183947" version="1.1" xmlns="http://www.w3.org/2000/svg" xmlns:xlink="http://www.w3.org/1999/xlink">
    <title>pug@2x</title>
    <g id="Page-1" stroke="none" stroke-width="1" fill="none" fill-rule="evenodd">
        <g id="pug" fill-rule="nonzero">
            <path d="M56.0644809,12.8641073 C55.9598947,10.5632101 56.2736534,8.52377843 55.227791,6.79810549 C52.7177213,2.51006972 46.442547,-3.04386015e-15 33.8921984,-3.04386015e-15 L33.8921984,0.366051834 L33.6307328,0.366051834 L33.8921984,0.366051834 L33.8921984,-3.04386015e-15 C21.3418498,-3.04386015e-15 14.7529168,2.51006972 12.2428471,6.85039861 C11.2492778,8.62836466 11.353864,10.6155032 11.1969847,12.9164004 C11.0923984,14.7466596 10.2557085,16.681505 10.6217604,18.7732298 C11.0401053,21.492472 11.1969847,24.2117142 11.6153296,26.7217839 C11.9290883,28.7612155 14.7529168,30.4868885 15.0143824,32.4217339 C15.746486,37.755632 21.2895567,40.2134086 33.8399053,40.2134086 L33.8399053,40.6317536 L33.5261466,40.6317536 L33.8921984,40.6317536 L33.8921984,40.2134086 C46.442547,40.2134086 51.7764452,37.755632 52.4562557,32.4217339 C52.7177213,30.4345954 55.3323773,28.7612155 55.646136,26.7217839 C56.0644809,24.2117142 56.2213603,21.492472 56.6397052,18.7732298 C57.0057571,16.681505 56.1690672,14.6943665 56.0644809,12.8641073 Z" id="Path" fill="#EFCCA3"></path>
            <path d="M33.6830259,14.7466596 C35.93163,14.7989527 37.5004236,16.2108669 38.964631,17.5181949 C40.6903039,19.0346954 43.6187186,20.0805578 44.8214603,21.3878857 C46.024202,22.6952137 47.5929956,24.0025417 48.1682199,26.0419734 C48.7434442,28.081405 48.9003236,30.696061 48.9003236,31.3758715 C48.9003236,32.0556821 49.2663754,31.8988027 50.3122378,31.3758715 C52.7700144,30.1731298 55.4892566,26.9309564 55.4892566,26.9309564 C55.1754979,28.970388 52.5085488,30.8006472 52.2470832,32.7354926 C51.6195658,38.0693908 46.442547,40.6317536 33.6307328,40.6317536 L33.5784397,40.6317536 L33.8921984,40.6317536" id="Path" fill="#CCAC8D"></path>
            <path d="M41.9453387,10.6677963 C42.4159768,12.288883 44.0893566,17.7796605 40.8471832,15.9494013 C40.8471832,15.9494013 42.2068043,16.7337981 43.0434943,19.7145059 C43.9324773,22.6952137 46.0764952,23.0612656 46.0764952,23.0612656 C46.0764952,23.0612656 49.5801341,23.7410761 52.1947901,21.492472 C54.3911011,19.6099197 54.7571529,16.2631601 53.8158768,13.7007972 C52.8746007,11.1907275 51.2012208,10.4063307 48.7434442,9.88339952 C46.2856676,9.30817521 41.3701144,8.83753714 41.9453387,10.6677963 L41.9453387,10.6677963 Z" id="Path" fill="#CCAC8D"></path>
            <circle id="Oval" fill="#000000" cx="48.1682199" cy="16.6292119" r="4.60179449"></circle>
            <circle id="Oval" fill="#FFFFFF" cx="46.9654782" cy="14.5897803" r="1.20274174"></circle>
            <path d="M41.160942,16.4200394 C41.160942,16.4200394 45.2920984,19.2438679 47.5407025,22.0154032 C49.7893066,24.7869385 49.7370135,25.3098697 49.7370135,25.3098697 L48.1159268,26.0419734 C48.1159268,26.0419734 45.8150296,21.7016445 42.9912011,20.0805578 C40.1150796,18.4594711 39.8013209,17.09985 39.8013209,17.09985 L41.160942,16.4200394 L41.160942,16.4200394 Z" id="Path" fill="#EFCCA3"></path>
            <path d="M33.8399053,14.7466596 C31.5913011,14.7989527 29.9179213,16.2108669 28.4014209,17.5181949 C26.6757479,19.0346954 23.642747,20.0805578 22.4400053,21.3878857 C21.2372636,22.6952137 19.6161769,24.0025417 19.0409525,26.0419734 C18.4657282,28.081405 18.2565558,30.696061 18.2565558,31.3758715 C18.2565558,32.0556821 18.361142,32.1079752 16.8446415,31.3758715 C14.3868649,30.2254229 11.6676227,26.9309564 11.6676227,26.9309564 C11.9813815,28.970388 14.6483305,30.8006472 14.9097961,32.7354926 C15.6418998,38.0693908 20.8189186,40.6317536 33.6307328,40.6317536 L33.8921984,40.6317536" id="Path" fill="#CCAC8D"></path>
            <path d="M45.9719089,23.5841967 C43.4618392,20.4989027 39.435269,17.6227812 33.8399053,17.6227812 L33.7876122,17.6227812 C28.1922484,17.6227812 24.1656782,20.4989027 21.6556085,23.5841967 C19.0409525,26.774077 19.250125,28.0291119 19.250125,31.0621128 C19.250125,42.0436678 23.1198158,38.9060807 25.6821787,40.2657018 C28.2968346,41.5730297 31.0160768,41.1546848 33.7876122,41.1546848 L33.8399053,41.1546848 C36.6637337,41.1546848 39.3306828,41.5207366 41.9453387,40.2134086 C44.5077016,38.9060807 48.3773924,42.1482541 48.3773924,31.166699 C48.4296855,28.1336981 48.5865649,26.774077 45.9719089,23.5841967 L45.9719089,23.5841967 Z" id="Path" fill="#56332B"></path>
            <path d="M33.5784397,20.3420234 C33.5784397,20.3420234 33.2123878,25.4144559 32.4802842,26.4080252 L33.8399053,26.0942665 L33.5784397,20.3420234 Z" id="Path" fill="#442823"></path>
            <path d="M33.9444915,20.3420234 C33.9444915,20.3420234 34.3105433,25.4144559 35.042647,26.4080252 L33.6830259,26.0942665 L33.9444915,20.3420234 Z" id="Path" fill="#442823"></path>
            <path d="M29.5518695,19.1392816 C29.0289383,17.9365399 30.9114906,16.0016945 33.8921984,15.9494013 C36.8729062,15.9494013 38.7554585,17.8842468 38.2325273,19.1392816 C37.7095961,20.3943165 35.8270438,20.7603683 33.8921984,20.8126614 C32.0096461,20.7603683 30.0748007,20.3943165 29.5518695,19.1392816 L29.5518695,19.1392816 Z" id="Path" fill="#56332B"></path>
            <path d="M33.8921984,20.3420234 C33.8921984,20.1328509 35.6701644,20.0805578 36.6114406,19.4530403 C36.6114406,19.4530403 34.6765952,20.0805578 34.2582502,19.8190922 C33.8399053,19.6099197 33.735319,18.9824023 33.735319,18.9824023 C33.735319,18.9824023 33.5784397,19.6099197 33.264681,19.8190922 C32.8986291,20.0282646 30.7023181,19.4530403 30.7023181,19.4530403 C30.7023181,19.4530403 33.6307328,20.185144 33.6307328,20.3420234 C33.6307328,20.4989027 33.5784397,21.0218339 33.5784397,21.3878857 C33.5784397,22.6952137 33.5784397,25.9373871 33.7876122,26.1988527 C34.1013709,26.6694908 33.9967846,22.6952137 33.9967846,21.3878857 C33.9444915,20.9695408 33.9444915,20.5511958 33.8921984,20.3420234 L33.8921984,20.3420234 Z" id="Path" fill="#000000"></path>
            <path d="M33.9967846,27.3493013 C34.8857677,27.3493013 36.4545612,27.9768188 37.8664755,28.970388 C36.5068544,27.4538876 34.8857677,26.4080252 33.9967846,26.4080252 C33.0555085,26.4080252 31.06837,27.5584738 29.6564557,29.2318536 C31.1206631,28.081405 33.0032154,27.3493013 33.9967846,27.3493013 Z" id="Path" fill="#7F4A41"></path>
            <path d="M33.6307328,36.6051834 C31.6435943,36.6051834 29.7087489,35.977666 27.9307828,35.5070279 C27.564731,35.4024417 27.1986791,35.6639073 26.8326273,35.559321 C23.5381608,34.5134587 20.8712117,32.7354926 19.250125,30.4868885 L19.250125,31.0098197 C19.250125,41.9913747 23.1198158,38.9060807 25.6821787,40.2134086 C28.2968346,41.5207366 31.0160768,41.1023917 33.7876122,41.1023917 L33.8399053,41.1023917 C36.6637337,41.1023917 39.3306828,41.4684435 41.9453387,40.1611155 C44.5077016,38.8537875 48.3773924,42.0436678 48.3773924,31.0621128 C48.3773924,30.6437678 48.3773924,30.2254229 48.4296855,29.8593711 C46.9131851,32.3171477 44.1416498,34.2519931 40.6903039,35.4024417 C40.3765452,35.5070279 39.6444415,35.2455623 39.3306828,35.2978554 C37.4481305,35.9253729 35.7747507,36.6051834 33.6307328,36.6051834 L33.6307328,36.6051834 Z" id="Path" fill="#442823"></path>
            <path d="M28.6628865,30.696061 C28.6628865,30.696061 27.3555585,34.6180449 28.2445415,36.3437178 L27.0417998,35.8207866 C27.0417998,35.8207866 27.9307828,31.8465096 28.6628865,30.696061 L28.6628865,30.696061 Z M39.0169241,30.696061 C39.0169241,30.696061 40.3242521,34.6180449 39.435269,36.3437178 L40.6380108,35.8207866 C40.6380108,35.8207866 39.6967346,31.8465096 39.0169241,30.696061 Z" id="Shape" fill="#442823"></path>
            <path d="M25.3161268,10.6677963 C24.8454888,12.288883 23.172109,17.7796605 26.4142824,15.9494013 C26.4142824,15.9494013 25.0546613,16.7337981 24.2179713,19.7145059 C23.3812814,22.6952137 21.1849704,23.0612656 21.1849704,23.0612656 C21.1849704,23.0612656 17.6813314,23.7410761 15.0666755,21.492472 C12.8703645,19.6099197 12.5043126,16.2631601 13.4455888,13.7007972 C14.3868649,11.1384344 16.0602448,10.4063307 18.5180214,9.88339952 C20.975798,9.30817521 25.839058,8.83753714 25.3161268,10.6677963 L25.3161268,10.6677963 Z" id="Path" fill="#CCAC8D"></path>
            <path d="M33.8399053,26.4080252 C35.2518195,26.4080252 39.6444415,29.4410261 39.6967346,33.1538376 L39.6967346,32.9446651 C39.6967346,29.0749743 36.1408025,25.9896802 33.8399053,25.9896802 C31.539008,25.9896802 27.9830759,29.1272674 27.9830759,32.9446651 L27.9830759,33.1538376 C28.035369,29.4410261 32.4279911,26.4080252 33.8399053,26.4080252 Z" id="Path" fill="#000000"></path>
            <ellipse id="Oval" fill="#331712" transform="translate(34.785560, 18.408215) rotate(-14.465000) translate(-34.785560, -18.408215) " cx="34.7855603" cy="18.408215" rx="1" ry="1"></ellipse>
            <ellipse id="Oval" fill="#331712" transform="translate(32.526009, 18.410779) rotate(17.235000) translate(-32.526009, -18.410779) " cx="32.5260086" cy="18.4107789" rx="1" ry="1"></ellipse>
            <circle id="Oval" fill="#000000" cx="19.3547113" cy="16.6292119" r="4.60179449"></circle>
            <circle id="Oval" fill="#FFFFFF" cx="20.557453" cy="14.5897803" r="1.20274174"></circle>
            <path d="M35.1995264,16.681505 C35.1995264,16.6292119 33.9967846,17.2044362 33.6830259,17.2567293 C33.3692672,17.2044362 32.1665255,16.6292119 32.1665255,16.681505 L35.1995264,16.681505 Z" id="Path" fill="#7F4A41"></path>
            <path d="M26.0482305,16.4200394 C26.0482305,16.4200394 21.9170741,19.2438679 19.66847,22.0154032 C17.4198659,24.7869385 17.472159,25.3098697 17.472159,25.3098697 L19.0932457,26.0419734 C19.0932457,26.0419734 21.3941429,21.7016445 24.2179713,20.0805578 C27.0417998,18.4594711 27.4078516,17.09985 27.4078516,17.09985 L26.0482305,16.4200394 Z" id="Path" fill="#EFCCA3"></path>
            <path d="M17.0015209,8.05314035 C17.0015209,8.05314035 15.5896067,11.9228312 12.4520195,13.5439179 C12.4520195,13.5439179 17.3675727,12.9686936 17.0015209,8.05314035 Z M49.9984791,8.05314035 C49.9984791,8.05314035 51.4103933,11.9228312 54.5479805,13.5439179 C54.5479805,13.5439179 49.6324273,12.9686936 49.9984791,8.05314035 Z M41.0563557,15.2695908 C41.0563557,15.2695908 37.9710617,12.0274174 33.8399053,11.9228312 L33.8921984,11.9228312 L33.9444915,11.9228312 C29.761042,12.0274174 26.7280411,15.2695908 26.7280411,15.2695908 C30.3362663,12.7595211 33.4215603,12.8118142 33.9444915,12.8118142 C33.8921984,12.8118142 37.4481305,12.7595211 41.0563557,15.2695908 L41.0563557,15.2695908 Z M37.4481305,8.47148531 C37.4481305,8.47148531 35.8793369,6.2751743 33.7876122,6.22288118 L33.8921984,6.22288118 C32.3234048,6.2751743 30.2839732,8.47148531 30.2839732,8.47148531 C32.0619392,6.74581237 33.8921984,6.79810549 33.8921984,6.79810549 C33.8921984,6.79810549 35.6178713,6.74581237 37.4481305,8.47148531 Z M19.3547113,24.5254729 C19.3547113,24.5254729 16.8969347,25.7282146 15.1189686,24.996111 L15.0666755,24.996111 C13.4978819,24.1071279 12.7134851,21.4401789 12.7134851,21.4401789 C12.7134851,21.4401789 14.2822787,26.1465596 19.3547113,24.5254729 L19.3547113,24.5254729 Z M48.0113406,24.5254729 C48.0113406,24.5254729 50.4691172,25.7282146 52.2470832,24.996111 C54.338808,24.1071279 54.6525667,21.4401789 54.6525667,21.4401789 C54.6525667,21.4401789 53.0837731,26.1465596 48.0113406,24.5254729 L48.0113406,24.5254729 Z" id="Shape" fill="#CCAC8D"></path>
            <path d="M22.1785397,7.79167476 C23.5381608,7.53020916 25.7867649,7.47791604 27.564731,8.05314035 C29.8133351,8.83753714 27.9830759,11.7136587 28.453714,11.8705381 C28.9243521,12.0274174 29.5518695,9.88339952 33.735319,10.092572 C37.9710617,10.3017445 38.4416998,12.1842968 39.0169241,11.8705381 C39.5921484,11.5567793 38.4416998,6.64122614 44.7691672,7.79167476 C44.7691672,7.79167476 38.127941,6.01370871 38.4416998,10.8246757 C38.4416998,10.8246757 34.6243021,7.896261 29.2904039,10.510917 C29.342697,10.510917 30.7023181,6.01370871 22.1785397,7.79167476 L22.1785397,7.79167476 Z M45.3443915,7.79167476 C45.4489777,7.79167476 45.5012709,7.84396788 45.553564,7.84396788 C45.6058571,7.84396788 45.5012709,7.79167476 45.3443915,7.79167476 Z M20.3482805,1.3596211 C20.3482805,1.3596211 14.7006237,8.47148531 13.8639337,11.1907275 C13.0272438,13.9622628 12.3997264,25.3098697 11.6676227,26.9309564 L9.05296678,15.7402289 L13.8639337,4.0788633 L20.3482805,1.3596211 L20.3482805,1.3596211 Z M46.9131851,1.3596211 C46.9131851,1.3596211 52.5608419,8.47148531 53.3975318,11.1907275 C54.2342218,13.9622628 54.8617392,25.3098697 55.5938429,26.9309564 L58.2084988,15.7402289 L53.3975318,4.0788633 L46.9131851,1.3596211 L46.9131851,1.3596211 Z" id="Shape" fill="#CCAC8D"></path>
            <path d="M46.6517195,1.3596211 C46.6517195,1.3596211 52.7177213,6.43205366 54.4956874,12.288883 C56.2736534,18.1457124 55.5415497,25.2575766 56.9011708,26.1465596 C58.8360162,27.4015944 61.0323272,19.9236784 61.7644309,19.1392816 C62.9148795,17.8842468 66.7322772,14.6943665 66.9937428,14.1191422 C67.2552084,13.5439179 59.2543612,4.81096696 55.7507222,3.08529403 C51.5149796,1.0981555 46.2856676,0.941276145 46.6517195,1.3596211 Z" id="Path" fill="#56332B"></path>
            <path d="M51.8287383,4.49720825 C51.8287383,4.49720825 58.9928956,13.6485041 58.8883094,25.0484041 L61.7644309,19.1915747 C61.7121378,19.1915747 59.2020681,11.7136587 51.8287383,4.49720825 L51.8287383,4.49720825 Z" id="Path" fill="#442823"></path>
            <path d="M20.3482805,1.3596211 C20.3482805,1.3596211 14.2822787,6.43205366 12.5043126,12.288883 C10.7263466,18.1457124 11.4584503,25.2575766 10.0988292,26.1465596 C8.16398376,27.4015944 5.96767275,19.9236784 5.23556908,19.1392816 C4.08512046,17.8842468 0.267722762,14.6943665 0.00625716598,14.1191422 C-0.25520843,13.5439179 7.7456388,4.81096696 11.2492778,3.08529403 C15.4850204,1.0981555 20.7143324,0.941276145 20.3482805,1.3596211 L20.3482805,1.3596211 Z" id="Path" fill="#56332B"></path>
            <path d="M15.1712617,4.49720825 C15.1712617,4.49720825 8.0071044,13.6485041 8.11169064,25.0484041 L5.2878622,19.1915747 C5.2878622,19.1915747 7.79793192,11.7136587 15.1712617,4.49720825 Z" id="Path" fill="#442823"></path>
            <path d="M11.3015709,25.2575766 C11.3015709,25.2575766 11.8245021,28.081405 12.661192,28.970388 C13.4978819,29.8593711 12.9226576,28.2905775 12.9226576,28.2905775 C12.9226576,28.2905775 12.0336746,27.8199394 12.1905539,24.2117142 C12.3474333,20.603489 11.3015709,25.2575766 11.3015709,25.2575766 L11.3015709,25.2575766 Z M55.9076016,25.2575766 C55.9076016,25.2575766 55.3846704,28.081405 54.5479805,28.970388 C53.7112906,29.8593711 54.2865149,28.2905775 54.2865149,28.2905775 C54.2865149,28.2905775 55.1754979,27.8199394 55.0186185,24.2117142 C54.8617392,20.603489 55.9076016,25.2575766 55.9076016,25.2575766 L55.9076016,25.2575766 Z" id="Shape" fill="#CCAC8D"></path>
            <g id="Group" transform="translate(24.793196, 22.695214)" fill="#442823">
                <circle id="Oval" cx="3.60822522" cy="0.418344953" r="1"></circle>
                <circle id="Oval" cx="1.20274174" cy="2.92841467" r="1"></circle>
                <circle id="Oval" cx="0.418344953" cy="0.418344953" r="1"></circle>
            </g>
            <g id="Group" transform="translate(38.180234, 22.695214)" fill="#442823">
                <circle id="Oval" cx="0.418344953" cy="0.418344953" r="1"></circle>
                <circle id="Oval" cx="2.82382844" cy="2.92841467" r="1"></circle>
                <circle id="Oval" cx="3.60822522" cy="0.418344953" r="1"></circle>
            </g>
        </g>
    </g>
</svg>