<?xml version="1.0" encoding="UTF-8"?>
<svg width="24.5908136px" height="17px" viewBox="0 0 24.5908136 17" version="1.1" xmlns="http://www.w3.org/2000/svg" xmlns:xlink="http://www.w3.org/1999/xlink">
    <title>hardhat</title>
    <g id="Page-1" stroke="none" stroke-width="1" fill="none" fill-rule="evenodd">
        <g id="hardhat" fill-rule="nonzero">
            <path d="M24.5908136,14.2556219 C24.5908136,14.2556219 20.8452535,13.700724 18.8660106,13.5415673 C16.9652707,13.3888629 14.7128803,13.3006814 12.2964941,13.3006814 C9.88010783,13.3006814 7.6277175,13.3888629 5.72751522,13.5415673 C3.74773457,13.7028749 0.00271225872,14.4728493 0.00271225872,14.4728493 L0.00271225872,15.4406942 C0.00271225872,16.3010008 5.50706164,17 12.2964941,17 C19.0859265,17 24.5902758,16.3010008 24.5902758,15.4406942 L24.5908136,14.2556219 Z" id="Path" fill="#F0D50C"></path>
            <path d="M8.51652179,1.41823378 C4.0272762,3.01779043 1.02942085,7.26817881 1.02916561,12.0338799 L1.02916561,13.6297488 C2.63116104,13.2470216 4.26453058,13.0101866 5.90925499,12.9221466 C5.8981427,12.6160207 5.89240733,12.307565 5.89204886,11.9967792 C5.89366194,7.80923669 6.90452223,4.04109363 8.51652179,1.41823378 Z" id="Path" fill="#F0D50C"></path>
            <path d="M23.5633091,12.0338799 C23.567137,9.41891012 22.6574916,6.88472133 20.9915056,4.86913877 C21.7137355,7.17588347 22.0736112,9.58073809 22.0582859,11.9978546 C22.0582859,12.4376863 22.0469944,12.8724997 22.0244114,13.3022945 C22.5371065,13.381205 23.0449531,13.4889137 23.545541,13.6249095 L23.5633091,12.0338799 Z" id="Path" fill="#FFF04D"></path>
            <path d="M23.5633091,12.0338799 C23.567137,9.41891012 22.6574916,6.88472133 20.9915056,4.86913877 C21.7137355,7.17588347 22.0736112,9.58073809 22.0582859,11.9978546 C22.0582859,12.4376863 22.0469944,12.8724997 22.0244114,13.3022945 C22.5371065,13.381205 23.0449531,13.4889137 23.545541,13.6249095 L23.5633091,12.0338799 Z" id="Path" fill="#FFEA00"></path>
            <path d="M20.9915056,4.86860108 C17.9728409,1.20939608 12.9870419,-0.16965013 8.51705947,1.41823378 C6.90398454,4.04109363 5.89366194,7.80923669 5.89366194,11.9973169 C5.89366194,12.3081026 5.89939731,12.6165585 5.91086807,12.9226842 C7.588466,12.7931005 9.53060823,12.7129845 11.6103995,12.6984668 C11.6103995,12.6984668 12.0830305,12.6984668 12.2975694,12.6984668 C15.5507369,12.6594271 18.8023137,12.8619767 22.0254867,13.3044453 C22.0473529,12.874292 22.0586444,12.4394787 22.0593612,12.0000054 C22.0746258,9.58193132 21.7143837,7.17614576 20.9915056,4.86860108 L20.9915056,4.86860108 Z" id="Path" fill="#FFF04D"></path>
            <g id="Group" transform="translate(7.818598, 0.000000)" fill="#FFF04D">
                <path d="M9.01009892,5.6138417 L8.29604441,1.15100104 C8.24532076,0.822654652 8.01006448,0.552863421 7.691679,0.457916502 C5.6111275,-0.152638834 3.39897142,-0.152638834 1.31841992,0.457916502 C1.00024411,0.553037853 0.76522782,0.822793856 0.714592198,1.15100104 L0,5.6138417" id="Path"></path>
            </g>
            <path d="M12.2975694,12.6038331 C12.0824928,12.6038331 11.8690292,12.6038331 11.6571787,12.6038331 L11.6335202,12.6038331 L11.6098619,12.6038331 C5.13981825,12.6489992 0.00324995036,13.3286415 0.00324995036,14.1604504 L0.00324995036,15.365955 C-0.00723240062,15.4366005 0.0078293874,15.5086683 0.0457275904,15.5692025 C0.374328703,15.3224075 0.752036702,15.1489552 1.15337238,15.0605463 C2.17550022,14.8118473 3.21437793,14.6378922 4.26176779,14.5400608 C4.85662051,14.4748119 5.45077862,14.6687507 5.89258655,15.0723754 C6.70153145,15.8129474 7.75852751,16.2236604 8.85526753,16.2235733 L15.7377206,16.2235733 C16.8344508,16.2235733 17.8914286,15.8129023 18.7004015,15.0723754 L18.7004015,15.0723754 C19.1421757,14.6682843 19.736631,14.4741164 20.331758,14.539523 C21.3789719,14.6373445 22.4176716,14.8112998 23.4396157,15.0600085 C23.8196981,15.1330965 24.1786546,15.2901629 24.4902652,15.5197349 C24.5080091,15.5374788 24.5284414,15.5530718 24.5440343,15.5692025 C24.5821952,15.5083696 24.5974447,15.4359349 24.5870497,15.3648797 L24.5870497,14.1593751 C24.5908136,13.3017568 19.0864642,12.6038331 12.2975694,12.6038331 Z" id="Path" fill="#FFF04D"></path>
            <polygon id="Path" fill="#6E6F70" points="14.8870924 9.02388212 12.2943433 10.6197509 12.2943433 12.6925523"></polygon>
            <polygon id="Path" fill="#0A0A0A" points="12.2970318 12.6925523 12.2970318 10.6197509 9.70428265 9.02388212"></polygon>
            <polygon id="Path" fill="#0A0A0A" points="9.70428265 8.07700713 9.70428265 8.07700713 12.2970318 9.57609144 12.2970318 3.88354998"></polygon>
            <polygon id="Path" fill="#6E6F70" points="14.8870924 8.07700713 12.2943433 3.88301229 12.2943433 3.88301229 12.2943433 6.57738513 12.2943433 6.57738513 12.2943433 9.57555375 14.8870924 8.07646944 14.8870924 8.07646944"></polygon>
        </g>
    </g>
</svg>