<?xml version="1.0" encoding="UTF-8"?>
<svg width="27px" height="10.0873921px" viewBox="0 0 27 10.0873921" version="1.1" xmlns="http://www.w3.org/2000/svg" xmlns:xlink="http://www.w3.org/1999/xlink">
    <title>Go</title>
    <g id="Page-1" stroke="none" stroke-width="1" fill="none" fill-rule="evenodd">
        <g id="Go" fill="#00ACD7" fill-rule="nonzero">
            <path d="M2.03760929,3.05435355 C1.98502583,3.05435355 1.97187996,3.02806182 1.99817169,2.98862422 L2.27423489,2.63368583 C2.30052662,2.59424823 2.36625595,2.5679565 2.41883942,2.5679565 L7.11191373,2.5679565 C7.16449719,2.5679565 7.17764306,2.6073941 7.15135133,2.64683169 L6.9278716,2.98862422 C6.90157986,3.02806182 6.83585053,3.06749942 6.79641293,3.06749942 L2.03760929,3.05435355 Z" id="Path"></path>
            <path d="M0.0525834656,4.26377326 C0,4.26377326 -0.0131458664,4.23748153 0.0131458664,4.19804393 L0.289209061,3.84310554 C0.315500794,3.80366794 0.381230126,3.77737621 0.433813591,3.77737621 L6.42832867,3.77737621 C6.48091214,3.77737621 6.50720387,3.81681381 6.49405801,3.8562514 L6.38889107,4.1717522 C6.37574521,4.22433566 6.32316174,4.2506274 6.27057828,4.2506274 L0.0525834656,4.26377326 Z" id="Path"></path>
            <path d="M3.23388314,5.47319297 C3.18129967,5.47319297 3.1681538,5.43375537 3.19444554,5.39431777 L3.37848767,5.06567111 C3.4047794,5.02623351 3.45736287,4.98679592 3.50994633,4.98679592 L6.13911961,4.98679592 C6.19170308,4.98679592 6.21799481,5.02623351 6.21799481,5.07881698 L6.19170308,5.39431777 C6.19170308,5.44690124 6.13911961,5.48633884 6.09968201,5.48633884 L3.23388314,5.47319297 Z" id="Path"></path>
            <g id="CXHf1q_3_" transform="translate(7.166460, 0.000000)">
                <g id="Group" transform="translate(0.000000, 0.000000)">
                    <path d="M9.71283296,2.81772796 C8.88464338,3.02806182 8.31937112,3.18581222 7.50432741,3.39614608 C7.30713941,3.44872955 7.29399354,3.46187541 7.12309728,3.26468742 C6.92590928,3.04120769 6.78130475,2.89660316 6.50524156,2.76514449 C5.67705198,2.35762263 4.87515412,2.47593543 4.12583974,2.96233249 C3.23192082,3.54075061 2.7718155,4.39523193 2.78496137,5.46004711 C2.79810723,6.51171642 3.52112988,7.3793436 4.55965333,7.52394813 C5.45357225,7.64226093 6.20288663,7.32676014 6.79445062,6.65632095 C6.91276342,6.51171642 7.01793035,6.35396602 7.14938901,6.16992389 C6.67613782,6.16992389 6.08457383,6.16992389 4.6122368,6.16992389 C4.3361736,6.16992389 4.27044427,5.99902763 4.36246533,5.7755479 C4.5333616,5.36802604 4.84886239,4.68444099 5.03290452,4.34264846 C5.07234212,4.26377326 5.16436319,4.1323146 5.36155118,4.1323146 C6.03199037,4.1323146 8.50341325,4.1323146 10.1466466,4.1323146 C10.1203548,4.48725299 10.1203548,4.84219139 10.0677714,5.19712978 C9.92316683,6.14363216 9.56822843,7.01125934 8.98981031,7.77371959 C8.04330793,9.0225769 6.80759649,9.79818302 5.24323838,10.0085169 C3.95494348,10.1794131 2.75866963,9.92964169 1.70700032,9.1408897 C0.734206206,8.40472118 0.182079817,7.43192707 0.0374752865,6.22250736 C-0.133420977,4.78960792 0.287246748,3.50131301 1.15487393,2.3707685 C2.08823045,1.14820292 3.32394189,0.372596806 4.83571653,0.0965336116 C6.07142797,-0.126946117 7.25455594,0.0176584132 8.31937112,0.740681066 C9.01610204,1.20078639 9.51564497,1.83178798 9.84429163,2.59424823 C9.92316683,2.71256103 9.87058336,2.77829036 9.71283296,2.81772796 Z" id="Path"></path>
                    <path d="M14.0641147,10.0873921 C12.8678409,10.0611003 11.776734,9.71930782 10.8565233,8.93055584 C10.0809172,8.26011665 9.59452017,7.40563533 9.43676977,6.39340362 C9.20014417,4.90792072 9.60766603,3.59333408 10.5015849,2.42335197 C11.4612332,1.16134879 12.6180694,0.50405547 14.1824275,0.227992276 C15.5233059,-0.00863331964 16.7853091,0.122825344 17.9289995,0.898431463 C18.9675229,1.60830825 19.6116704,2.5679565 19.7825666,3.82995967 C20.0060464,5.60465164 19.4933576,7.05069694 18.270792,8.28640838 C17.4031648,9.16718143 16.3383496,9.71930782 15.1157841,9.96907928 C14.7608457,10.0348086 14.4059073,10.0479545 14.0641147,10.0873921 Z M17.1928309,4.77646205 C17.1796851,4.60556579 17.1796851,4.47410713 17.1533934,4.34264846 C16.9167678,3.04120769 15.7204939,2.30503917 14.4716366,2.59424823 C13.249071,2.87031142 12.460319,3.64591754 12.17111,4.88162898 C11.9344844,5.90700656 12.4340273,6.94553001 13.3805297,7.36619774 C14.1035523,7.68169853 14.826575,7.64226093 15.5233059,7.28732254 C16.5618294,6.74834201 17.1271016,5.90700656 17.1928309,4.77646205 Z" id="Shape"></path>
                </g>
            </g>
        </g>
    </g>
</svg>