<?xml version="1.0" encoding="UTF-8"?>
<svg width="16.5136397px" height="17px" viewBox="0 0 16.5136397 17" version="1.1" xmlns="http://www.w3.org/2000/svg" xmlns:xlink="http://www.w3.org/1999/xlink">
    <title>laravel copy</title>
    <g id="Page-1" stroke="none" stroke-width="1" fill="none" fill-rule="evenodd">
        <g id="laravel-copy" fill="#FF2D20">
            <path d="M16.5043277,3.84584532 C16.5104509,3.86850917 16.5136397,3.89187695 16.5136397,3.91535333 L16.5136397,7.56435755 C16.5136397,7.65968905 16.4626416,7.74773663 16.3799449,7.79516405 L13.317269,9.5584725 L13.317269,13.0534949 C13.317269,13.1486111 13.2667177,13.2364107 13.1842393,13.2843014 L6.79116534,16.9645675 C6.77653207,16.9728819 6.76056851,16.9782031 6.74460495,16.9838569 C6.73861861,16.9858523 6.73296485,16.9895106 6.72664594,16.9911735 C6.68195594,17.0029422 6.63498052,17.0029422 6.59029051,16.9911735 C6.58297388,16.989178 6.5763224,16.9851872 6.56933834,16.9825266 C6.55470507,16.9772054 6.53940666,16.9725493 6.52543854,16.9645675 L0.133694832,13.2843014 C0.0510485501,13.2368234 0,13.1488078 0,13.0534949 L0,2.10648221 C0,2.08253687 0.00332574208,2.05925667 0.00931207784,2.03664163 C0.0113075231,2.02899242 0.015963562,2.02200836 0.0186241557,2.01435916 C0.0236127688,2.00039104 0.0282688077,1.98609035 0.0355854403,1.97311995 C0.0405740534,1.96447303 0.047890686,1.95748897 0.0538770218,1.94950719 C0.0615262286,1.93886481 0.0685102869,1.92788986 0.0774897906,1.91857778 C0.0851389974,1.91092858 0.0951162236,1.90527482 0.103763153,1.89862333 C0.113407805,1.89064155 0.122054735,1.88199462 0.133029683,1.87567571 L0.133362258,1.87567571 L3.3294004,0.0355426164 C3.41175605,-0.0118475388 3.51310412,-0.0118475388 3.59545977,0.0355426164 L6.79149791,1.87567571 L6.79216306,1.87567571 C6.80280543,1.8823272 6.81178494,1.89064155 6.82142959,1.89829076 C6.83007652,1.90494224 6.83972117,1.91092858 6.84737038,1.91824521 C6.85668246,1.92788986 6.86333394,1.93886481 6.87131572,1.94950719 C6.87696948,1.95748897 6.88461869,1.96447303 6.88927473,1.97311995 C6.89692394,1.98642292 6.9012474,2.00039104 6.90656859,2.01435916 C6.90922918,2.02200836 6.91388522,2.02899242 6.91588067,2.0369742 C6.92200389,2.05963805 6.92513451,2.08300583 6.92519274,2.10648221 L6.92519274,8.94387536 L9.588447,7.41037569 L9.588447,3.91502076 C9.588447,3.89174056 9.59177275,3.86812779 9.59775908,3.84584532 C9.6000871,3.83786354 9.60441057,3.83087948 9.60707116,3.82323028 C9.61239235,3.80926216 9.61704839,3.79496147 9.62436502,3.78199107 C9.62935363,3.77334415 9.63667026,3.76636009 9.64232403,3.75837831 C9.65030581,3.74773593 9.65695729,3.73676098 9.66626937,3.7274489 C9.67391858,3.7197997 9.68356323,3.71414594 9.69221016,3.70749445 C9.70218738,3.69951267 9.71083431,3.69086574 9.72147669,3.68454683 L9.72180926,3.68454683 L12.91818,1.84441374 C13.0005174,1.7969553 13.101902,1.7969553 13.1842393,1.84441374 L16.3802775,3.68454683 C16.391585,3.69119832 16.4002319,3.69951267 16.4102092,3.70716188 C16.4185235,3.71381336 16.4281682,3.7197997 16.4358174,3.72711633 C16.4451295,3.73676098 16.4517809,3.74773593 16.4597627,3.75837831 C16.4657491,3.76636009 16.4730657,3.77334415 16.4777217,3.78199107 C16.4853709,3.79496147 16.4896944,3.80926216 16.4950156,3.82323028 C16.4980088,3.83087948 16.5023322,3.83786354 16.5043277,3.84584532 Z M15.9808559,7.41037569 L15.9808559,4.37596861 L14.8624088,5.01983228 L13.317269,5.90946829 L13.317269,8.94387536 L15.9811884,7.41037569 L15.9808559,7.41037569 Z M12.7848177,12.899513 L12.7848177,9.86311048 L11.2649536,10.7311292 L6.92486017,13.2081419 L6.92486017,16.2731458 L12.7848177,12.899513 Z M0.532783882,2.56709749 L0.532783882,12.899513 L6.39207629,16.2728132 L6.39207629,13.2084744 L3.33106327,11.4760954 L3.33006555,11.4754302 L3.32873525,11.4747651 C3.31842545,11.4687788 3.30977852,11.4601318 3.30013387,11.4528152 C3.29181952,11.4461637 3.28217486,11.4408425 3.27485823,11.4335259 L3.27419308,11.4325282 C3.26554615,11.4242138 3.25955982,11.413904 3.25224318,11.4045919 C3.2455917,11.3956124 3.23760992,11.3879632 3.23228873,11.3786511 L3.23195616,11.3776534 C3.22596982,11.3676762 3.22231151,11.3557035 3.21798804,11.344396 C3.21366458,11.3344188 3.20801081,11.3251067 3.20535022,11.3144643 L3.20535022,11.3141317 C3.20202448,11.3014939 3.20135933,11.288191 3.20002903,11.2752206 C3.19869874,11.2652433 3.19603814,11.2552661 3.19603814,11.2452889 L3.19603814,11.2446237 L3.19603814,4.10059717 L1.65123095,3.21062858 L0.532783882,2.56743007 L0.532783882,2.56709749 Z M3.46276266,0.573647686 L0.799840971,2.10648221 L3.46209751,3.63931674 L6.12468662,2.10614964 L3.46209751,0.573647686 L3.46276266,0.573647686 Z M4.84760166,10.1398122 L6.39240886,9.25050878 L6.39240886,2.56709749 L5.2739618,3.21096116 L3.72882203,4.10059717 L3.72882203,10.7840085 L4.84760166,10.1398122 Z M13.0512097,2.38251881 L10.3886205,3.91535333 L13.0512097,5.44818786 L15.7134662,3.91502076 L13.0512097,2.38251881 Z M12.7848177,5.90946829 L11.2396779,5.01983228 L10.1212309,4.37596861 L10.1212309,7.41037569 L11.6660381,8.29967912 L12.7848177,8.94387536 L12.7848177,5.90946829 Z M6.65813565,12.7475266 L10.5635546,10.5179491 L12.5157652,9.40382549 L9.85517152,7.87198869 L6.79183049,9.63562972 L3.99987001,11.2429609 L6.65813565,12.7475266 Z" id="Shape"></path>
        </g>
    </g>
</svg>