<?xml version="1.0" encoding="UTF-8"?>
<svg width="17.2536373px" height="19px" viewBox="0 0 17.2536373 19" version="1.1" xmlns="http://www.w3.org/2000/svg" xmlns:xlink="http://www.w3.org/1999/xlink">
    <title>node-js</title>
    <g id="Page-1" stroke="none" stroke-width="1" fill="none" fill-rule="evenodd">
        <g id="node-js" fill="#8CC84B" fill-rule="nonzero">
            <path d="M7.84471347,0.202972205 C8.32159325,-0.0670609737 8.92961498,-0.0682531731 9.39457277,0.202972205 L16.514388,4.2165117 C16.9596745,4.46687359 17.2577243,4.96342467 17.2535949,5.47666654 L17.2535949,13.5240129 C17.2565321,14.0587144 16.9292734,14.5659953 16.4595468,14.8115883 L9.37788198,18.8066487 C8.88460399,19.0792432 8.28222897,19.0625803 7.80477479,18.7631335 L5.67967924,17.535168 C5.53482701,17.4487336 5.37209178,17.3801821 5.26956262,17.2400986 C5.36016978,17.1184943 5.52111671,17.1029957 5.65225865,17.0493467 C5.94792412,16.955163 6.2185534,16.8109068 6.49037488,16.6583053 C6.55892635,16.6106173 6.64297641,16.6285003 6.70854738,16.6714195 L8.52069056,17.7193628 C8.65004421,17.7938753 8.78118615,17.6955188 8.8920607,17.6329284 L15.8455641,13.7088038 C15.9314024,13.6670769 15.9790904,13.5764697 15.9719372,13.4822859 L15.9719372,5.51243252 C15.9814748,5.40513457 15.9200765,5.30737421 15.8229123,5.26385893 L8.75913046,1.28608542 C8.67579245,1.22844465 8.56552923,1.22820753 8.48194408,1.28548932 L1.42829595,5.27160823 C1.33291999,5.31512351 1.26734902,5.41169166 1.27927102,5.51898962 L1.27927102,13.488843 C1.27092562,13.5830268 1.320998,13.6718457 1.40743246,13.7123804 L3.29229981,14.7764185 C3.64638305,14.9671704 4.08093976,15.0744683 4.47078898,14.9343849 C4.82015763,14.802717 5.05093915,14.4678342 5.04960182,14.0944804 L5.05139012,6.17231492 C5.04304473,6.05488328 5.15391928,5.95771902 5.26777433,5.96964101 L6.17384592,5.96964101 C6.29306586,5.96666052 6.38665352,6.09303366 6.37055883,6.21106141 L6.36877053,14.1832992 C6.36936663,14.8914657 6.07846996,15.6616266 5.42335636,16.0091527 C4.61623732,16.4264225 3.61836637,16.3387959 2.82078492,15.9376207 L0.794045835,14.8169532 C0.31716605,14.5785133 -0.00293950653,14.0634832 2.03542533e-05,13.5293778 L2.03542533e-05,5.48203143 C0.00407890225,4.94939536 0.296623022,4.46083299 0.764240849,4.20578191 L7.84471347,0.202972205 Z M9.89768094,5.7812735 C10.9271452,5.72166353 12.0293336,5.74193092 12.9556726,6.24921179 C13.6727805,6.63786881 14.0703791,7.45333325 14.0834933,8.25091469 C14.0632259,8.35821264 13.9511591,8.41782261 13.84863,8.41007332 C13.5505801,8.40947722 13.251338,8.41424602 12.952096,8.40828502 C12.8251267,8.41305382 12.7518065,8.29621827 12.7357118,8.18415152 C12.6498734,7.80264769 12.4418346,7.42531656 12.0829826,7.24112174 C11.5321864,6.96512757 10.8931675,6.97883786 10.292299,6.98479886 C9.85356956,7.00864285 9.38205468,7.04619713 9.01068454,7.30371221 C8.72455667,7.49923293 8.63871831,7.89981195 8.74065136,8.21097601 C8.83602732,8.4392822 9.1000995,8.51260247 9.31529151,8.58055784 C10.5563711,8.9048361 11.8707711,8.87860771 13.0886028,9.30005022 C13.5923071,9.47411134 14.0852816,9.81269599 14.2581505,10.3402443 C14.4834762,11.0472185 14.3851197,11.892488 13.8826077,12.4599749 C13.4748754,12.9273171 12.8811601,13.1752946 12.2880409,13.3195507 C11.4994009,13.4954001 10.6815521,13.4995728 9.88099015,13.4208877 C9.12811619,13.3350493 8.34484114,13.1371442 7.7636439,12.6244984 C7.26649673,12.1929222 7.02448024,11.5205217 7.04832423,10.8719652 C7.05428522,10.7622829 7.16337147,10.6859821 7.26888113,10.6949236 L8.16303072,10.6949236 C8.28344287,10.6865782 8.37166563,10.7902995 8.37762663,10.9035585 C8.4330639,11.2612183 8.56957074,11.6486832 8.8866958,11.8573181 C9.49829412,12.2519361 10.2654745,12.2245155 10.9652956,12.2358414 C11.5453006,12.2102091 12.1962415,12.2024598 12.6701408,11.8185716 C12.9205027,11.599803 12.993823,11.2343938 12.9264637,10.9196532 C12.8531434,10.6537927 12.5688038,10.5304001 12.330364,10.4427734 C11.105379,10.0553086 9.7760766,10.1959881 8.56301364,9.75725871 C8.07063527,9.58319759 7.59435158,9.25415054 7.40538796,8.74806187 C7.14131578,8.03274219 7.26232403,7.14634189 7.81848508,6.59793013 C8.35497484,6.05249888 9.14182648,5.84207567 9.88695115,5.7669671 L9.89768094,5.7812735 Z" id="Shape"></path>
        </g>
    </g>
</svg>