<?xml version="1.0" encoding="UTF-8"?>
<svg width="25.9200469px" height="13.6349063px" viewBox="0 0 25.9200469 13.6349063" version="1.1" xmlns="http://www.w3.org/2000/svg" xmlns:xlink="http://www.w3.org/1999/xlink">
    <title>php</title>
    <defs>
        <path d="M8.32667268e-16,6.81745313 C8.32667268e-16,3.0523125 5.80251563,-3.33066907e-16 12.96,-3.33066907e-16 L12.96,-3.33066907e-16 C20.1174844,-3.33066907e-16 25.9200469,3.0523125 25.9200469,6.81745313 L25.9200469,6.81745313 C25.9200469,10.5825469 20.1174844,13.6349063 12.96,13.6349063 L12.96,13.6349063 C5.80251563,13.6349063 8.32667268e-16,10.5825469 8.32667268e-16,6.81745313" id="path-1"></path>
        <radialGradient cx="30.020204%" cy="82.421541%" fx="30.020204%" fy="82.421541%" r="124.814489%" gradientTransform="translate(0.300202,0.824215),scale(0.526037,1.000000),translate(-0.300202,-0.824215)" id="radialGradient-3">
            <stop stop-color="#AEB2D5" offset="0%"></stop>
            <stop stop-color="#AEB2D5" offset="30%"></stop>
            <stop stop-color="#484C89" offset="75%"></stop>
            <stop stop-color="#484C89" offset="100%"></stop>
        </radialGradient>
        <polygon id="path-4" points="0 15.1875 27 15.1875 27 0 0 0"></polygon>
        <polygon id="path-6" points="0 15.1875 27 15.1875 27 0 0 0"></polygon>
    </defs>
    <g id="Page-1" stroke="none" stroke-width="1" fill="none" fill-rule="evenodd">
        <g id="php" transform="translate(-0.540000, -0.776297)">
            <g id="g3438" transform="translate(13.500000, 7.593750) scale(-1, 1) rotate(-180.000000) translate(-13.500000, -7.593750) translate(0.000000, 0.000000)">
                <g id="g3442-Clipped" transform="translate(0.540000, 0.776297)">
                    <mask id="mask-2" fill="white">
                        <use xlink:href="#path-1"></use>
                    </mask>
                    <g id="path3446"></g>
                    <g id="g3442" mask="url(#mask-2)" fill="url(#radialGradient-3)" fill-rule="nonzero">
                        <g id="g3450">
                            <path d="M8.32667268e-16,6.81745313 C8.32667268e-16,3.0523125 5.80251563,-3.33066907e-16 12.96,-3.33066907e-16 L12.96,-3.33066907e-16 C20.1174844,-3.33066907e-16 25.9200469,3.0523125 25.9200469,6.81745313 L25.9200469,6.81745313 C25.9200469,10.5825469 20.1174844,13.6349063 12.96,13.6349063 L12.96,13.6349063 C5.80251563,13.6349063 8.32667268e-16,10.5825469 8.32667268e-16,6.81745313" id="path3462"></path>
                        </g>
                    </g>
                </g>
                <g id="g3466-Clipped">
                    <mask id="mask-5" fill="white">
                        <use xlink:href="#path-4"></use>
                    </mask>
                    <g id="path3470"></g>
                    <g id="g3466" mask="url(#mask-5)">
                        <g transform="translate(1.046250, 1.282472)" id="g3472">
                            <g transform="translate(0.000000, 0.000000)">
                                <path d="M12.45375,0 C19.3316719,0 24.9075,2.82567188 24.9075,6.31129688 C24.9075,9.796875 19.3316719,12.6225938 12.45375,12.6225938 C5.57582813,12.6225938 0,9.796875 0,6.31129688 C0,2.82567188 5.57582813,0 12.45375,0" id="path3474" fill="#777BB3" fill-rule="nonzero"></path>
                            </g>
                        </g>
                    </g>
                </g>
                <g id="g3478-Clipped">
                    <mask id="mask-7" fill="white">
                        <use xlink:href="#path-6"></use>
                    </mask>
                    <g id="path3482"></g>
                    <g id="g3478" mask="url(#mask-7)">
                        <g transform="translate(4.344011, 3.494864)">
                            <g id="g3484" transform="translate(0.140624, 0.140602)">
                                <path d="M3.0966645,3.17578125 C3.66221137,3.17578125 4.0844145,3.28007812 4.35155512,3.48567187 C4.61583637,3.68915625 4.79836762,4.04170312 4.8940395,4.53346875 C4.98324262,4.993125 4.94925825,5.31407812 4.79307075,5.48728125 C4.63336762,5.6641875 4.28808637,5.75390625 3.76683637,5.75390625 L2.8630395,5.75390625 L2.36199262,3.17578125 L3.0966645,3.17578125 Z M0.140586371,0 C0.0986332456,0 0.0587894956,0.01875 0.0321176206,0.0511875 C0.00539887056,0.083578125 -0.00542925444,0.126234375 0.00258637056,0.1674375 L1.33046137,6.99951562 C1.34330512,7.0655625 1.40119575,7.11328125 1.46850825,7.11328125 L4.3304145,7.11328125 C5.229852,7.11328125 5.89932075,6.8690625 6.32011762,6.38732812 C6.7431645,5.9030625 6.87380512,5.22614062 6.70838325,4.37540625 C6.64107075,4.0288125 6.5252895,3.70692187 6.36427387,3.41873437 C6.20307075,3.13021875 5.99002387,2.86326562 5.73094575,2.62514062 C5.42082075,2.33489062 5.06982075,2.12442187 4.68863325,2.00057813 C4.31349262,1.878375 3.83171137,1.81640625 3.25669575,1.81640625 L2.097852,1.81640625 L1.7669145,0.1138125 C1.75407075,0.04771875 1.696227,0 1.6289145,0 L0.140586371,0 Z" id="path3486" fill="#000000" fill-rule="nonzero"></path>
                            </g>
                            <g id="g3488">
                                <path d="M3.11959509,5.75390625 L3.90747009,5.75390625 C4.53657947,5.75390625 4.75511072,5.61585938 4.82936072,5.53359375 C4.95254822,5.397 4.97579822,5.109 4.89662634,4.70076562 C4.80765759,4.24373437 4.64275134,3.9196875 4.40640759,3.73771875 C4.16443884,3.5514375 3.77106384,3.45703125 3.23729822,3.45703125 L2.67320447,3.45703125 L3.11959509,5.75390625 Z M4.47104822,7.39453125 L1.60909509,7.39453125 C1.47447009,7.39453125 1.35873572,7.29909375 1.33304822,7.16695313 L0.00517321594,0.334875 C-0.0108580341,0.252421875 0.0107982159,0.16715625 0.0641888409,0.102328125 C0.117626341,0.0375 0.197220091,0 0.281220091,0 L1.76950134,0 C1.90417322,0 2.01990759,0.0954375 2.04559509,0.227578125 L2.35440759,1.81640625 L3.39732947,1.81640625 C3.98711072,1.81640625 4.48361072,1.88071875 4.87290759,2.00751562 C5.27326697,2.13759375 5.64161072,2.35814062 5.96762634,2.66301562 C6.23725134,2.91107812 6.45934509,3.18951562 6.62762634,3.4906875 C6.79595447,3.79195312 6.91689197,4.12790625 6.98706384,4.48921875 C7.16120447,5.38471875 7.01973572,6.1018125 6.56664197,6.6204375 C6.11795447,7.13409375 5.41286072,7.39453125 4.47104822,7.39453125 M2.33200134,3.17578125 L3.23729822,3.17578125 C3.83734509,3.17578125 4.28429822,3.28879688 4.57797009,3.514875 C4.87168884,3.741 5.06978259,4.11839062 5.17272009,4.64723438 C5.27120447,5.15498437 5.22634509,5.51329687 5.03814197,5.72203125 C4.84970447,5.93076562 4.47287634,6.03515625 3.90747009,6.03515625 L2.88775134,6.03515625 L2.33200134,3.17578125 M4.47104822,7.11328125 C5.33200134,7.11328125 5.96007947,6.88734375 6.35486072,6.43542187 C6.74959509,5.9835 6.86847009,5.35270312 6.71097009,4.54284375 C6.64614197,4.20923438 6.53650134,3.90421875 6.38214197,3.62789063 C6.22759509,3.351375 6.02579822,3.09853125 5.77642322,2.86926562 C5.47923572,2.59115625 5.14909509,2.39296875 4.78581384,2.2749375 C4.42253259,2.15657813 3.95982947,2.09765625 3.39732947,2.09765625 L2.12251697,2.09765625 L1.76950134,0.28125 L0.281220091,0.28125 L1.60909509,7.11328125 L4.47104822,7.11328125" id="path3490" fill="#FFFFFF" fill-rule="nonzero"></path>
                            </g>
                            <g id="g3492" transform="translate(6.476277, 1.957008)">
                                <path d="M3.7851645,0 C3.7431645,0 3.70336762,0.01875 3.67669575,0.0511875 C3.64993012,0.083578125 3.639102,0.1261875 3.64711762,0.1674375 L4.23450825,3.19035938 C4.29038325,3.47784375 4.276602,3.6841875 4.19574262,3.771375 C4.14624262,3.82467188 3.99755512,3.9140625 3.5579145,3.9140625 L2.49375825,3.9140625 L1.75524262,0.1138125 C1.74239887,0.04771875 1.68450825,0 1.61719575,0 L0.140633246,0 C0.0986332456,0 0.0588363706,0.01875 0.0321176206,0.0511875 C0.00539887056,0.083578125 -0.00542925444,0.126234375 0.00258637056,0.1674375 L1.33046137,6.99951562 C1.34330512,7.0655625 1.40119575,7.11328125 1.46850825,7.11328125 L2.94507075,7.11328125 C2.98707075,7.11328125 3.02686762,7.09453125 3.05358637,7.06214062 C3.08030512,7.02970312 3.09113325,6.98709375 3.08311762,6.94584375 L2.76268012,5.296875 L3.90746137,5.296875 C4.77957075,5.296875 5.37094575,5.143125 5.71538325,4.8268125 C6.066477,4.504125 6.17602387,3.98817187 6.04102387,3.29310937 L5.42321137,0.1138125 C5.41036762,0.04771875 5.35252387,0 5.2851645,0 L3.7851645,0 Z" id="path3494" fill="#000000" fill-rule="nonzero"></path>
                            </g>
                            <g id="g3496" transform="translate(6.335649, 1.816406)">
                                <path d="M3.08570399,7.39453125 L1.60914149,7.39453125 C1.47446962,7.39453125 1.35873524,7.29909375 1.33304774,7.16695313 L0.00517274112,0.334875 C-0.0108585089,0.252421875 0.0107977411,0.16715625 0.0642352411,0.102328125 C0.117672741,0.0375 0.197266491,0 0.281266491,0 L1.75782899,0 C1.89245399,0 2.00823524,0.0954375 2.03392274,0.227578125 L2.75031337,3.9140625 L3.69854774,3.9140625 C4.13743837,3.9140625 4.22954774,3.8203125 4.23325087,3.81628125 C4.25987587,3.78764063 4.29489149,3.65498438 4.23709462,3.35779688 L3.64970399,0.334875 C3.63367274,0.252421875 3.65532899,0.16715625 3.70876649,0.102328125 C3.76220399,0.0375 3.84179774,0 3.92579774,0 L5.42579774,0 C5.56042274,0 5.67620399,0.0954375 5.70189149,0.227578125 L6.31965712,3.406875 C6.46464149,4.15317187 6.34061024,4.713 5.95117274,5.0709375 C5.57954774,5.41223437 4.95704774,5.578125 4.04809462,5.578125 L3.07384462,5.578125 L3.36179774,7.05960937 C3.37778212,7.1420625 3.35617274,7.227375 3.30273524,7.29215625 C3.24929774,7.35698438 3.16970399,7.39453125 3.08570399,7.39453125 M3.08570399,7.11328125 L2.73268837,5.296875 L4.04809462,5.296875 C4.87576649,5.296875 5.44665712,5.15240625 5.76086024,4.86384375 C6.07506337,4.57509375 6.16918837,4.10723438 6.04361024,3.4605 L5.42579774,0.28125 L3.92579774,0.28125 L4.51318837,3.304125 C4.58003212,3.648 4.55546962,3.8825625 4.43940712,4.007625 C4.32329774,4.1326875 4.07631337,4.1953125 3.69854774,4.1953125 L2.51842274,4.1953125 L1.75782899,0.28125 L0.281266491,0.28125 L1.60914149,7.11328125 L3.08570399,7.11328125" id="path3498" fill="#FFFFFF" fill-rule="nonzero"></path>
                            </g>
                            <g id="g3500" transform="translate(11.756977, 0.140602)">
                                <path d="M3.09665887,3.17578125 C3.66220575,3.17578125 4.08440887,3.28007812 4.3515495,3.48567187 C4.61583075,3.68910937 4.798362,4.04165625 4.89408075,4.53346875 C4.98328387,4.993125 4.9492995,5.31407812 4.79306512,5.48728125 C4.633362,5.6641875 4.28808075,5.75390625 3.76683075,5.75390625 L2.86303387,5.75390625 L2.361987,3.17578125 L3.09665887,3.17578125 Z M0.140627623,0 C0.0986744978,0 0.0588307478,0.01875 0.0321588728,0.0511875 C0.00544012284,0.083578125 -0.00543487716,0.126234375 0.00258074784,0.1674375 L1.33045575,6.99951562 C1.34334637,7.0655625 1.40119012,7.11328125 1.4685495,7.11328125 L4.33040887,7.11328125 C5.22989325,7.11328125 5.89931512,6.8690625 6.32015887,6.38732812 C6.74320575,5.90310937 6.8737995,5.2261875 6.7084245,4.37540625 C6.64101825,4.0288125 6.52528387,3.70692187 6.36426825,3.41873437 C6.20306512,3.13021875 5.99001825,2.86326562 5.73094012,2.62514062 C5.42081512,2.33489062 5.06981512,2.12442187 4.68862762,2.00057813 C4.313487,1.878375 3.83170575,1.81640625 3.25669012,1.81640625 L2.0977995,1.81640625 L1.76700262,0.1138125 C1.754112,0.04771875 1.69626825,0 1.62890887,0 L0.140627623,0 Z" id="path3502" fill="#000000" fill-rule="nonzero"></path>
                            </g>
                            <g id="g3504" transform="translate(11.616398, 0.000000)">
                                <path d="M3.11954822,5.75390625 L3.90742322,5.75390625 C4.53653259,5.75390625 4.75506384,5.61585938 4.82931384,5.53359375 C4.95254822,5.397 4.97579822,5.109 4.89657947,4.7008125 C4.80761072,4.24373437 4.64265759,3.9196875 4.40636072,3.73771875 C4.16439197,3.5514375 3.77101697,3.45703125 3.23725134,3.45703125 L2.67320447,3.45703125 L3.11954822,5.75390625 Z M4.47100134,7.39453125 L1.60909509,7.39453125 C1.47447009,7.39453125 1.35873572,7.29909375 1.33304822,7.16695313 L0.00517321594,0.334875 C-0.0108580341,0.252421875 0.0107982159,0.16715625 0.0641888409,0.102328125 C0.117626341,0.0375 0.197220091,0 0.281220091,0 L1.76950134,0 C1.90412634,0 2.01990759,0.0954375 2.04559509,0.227578125 L2.35436072,1.81640625 L3.39728259,1.81640625 C3.98706384,1.81640625 4.48356384,1.88071875 4.87286072,2.00751562 C5.27322009,2.13759375 5.64165759,2.3581875 5.96767322,2.66310937 C6.23729822,2.911125 6.45929822,3.18951563 6.62757947,3.4906875 C6.79590759,3.79195313 6.91684509,4.12790625 6.98701697,4.48921875 C7.16115759,5.38476562 7.01968884,6.10185938 6.56659509,6.62048437 C6.11790759,7.13409375 5.41286072,7.39453125 4.47100134,7.39453125 M2.33200134,3.17578125 L3.23725134,3.17578125 C3.83729822,3.17578125 4.28425134,3.28879688 4.57792322,3.514875 C4.87168884,3.741 5.06973572,4.11839062 5.17267322,4.64723438 C5.27120447,5.15498437 5.22634509,5.51329687 5.03809509,5.72203125 C4.84965759,5.93076562 4.47282947,6.03515625 3.90742322,6.03515625 L2.88770447,6.03515625 L2.33200134,3.17578125 M4.47100134,7.11328125 C5.33195447,7.11328125 5.96003259,6.88734375 6.35481384,6.43542187 C6.74959509,5.9835 6.86842322,5.35270312 6.71092322,4.54284375 C6.64609509,4.20923438 6.53645447,3.90421875 6.38209509,3.62789063 C6.22754822,3.351375 6.02575134,3.09853125 5.77637634,2.86926562 C5.47918884,2.59115625 5.14904822,2.39296875 4.78576697,2.2749375 C4.42248572,2.15657813 3.95978259,2.09765625 3.39728259,2.09765625 L2.12247009,2.09765625 L1.76950134,0.28125 L0.281220091,0.28125 L1.60909509,7.11328125 L4.47100134,7.11328125" id="path3506" fill="#FFFFFF" fill-rule="nonzero"></path>
                            </g>
                        </g>
                    </g>
                </g>
            </g>
        </g>
    </g>
</svg>