<?xml version="1.0" encoding="UTF-8"?>
<svg width="47.0176166px" height="12px" viewBox="0 0 47.0176166 12" version="1.1" xmlns="http://www.w3.org/2000/svg" xmlns:xlink="http://www.w3.org/1999/xlink">
    <title>phpunit</title>
    <g id="Page-1" stroke="none" stroke-width="1" fill="none" fill-rule="evenodd">
        <g id="phpunit" fill-rule="nonzero">
            <rect id="Rectangle" fill="#356388" x="28.2528497" y="-1.10447057e-15" width="2.44974093" height="2.20103627"></rect>
            <rect id="Rectangle" fill="#39B54A" x="39.2455959" y="-1.10447057e-15" width="2.4" height="2.33782383"></rect>
            <rect id="Rectangle" fill="#39B54A" x="31.9336788" y="9.47564767" width="2.4" height="2.33782383"></rect>
            <rect id="Rectangle" fill="#39B54A" x="28.2528497" y="2.89740933" width="2.44974093" height="2.33782383"></rect>
            <path d="M28.2528497,5.93160622 L28.2528497,8.69222798 C28.2528497,9.3388601 27.9046632,9.73678756 27.3202073,9.73678756 C26.773057,9.73678756 26.3751295,9.38860104 26.3751295,8.67979275 L26.3751295,-1.10447057e-15 L26.026943,-1.10447057e-15 C24.5595855,-1.10447057e-15 23.7761658,0.94507772 23.7761658,2.78549223 L23.7761658,8.75440415 C23.7761658,10.9927461 25.0569948,12 27.1709845,12 C29.1606218,12 30.7150259,10.8559585 30.7025907,8.70466321 L30.7025907,5.94404145 L28.2528497,5.94404145 L28.2528497,5.93160622 Z" id="Path" fill="#356388"></path>
            <path d="M19.7471503,-1.10447057e-15 L18.1927461,-1.10447057e-15 C16.7253886,-1.10447057e-15 15.9419689,0.94507772 15.9419689,2.78549223 L15.9419689,11.8259067 L18.5284974,11.8259067 L18.5284974,7.62279793 L19.6725389,7.62279793 C21.811399,7.62279793 22.719171,6.13056995 22.719171,3.65595855 C22.719171,1.24352332 21.6870466,-1.10447057e-15 19.7471503,-1.10447057e-15 Z M19.2746114,5.52124352 L18.5284974,5.52124352 L18.5284974,2.12642487 L19.2870466,2.12642487 C19.8963731,2.12642487 20.1948187,2.5865285 20.1948187,3.73056995 C20.1948187,4.9492228 19.8715026,5.52124352 19.2746114,5.52124352 Z" id="Shape" fill="#3C9CD7"></path>
            <path d="M3.80518135,-1.10447057e-15 L2.2507772,-1.10447057e-15 C0.783419689,-1.10447057e-15 -2.20894115e-15,0.94507772 -2.20894115e-15,2.78549223 L-2.20894115e-15,11.8259067 L2.5865285,11.8259067 L2.5865285,7.62279793 L3.73056995,7.62279793 C5.86943005,7.62279793 6.77720207,6.13056995 6.77720207,3.65595855 C6.77720207,1.24352332 5.74507772,-1.10447057e-15 3.80518135,-1.10447057e-15 Z M3.32020725,5.52124352 L2.57409326,5.52124352 L2.57409326,2.12642487 L3.33264249,2.12642487 C3.94196891,2.12642487 4.24041451,2.5865285 4.24041451,3.73056995 C4.25284974,4.9492228 3.91709845,5.52124352 3.32020725,5.52124352 Z" id="Shape" fill="#3C9CD7"></path>
            <path d="M14.3253886,-1.10447057e-15 C12.8580311,-1.10447057e-15 12.0746114,0.94507772 12.0746114,2.78549223 L12.0746114,4.47668394 L12.0746114,4.71295337 L10.2341969,4.71295337 L10.2341969,4.47668394 L10.2341969,-1.10447057e-15 L9.8984456,-1.10447057e-15 C8.43108808,-1.10447057e-15 7.64766839,0.94507772 7.64766839,2.78549223 L7.64766839,11.8259067 L10.2341969,11.8259067 L10.2341969,7.28704663 L10.2341969,7.0507772 L10.2341969,7.0507772 L12.0746114,7.0507772 L12.0746114,7.0507772 L12.0746114,7.28704663 L12.0746114,11.8259067 L14.6487047,11.8259067 L14.6487047,0.0124352332 L14.3253886,0.0124352332 L14.3253886,-1.10447057e-15 Z" id="Path" fill="#3C9CD7"></path>
            <path d="M47.0176166,4.8373057 L47.0176166,2.98445596 L45.811399,2.98445596 L45.811399,0.98238342 L45.0528497,0.98238342 C43.9958549,0.98238342 43.4238342,1.66632124 43.4238342,2.98445596 L42.6404145,2.98445596 L42.6404145,4.8373057 L43.4238342,4.8373057 L43.4238342,10.0601036 C43.4238342,11.3658031 44.3564767,11.9502591 45.5253886,11.9502591 C45.9854922,11.9502591 46.5699482,11.8632124 47.0051813,11.7139896 L47.0051813,9.81139896 C46.8186528,9.84870466 46.557513,9.8611399 46.3088083,9.8611399 C45.9233161,9.8611399 45.811399,9.6746114 45.811399,9.35129534 L45.811399,4.8373057 L47.0176166,4.8373057 Z" id="Path" fill="#356388"></path>
            <path d="M36.1740933,2.6984456 C35.3906736,2.6984456 34.7689119,3.03419689 34.3336788,3.65595855 L34.3336788,2.89740933 L33.5502591,2.89740933 C32.4932642,2.89740933 31.9212435,3.58134715 31.9212435,4.89948187 L31.9212435,8.77927461 L34.3212435,8.77927461 L34.3212435,5.63316062 C34.3212435,5.0984456 34.5823834,4.70051813 34.9803109,4.70051813 C35.5150259,4.70051813 35.626943,5.11088083 35.626943,5.48393782 L35.626943,11.8134715 L38.0145078,11.8134715 L38.0145078,4.58860104 C38.0393782,3.41968912 37.2062176,2.6984456 36.1740933,2.6984456 Z" id="Path" fill="#356388"></path>
            <path d="M40.8746114,2.98445596 C39.8176166,2.98445596 39.2455959,3.66839378 39.2455959,4.9865285 L39.2455959,11.8134715 L41.6455959,11.8134715 L41.6455959,2.98445596 L40.8746114,2.98445596 Z" id="Path" fill="#356388"></path>
        </g>
    </g>
</svg>