<?xml version="1.0" encoding="UTF-8"?>
<svg width="100px" height="69.131507px" viewBox="0 0 100 69.131507" version="1.1" xmlns="http://www.w3.org/2000/svg" xmlns:xlink="http://www.w3.org/1999/xlink">
    <title>hardhat</title>
    <g id="Page-1" stroke="none" stroke-width="1" fill="none" fill-rule="evenodd">
        <g id="hardhat" fill-rule="nonzero">
            <path d="M100,57.9713309 C100,57.9713309 84.7684582,55.7148059 76.7197496,55.0675855 C68.9902781,54.4466043 59.8307992,54.088009 50.0044215,54.088009 C40.1780437,54.088009 31.018565,54.4466043 23.2912799,55.0675855 C15.2403846,55.7235523 0.0110295607,58.8546988 0.0110295607,58.8546988 L0.0110295607,62.7904977 C0.0110295607,66.2889855 22.3947924,69.131507 50.0044215,69.131507 C77.6140508,69.131507 99.9978133,66.2889855 99.9978133,62.7904977 L100,57.9713309 Z" id="Path" fill="#F0D50C"></path>
            <path d="M34.6329404,5.76733168 C16.3771572,12.2720236 4.18620086,29.5564797 4.18516293,48.9364855 L4.18516293,55.4261809 C10.6997722,53.869798 17.3419662,52.9066945 24.0303355,52.5486746 C23.9851467,51.3037957 23.9618234,50.0494422 23.9603657,48.7856133 C23.9669254,31.7567236 28.0776487,16.4333466 34.6329404,5.76733168 Z" id="Path" fill="#F0D50C"></path>
            <path d="M95.8215922,48.9364855 C95.8371586,38.3025559 92.1380316,27.9971271 85.3632012,19.8006412 C88.3001918,29.1811552 89.7636477,38.960639 89.7013262,48.7899863 C89.7013262,50.5785883 89.6554086,52.3467824 89.5635734,54.0945687 C91.6484785,54.4154629 93.7136668,54.8534668 95.7493371,55.4065016 L95.8215922,48.9364855 Z" id="Path" fill="#FFF04D"></path>
            <path d="M95.8215922,48.9364855 C95.8371586,38.3025559 92.1380316,27.9971271 85.3632012,19.8006412 C88.3001918,29.1811552 89.7636477,38.960639 89.7013262,48.7899863 C89.7013262,50.5785883 89.6554086,52.3467824 89.5635734,54.0945687 C91.6484785,54.4154629 93.7136668,54.8534668 95.7493371,55.4065016 L95.8215922,48.9364855 Z" id="Path" fill="#FFEA00"></path>
            <path d="M85.3632012,19.7984547 C73.0876223,4.91808078 52.8125754,-0.689892302 34.6351269,5.76733168 C28.0754621,16.4333466 23.9669254,31.7567236 23.9669254,48.7878 C23.9669254,50.0516285 23.9902486,51.3059824 24.0368952,52.5508609 C30.8589465,52.0239012 38.7567829,51.6981047 47.2143773,51.6390676 C47.2143773,51.6390676 49.1363594,51.6390676 50.0087945,51.6390676 C63.237993,51.4803102 76.4607223,52.3039902 89.5679465,54.1033148 C89.6568664,52.3540711 89.702784,50.585877 89.7056992,48.7987328 C89.7677734,38.9654913 88.3028277,29.1822218 85.3632012,19.7984547 L85.3632012,19.7984547 Z" id="Path" fill="#FFF04D"></path>
            <g id="Group" transform="translate(31.794792, 0.000000)" fill="#FFF04D">
                <path d="M36.640101,22.8290198 L33.736356,4.68061391 C33.5300853,3.34537387 32.5734017,2.24825185 31.2786683,1.86214458 C22.8179824,-0.62071486 13.8221186,-0.62071486 5.3614327,1.86214458 C4.06755191,2.24896119 3.11184426,3.34593996 2.9059315,4.68061391 L0,22.8290198" id="Path"></path>
            </g>
            <path d="M50.0087945,51.254234 C49.1341727,51.254234 48.2661102,51.254234 47.4046078,51.254234 L47.3083992,51.254234 L47.212191,51.254234 C20.9013754,51.4379047 0.0132161157,54.2017102 0.0132161157,57.5843105 L0.0132161157,62.4865664 C-0.0294109856,62.7738504 0.0318386676,63.0669184 0.185953955,63.3130844 C1.52222984,62.3094777 3.0582018,61.6041238 4.69025711,61.2446035 C8.84680051,60.2332543 13.0714583,59.5258559 17.3307312,59.1280184 C19.749735,58.8626801 22.1659141,59.6513437 23.9625523,61.2927074 C27.2521746,64.3042875 31.5505117,65.9744762 36.01047,65.9741219 L63.998373,65.9741219 C68.4582914,65.9741219 72.7565543,64.3041039 76.0462906,61.2927074 L76.0462906,61.2927074 C77.8427914,59.6494469 80.2601793,58.8598516 82.6802984,59.1258316 C86.9388555,59.5236285 91.1627895,60.2310281 95.3185859,61.2424168 C96.8642133,61.5396332 98.3239312,62.1783531 99.5911141,63.1119215 C99.6632707,63.1840777 99.7463598,63.2474879 99.8097695,63.3130844 C99.9649531,63.0657035 100.026966,62.7711437 99.9846941,62.4821934 L99.9846941,57.5799375 C100,54.092382 77.6162371,51.254234 50.0087945,51.254234 Z" id="Path" fill="#FFF04D"></path>
            <polygon id="Path" fill="#6E6F70" points="60.539243 36.6961512 49.9956754 43.1858461 49.9956754 51.6150156"></polygon>
            <polygon id="Path" fill="#0A0A0A" points="50.0066082 51.6150156 50.0066082 43.1858461 39.4630402 36.6961512"></polygon>
            <polygon id="Path" fill="#0A0A0A" points="39.4630402 32.845628 39.4630402 32.845628 50.0066082 38.9417431 50.0066082 15.7926861"></polygon>
            <polygon id="Path" fill="#6E6F70" points="60.539243 32.845628 49.9956754 15.7904995 49.9956754 15.7904995 49.9956754 26.7473262 49.9956754 26.7473262 49.9956754 38.9395566 60.539243 32.8434414 60.539243 32.8434414"></polygon>
        </g>
    </g>
</svg>