<?xml version="1.0" encoding="UTF-8"?>
<svg width="76.6666667px" height="115px" viewBox="0 0 76.6666667 115" version="1.1" xmlns="http://www.w3.org/2000/svg" xmlns:xlink="http://www.w3.org/1999/xlink">
    <title>figma</title>
    <g id="Page-1" stroke="none" stroke-width="1" fill="none" fill-rule="evenodd">
        <g id="figma" transform="translate(0.000000, 0.000000)" fill-rule="nonzero">
            <path d="M19.1666667,115 C29.7466667,115 38.3333333,106.413333 38.3333333,95.8333333 L38.3333333,76.6666667 L19.1666667,76.6666667 C8.58666667,76.6666667 0,85.2533333 0,95.8333333 C0,106.413333 8.58666667,115 19.1666667,115 Z" id="path0_fill" fill="#0ACF83"></path>
            <path d="M0,57.5 C0,46.92 8.58666667,38.3333333 19.1666667,38.3333333 L38.3333333,38.3333333 L38.3333333,76.6666667 L19.1666667,76.6666667 C8.58666667,76.6666667 0,68.08 0,57.5 Z" id="path1_fill" fill="#A259FF"></path>
            <path d="M0,19.1666667 C0,8.58666667 8.58666667,0 19.1666667,0 L38.3333333,0 L38.3333333,38.3333333 L19.1666667,38.3333333 C8.58666667,38.3333333 0,29.7466667 0,19.1666667 Z" id="path1_fill_1_" fill="#F24E1E"></path>
            <path d="M38.3333333,0 L57.5,0 C68.08,0 76.6666667,8.58666667 76.6666667,19.1666667 C76.6666667,29.7466667 68.08,38.3333333 57.5,38.3333333 L38.3333333,38.3333333 L38.3333333,0 Z" id="path2_fill" fill="#FF7262"></path>
            <path d="M76.6666667,57.5 C76.6666667,68.08 68.08,76.6666667 57.5,76.6666667 C46.92,76.6666667 38.3333333,68.08 38.3333333,57.5 C38.3333333,46.92 46.92,38.3333333 57.5,38.3333333 C68.08,38.3333333 76.6666667,46.92 76.6666667,57.5 Z" id="path3_fill" fill="#1ABCFE"></path>
        </g>
    </g>
</svg>